<svg width="24" height="25" viewBox="0 0 24 25" fill="none" xmlns="http://www.w3.org/2000/svg">
<g clip-path="url(#clip0_1246_1902)">
<path d="M16.8525 10.3851L17.5462 10.6701C17.6454 10.4255 17.7293 10.175 17.7975 9.92005L17.0737 9.72505C17.0132 9.94928 16.9394 10.1697 16.8525 10.3851ZM16.1662 11.5701L16.7625 12.0276C16.9207 11.8192 17.066 11.6013 17.1975 11.3751L16.5487 11.0001C16.4335 11.198 16.3057 11.3884 16.1662 11.5701ZM16.845 6.3463L17.535 6.05755C17.4332 5.82297 17.3167 5.59502 17.1862 5.37505L16.5375 5.75005C16.6528 5.94194 16.7555 6.14111 16.845 6.3463ZM15.1987 12.5413L15.6562 13.1338C15.8637 12.9745 16.0604 12.8016 16.245 12.6163L15.7125 12.0876C15.5501 12.2486 15.3786 12.4001 15.1987 12.5413ZM17.205 7.6663L17.955 7.5688C17.9177 7.30968 17.8651 7.05298 17.7975 6.80005L17.0737 6.99505C17.1304 7.21609 17.1742 7.44021 17.205 7.6663ZM17.205 9.0613L17.955 9.15505C17.987 8.89631 18.002 8.63576 18 8.37505V8.35255L17.25 8.37505C17.2501 8.60454 17.235 8.83379 17.205 9.0613ZM14.0137 13.2276L14.3025 13.9176C14.5422 13.8163 14.7752 13.6998 15 13.5688L14.625 12.9201C14.4278 13.0351 14.2236 13.1378 14.0137 13.2276ZM16.7475 4.7038C16.5867 4.49761 16.4126 4.30219 16.2262 4.1188L15.6975 4.6513C15.8607 4.81275 16.0135 4.98434 16.155 5.16505L16.7475 4.7038ZM7.24499 12.0351C7.40541 12.2416 7.57823 12.4382 7.76249 12.6238L8.29124 12.0913C8.13032 11.9288 7.97883 11.7573 7.83749 11.5776L7.24499 12.0351ZM8.35499 13.1413C8.56093 13.2993 8.77633 13.4446 8.99999 13.5763L9.37499 12.9276C9.17659 12.8138 8.98502 12.6886 8.80124 12.5526L8.35499 13.1413ZM12.69 13.5801L12.7875 14.3301C13.0403 14.2952 13.2907 14.2451 13.5375 14.1801L13.3462 13.4526C13.1305 13.5093 12.9113 13.5519 12.69 13.5801ZM11.3212 13.5801L11.2237 14.3301C11.4812 14.362 11.7405 14.377 12 14.3751V13.6251C11.773 13.6253 11.5462 13.6102 11.3212 13.5801ZM9.70874 13.9213C9.95253 14.0225 10.2032 14.1065 10.4587 14.1726L10.65 13.4488C10.4287 13.3909 10.2118 13.3169 10.0012 13.2276L9.70874 13.9213ZM7.82624 5.18755L7.22999 4.7338C7.07212 4.93853 6.92685 5.15268 6.79499 5.37505L7.44749 5.75005C7.56143 5.55455 7.68795 5.36666 7.82624 5.18755ZM7.14374 6.3763L6.44999 6.0913C6.35086 6.33588 6.26695 6.58636 6.19874 6.8413L6.92624 7.0363C6.98313 6.81146 7.05581 6.59091 7.14374 6.3763ZM6.79124 7.70005L6.04124 7.6063C6.01071 7.86138 5.99693 8.11818 5.99999 8.37505H6.74999C6.75065 8.14944 6.76443 7.92406 6.79124 7.70005ZM8.79374 4.2163L8.33624 3.6238C8.12969 3.78422 7.93308 3.95704 7.74749 4.1413L8.27999 4.67005C8.44233 4.50901 8.61387 4.35751 8.79374 4.2163ZM6.79499 9.07255L6.04499 9.17005C6.07923 9.42941 6.1306 9.68622 6.19874 9.9388L6.92249 9.7438C6.86529 9.5231 6.8227 9.29886 6.79499 9.07255ZM15.6375 3.6013C15.4342 3.44434 15.2213 3.30031 15 3.17005L14.625 3.8188C14.8242 3.93112 15.0159 4.05639 15.1987 4.1938L15.6375 3.6013ZM12.6675 3.1663L12.765 2.4163C12.5112 2.38577 12.2556 2.37199 12 2.37505V3.12505C12.2231 3.12548 12.446 3.13926 12.6675 3.1663ZM14.28 2.8213C14.0353 2.72354 13.7848 2.64089 13.53 2.5738L13.3387 3.29755C13.5602 3.35143 13.7782 3.41906 13.9912 3.50005L14.28 2.8213ZM11.2987 3.17005L11.1975 2.42005C10.9382 2.45467 10.6814 2.50602 10.4287 2.5738L10.6237 3.29755C10.8461 3.24213 11.0715 3.19956 11.2987 3.17005ZM7.15124 10.3926L6.46124 10.6813C6.56114 10.9204 6.67767 11.1522 6.80999 11.3751L7.45499 11.0001C7.34207 10.8036 7.24065 10.6008 7.15124 10.3926ZM9.97874 3.53005L9.68624 2.8363C9.45038 2.93799 9.22117 3.05447 8.99999 3.18505L9.37499 3.8338C9.56906 3.71886 9.77078 3.61738 9.97874 3.53005ZM8.64374 7.5463C8.6229 7.61077 8.61991 7.67968 8.6351 7.74571C8.65029 7.81174 8.68308 7.87242 8.72999 7.9213L10.0987 9.3238L9.77624 11.3076C9.76788 11.3759 9.77852 11.4453 9.80697 11.508C9.83543 11.5707 9.8806 11.6244 9.93755 11.6631C9.99449 11.7018 10.061 11.7241 10.1298 11.7276C10.1986 11.731 10.267 11.7154 10.3275 11.6826L12 10.7788L13.6725 11.7051C13.7278 11.7349 13.7897 11.7504 13.8525 11.7501C13.9302 11.7506 14.0062 11.7271 14.07 11.6826C14.1288 11.6413 14.1746 11.5841 14.2019 11.5176C14.2291 11.4511 14.2367 11.3782 14.2237 11.3076L13.9012 9.3238L15.27 7.9213C15.3169 7.87242 15.3497 7.81174 15.3649 7.74571C15.3801 7.67968 15.3771 7.61077 15.3562 7.5463C15.3342 7.48086 15.2945 7.42278 15.2416 7.37844C15.1887 7.33411 15.1245 7.30525 15.0562 7.29505L13.1812 7.01005L12.3412 5.21755C12.3114 5.15208 12.2634 5.09657 12.2029 5.05765C12.1424 5.01873 12.0719 4.99803 12 4.99803C11.928 4.99803 11.8576 5.01873 11.7971 5.05765C11.7366 5.09657 11.6886 5.15208 11.6587 5.21755L10.8187 7.01005L8.94374 7.29505C8.87545 7.30525 8.8113 7.33411 8.75837 7.37844C8.70543 7.42278 8.66577 7.48086 8.64374 7.5463Z" fill="white"/>
<path d="M0.618733 17.4425L5.32498 19.175L7.05748 23.8813C7.08336 23.9507 7.12923 24.0109 7.1893 24.0543C7.24937 24.0977 7.32094 24.1223 7.39498 24.125C7.46712 24.1249 7.53768 24.1039 7.59821 24.0647C7.65873 24.0254 7.70666 23.9696 7.73623 23.9038L9.43873 20.1538C9.43873 20.8291 9.707 21.4767 10.1845 21.9543C10.662 22.4318 11.3097 22.7 11.985 22.7C12.6603 22.7 13.3079 22.4318 13.7855 21.9543C14.263 21.4767 14.5312 20.8291 14.5312 20.1538L16.2337 23.9038C16.2633 23.9696 16.3112 24.0254 16.3718 24.0647C16.4323 24.1039 16.5028 24.1249 16.575 24.125C16.649 24.1223 16.7206 24.0977 16.7807 24.0543C16.8407 24.0109 16.8866 23.9507 16.9125 23.8813L18.675 19.175L23.3812 17.4425C23.451 17.4166 23.5115 17.3705 23.5549 17.31C23.5984 17.2496 23.6229 17.1776 23.6253 17.1032C23.6277 17.0288 23.6079 16.9554 23.5685 16.8923C23.529 16.8291 23.4717 16.7792 23.4037 16.7488L17.0812 13.8763C18.1916 12.8535 18.9674 11.5195 19.3074 10.0487C19.6473 8.57791 19.5355 7.03875 18.9865 5.63252C18.4376 4.22628 17.477 3.01843 16.2305 2.16692C14.984 1.31541 13.5096 0.859863 12 0.859863C10.4904 0.859863 9.01595 1.31541 7.76945 2.16692C6.52294 3.01843 5.56241 4.22628 5.01345 5.63252C4.4645 7.03875 4.35268 8.57791 4.69261 10.0487C5.03254 11.5195 5.8084 12.8535 6.91873 13.8763L0.596233 16.7488C0.528292 16.7792 0.470939 16.8291 0.431479 16.8923C0.392018 16.9554 0.372235 17.0288 0.374648 17.1032C0.377061 17.1776 0.401561 17.2496 0.445028 17.31C0.488496 17.3705 0.548964 17.4166 0.618733 17.4425ZM13.3687 21.2225C13.1149 21.5304 12.7657 21.7451 12.3763 21.8325C11.9869 21.9199 11.5795 21.8752 11.2184 21.7054C10.8573 21.5356 10.563 21.2503 10.382 20.8947C10.2009 20.539 10.1435 20.1332 10.2187 19.7413L10.9687 15.7963C11.6422 15.9013 12.3278 15.9013 13.0012 15.7963L13.7512 19.7413C13.8035 20 13.7977 20.2671 13.7342 20.5233C13.6706 20.7794 13.5509 21.0183 13.3837 21.2225H13.3687ZM5.24998 8.37503C5.24998 7.04001 5.64586 5.73497 6.38756 4.62494C7.12926 3.5149 8.18347 2.64974 9.41687 2.13885C10.6503 1.62796 12.0075 1.49428 13.3168 1.75473C14.6262 2.01518 15.8289 2.65806 16.773 3.60206C17.717 4.54607 18.3598 5.7488 18.6203 7.05817C18.8807 8.36755 18.7471 9.72475 18.2362 10.9581C17.7253 12.1915 16.8601 13.2458 15.7501 13.9875C14.64 14.7292 13.335 15.125 12 15.125C10.2098 15.125 8.49288 14.4139 7.22701 13.148C5.96114 11.8821 5.24998 10.1652 5.24998 8.37503Z" fill="white"/>
</g>
<defs>
<clipPath id="clip0_1246_1902">
<rect width="24" height="24" fill="white" transform="translate(0 0.5)"/>
</clipPath>
</defs>
</svg>
