<svg width="72" height="71" viewBox="0 0 72 71" fill="none" xmlns="http://www.w3.org/2000/svg">
<path d="M71.9939 33.5056L71.8191 30.7679C71.7026 29.8942 71.5279 28.9623 71.4114 28.0885C71.2949 27.2148 71.0619 26.3411 70.7707 25.4674C70.5377 24.5937 70.3047 23.72 69.9552 22.8463C68.7903 19.4097 66.9846 16.2061 64.7712 13.3519C62.5578 10.4978 59.9949 7.93493 57.0243 5.95451C54.0536 3.9741 50.7918 2.34317 47.4134 1.29471C45.2 0.653992 42.9284 0.24626 40.6567 0.0132704C38.6181 -0.161472 36.8706 1.41121 36.8706 3.44987C36.8706 5.19729 38.1521 6.65348 39.8995 6.88647C41.7052 7.11946 43.5109 7.52719 45.2583 8.10967C47.9377 9.04163 50.4423 10.3813 52.714 12.0705C54.9856 13.7014 56.966 15.7983 58.5969 18.07C60.2279 20.3416 61.5676 22.8463 62.3248 25.5257C62.5578 26.1664 62.7325 26.8654 62.849 27.5643C63.0238 28.2633 63.1985 28.904 63.2567 29.603C63.315 30.302 63.4315 31.0009 63.4897 31.6416L63.548 33.7386C63.4897 36.5344 63.1402 39.2721 62.2665 41.8932C61.3928 44.5143 60.1696 46.9607 58.5969 49.1741C57.0243 51.3875 55.0438 53.3097 52.8887 54.9406L52.0732 55.5231C51.782 55.6978 51.549 55.9308 51.1995 56.1056L49.4521 57.154C48.2289 57.7365 47.0057 58.319 45.7243 58.7267C43.1614 59.6004 40.482 60.1247 37.8026 60.0664C32.3856 60.1829 27.0851 58.4937 22.7165 55.5231C20.5614 54.0087 18.6392 52.1448 17.0083 50.0478L15.8433 48.4169C15.4938 47.8344 15.2026 47.252 14.8531 46.7277C14.5036 46.2035 14.2706 45.5628 13.9794 44.9803L13.5717 44.1066C13.4552 43.8154 13.3387 43.4659 13.2222 43.1746L12.9309 42.2427C12.8144 41.9515 12.6979 41.6602 12.6397 41.3107L12.1737 39.3886C12.0572 38.7478 11.999 38.1071 11.8825 37.4664C11.8242 37.1169 11.766 36.8257 11.766 36.4762V35.486C11.766 34.8453 11.7077 34.2045 11.766 33.5056C11.8242 32.8648 11.8242 32.2241 11.9407 31.5834C12.1155 30.302 12.3485 29.0205 12.6979 27.7973L8.79537 21.0989L1.04845 24.8267C0.582475 26.6906 0.291237 28.5545 0.116495 30.4767C0.0582475 31.4087 0 32.3989 0 33.3308C0 34.2628 0.0582475 35.253 0.116495 36.1849L0.23299 37.5829C0.23299 38.0489 0.349485 38.5148 0.407732 38.9808C0.582475 39.9128 0.698969 40.8447 0.931959 41.7767L1.68918 44.5143C1.80567 44.9803 1.98041 45.4463 2.15516 45.854L2.67938 47.1937C2.85413 47.6597 3.02887 48.0674 3.20361 48.5334L3.84433 49.8149C4.25206 50.6303 4.6598 51.504 5.18402 52.3195C5.70825 53.135 6.17423 53.9504 6.69846 54.7076L8.44588 56.9793C10.8923 59.8917 13.6882 62.3963 16.8335 64.435C23.1825 68.454 30.7547 70.5509 38.2103 70.085L39.6083 69.9685C40.0743 69.9102 40.5402 69.9102 41.0062 69.852L43.7438 69.386C44.2098 69.3278 44.6758 69.153 45.0835 69.0365L46.4232 68.687C46.8892 68.5705 47.2969 68.454 47.7629 68.2793L49.0444 67.8133C50.7918 67.2308 52.4227 66.3571 54.0536 65.4834L56.3835 64.0272C56.7913 63.7942 57.1408 63.503 57.4902 63.2118L58.5969 62.3381C61.4511 60.0082 64.014 57.3288 66.0526 54.2417C68.0913 51.1545 69.6057 47.8344 70.6542 44.2813C71.7026 40.8447 72.0521 37.1752 71.9939 33.5056Z" fill="#6645AB"/>
<path d="M36.4634 41.7759C40.832 42.0089 44.4433 38.5141 44.4433 34.2038C44.4433 31.4661 42.9871 29.078 40.832 27.7383L39.667 16.6713C39.4923 15.2151 38.2691 14.1084 36.8711 14.1084C35.415 14.1084 34.1918 15.2151 34.0753 16.613L32.9103 27.6801C30.5804 29.1362 29.066 31.8156 29.299 34.8445C29.6485 38.5723 32.7356 41.6012 36.4634 41.7759ZM35.415 30.8254C35.8227 30.6507 36.3469 30.5342 36.8129 30.5342C37.2789 30.5342 37.8031 30.6507 38.2108 30.8254C39.5505 31.3496 40.4242 32.6893 40.4242 34.2038C40.4242 36.1842 38.7933 37.8734 36.7547 37.8734C34.7742 37.8734 33.0851 36.2424 33.0851 34.2038C33.2016 32.6311 34.1335 31.3496 35.415 30.8254Z" fill="#6645AB"/>
</svg>
