<svg width="25" height="24" viewBox="0 0 25 24" fill="none" xmlns="http://www.w3.org/2000/svg">
<g clip-path="url(#clip0_1246_1864)">
<path d="M1.5588 13.5883L4.5588 14.5765C5.01762 14.7177 5.51174 14.5412 5.7235 14.153L10.7706 18.1765C10.8059 18.2118 10.8059 18.2118 10.8411 18.2118C11.6882 18.5647 12.6411 18.7059 13.347 18.1412L13.7353 18.5294C14.1235 18.8824 15.147 18.9177 15.5353 18.4941C15.6764 18.3177 15.747 18.1412 15.7823 17.9647C16.2764 18 16.7353 17.7883 16.7706 17.753C17.1941 17.5765 17.3706 17.153 17.4411 16.8C18.2882 16.8706 18.8176 16.5177 19.0294 15.953C19.1706 15.6 19.1353 15.1765 18.9588 14.8588L19.4882 14.5059C19.7 14.753 19.9823 14.8941 20.3 14.8941C20.4411 14.8941 20.5823 14.8588 20.7235 14.8236L23.4764 13.6236C24.0059 13.3765 24.2529 12.7765 24.0411 12.2471L21.6764 6.42355C21.4647 5.89414 20.8294 5.64708 20.3 5.82355L17.3 6.95296C17.0176 7.05885 16.7706 7.30591 16.6647 7.65885C14.1941 6.60002 10.2059 6.67061 7.5235 6.98826C7.45291 6.7059 7.20586 6.45885 6.9235 6.31767L4.02938 5.29414C3.46468 5.08238 2.86468 5.40002 2.68821 5.96473L0.888208 12.353C0.747031 12.8824 1.02938 13.4118 1.5588 13.5883ZM18.3588 15.7059C18.1823 16.1647 17.7235 16.1647 17.2647 16.0588L14.7941 13.1647C14.6529 13.0236 14.4411 12.9883 14.3 13.1294C14.1588 13.2706 14.1235 13.4824 14.2647 13.6236L16.7353 16.5177C16.7353 16.6588 16.7 17.0118 16.4529 17.1177C16.4176 17.1177 16.0647 17.2941 15.6764 17.2236L13.0647 13.9765C12.9588 13.8353 12.7117 13.8 12.5706 13.9059C12.4294 14.0118 12.3941 14.2588 12.5 14.4L15.1117 17.6471C15.0764 18.1765 14.7235 18.0353 14.6882 18.0706C14.0176 18.0706 14.1941 17.8941 13.5941 17.4L11.5117 14.8588C11.3706 14.7177 11.1588 14.6824 11.0176 14.8236C10.8764 14.9647 10.8411 15.1765 10.9823 15.3177L12.8882 17.6118C12.3941 17.9647 11.7235 17.8236 11.1941 17.5765L5.93527 13.4471C6.07644 12.8471 5.37056 15.5647 7.45291 7.76473C7.80586 7.72943 8.54703 7.65885 9.46468 7.58826C8.97056 8.47061 8.26468 10.0588 9.04115 11.0471C10.1 12.353 11.9 10.7647 12.6411 10.3412C12.8529 10.3412 15.2176 10.4471 18.1117 14.9647C18.2176 15 18.5353 15.2471 18.3588 15.7059ZM17.547 7.65885L20.547 6.52943C20.7235 6.45885 20.9353 6.56473 21.0059 6.7412L23.4059 12.5294C23.4764 12.7059 23.4059 12.9177 23.2294 12.9883L22.2764 13.4118C22.5941 13.2353 22.8059 12.9177 22.8059 12.5294C22.8059 11.9647 22.347 11.5059 21.7823 11.5059C21.2176 11.5059 20.7588 11.9647 20.7588 12.5294C20.7588 13.2 21.3941 13.6941 22.0647 13.4824L20.4411 14.1883C20.2647 14.2588 20.0529 14.1883 19.9823 14.0118C19.9117 13.7647 17.4059 8.18826 17.3353 8.11767C17.2647 7.90591 17.3706 7.72943 17.547 7.65885ZM22.1 12.4941C22.1 12.6706 21.9588 12.8118 21.7823 12.8118C21.6059 12.8118 21.4647 12.6706 21.4647 12.4941C21.4647 12.3177 21.6059 12.1765 21.7823 12.1765C21.9588 12.1765 22.1 12.3177 22.1 12.4941ZM16.7706 8.5412L19.2059 13.8706L18.6059 14.2588C15.6411 9.81179 13.0294 9.49414 12.5 9.63532C12.3941 9.67061 12.2882 9.7412 12.0412 9.91767C11.0882 10.5883 10.1 11.1883 9.64115 10.5883C9.04115 9.84708 9.88821 8.25885 10.347 7.51767C12.2882 7.48238 15.0059 7.62355 16.7706 8.5412ZM1.5588 12.5647L3.39409 6.17649C3.42938 6.00002 3.60585 5.89414 3.78233 5.96473L6.64115 7.05885C6.78233 7.12943 6.85291 7.27061 6.81762 7.41179C4.5235 16.0941 5.29997 13.0941 5.1235 13.7294C5.08821 13.9059 4.91174 13.9765 4.73527 13.9412L1.73527 12.953C1.62938 12.8824 1.5235 12.7059 1.5588 12.5647Z" fill="white"/>
<path d="M3.32352 13.2C3.88822 13.2 4.34705 12.7412 4.34705 12.1765C4.34705 11.6118 3.88822 11.153 3.32352 11.153C2.75881 11.153 2.29999 11.6118 2.29999 12.1765C2.29999 12.7412 2.75881 13.2 3.32352 13.2ZM3.32352 11.8588C3.49999 11.8588 3.64116 12 3.64116 12.1765C3.64116 12.353 3.46469 12.4941 3.32352 12.4941C3.18234 12.4941 3.00587 12.353 3.00587 12.1765C3.00587 12 3.14705 11.8588 3.32352 11.8588Z" fill="white"/>
</g>
<defs>
<clipPath id="clip0_1246_1864">
<rect width="24" height="24" fill="white" transform="translate(0.5)"/>
</clipPath>
</defs>
</svg>
