<svg width="34" height="35" viewBox="0 0 34 35" fill="none" xmlns="http://www.w3.org/2000/svg">
<rect y="0.0605469" width="34" height="34" rx="17" fill="#F3F4F6"/>
<path d="M14.9167 14.5314C14.9167 14.1336 14.9167 13.9348 14.9998 13.8237C15.0722 13.727 15.1831 13.6665 15.3037 13.6579C15.442 13.648 15.6093 13.7555 15.9439 13.9706L19.8777 16.4995C20.168 16.6861 20.3131 16.7794 20.3633 16.8981C20.4071 17.0018 20.4071 17.1188 20.3633 17.2224C20.3131 17.3411 20.168 17.4344 19.8777 17.6211L15.9439 20.15C15.6093 20.3651 15.442 20.4726 15.3037 20.4627C15.1831 20.4541 15.0722 20.3936 14.9998 20.2968C14.9167 20.1858 14.9167 19.9869 14.9167 19.5892V14.5314Z" stroke="#9DA4AE" stroke-width="1.5" stroke-linecap="round" stroke-linejoin="round"/>
<path d="M9.5 13.5605C9.5 12.1604 9.5 11.4603 9.77248 10.9256C10.0122 10.4552 10.3946 10.0727 10.865 9.83303C11.3998 9.56055 12.0999 9.56055 13.5 9.56055H20.5C21.9001 9.56055 22.6002 9.56055 23.135 9.83303C23.6054 10.0727 23.9878 10.4552 24.2275 10.9256C24.5 11.4603 24.5 12.1604 24.5 13.5605V20.5605C24.5 21.9606 24.5 22.6607 24.2275 23.1955C23.9878 23.6659 23.6054 24.0483 23.135 24.288C22.6002 24.5605 21.9001 24.5605 20.5 24.5605H13.5C12.0999 24.5605 11.3998 24.5605 10.865 24.288C10.3946 24.0483 10.0122 23.6659 9.77248 23.1955C9.5 22.6607 9.5 21.9606 9.5 20.5605V13.5605Z" stroke="#9DA4AE" stroke-width="1.5" stroke-linecap="round" stroke-linejoin="round"/>
</svg>
