<svg width="24" height="24" viewBox="0 0 24 24" fill="none" xmlns="http://www.w3.org/2000/svg">
<path d="M3 11.9999H1.59375C1.59394 9.83953 2.26653 7.73273 3.51819 5.97184C4.76986 4.21096 6.53855 2.88329 8.57888 2.17304C10.6192 1.46279 12.83 1.40517 14.9046 2.00818C16.9791 2.61119 18.8146 3.84492 20.1562 5.53822V3.98432H21.5625V8.90619H16.6406V7.49994H19.7939C19.0033 6.13249 17.867 4.99692 16.4991 4.20711C15.1311 3.4173 13.5796 3.00099 12 2.99994C7.03734 2.99994 3 7.03728 3 11.9999ZM21 11.9999C21 16.9626 16.9627 20.9999 12 20.9999C10.4204 20.9989 8.86888 20.5826 7.50094 19.7928C6.133 19.003 4.99674 17.8674 4.20609 16.4999H7.35938V15.0937H2.4375V20.0156H3.84375V18.4617C5.18544 20.155 7.02089 21.3887 9.09544 21.9917C11.17 22.5947 13.3808 22.5371 15.4211 21.8268C17.4614 21.1166 19.2301 19.7889 20.4818 18.028C21.7335 16.2672 22.4061 14.1604 22.4062 11.9999H21Z" fill="white"/>
</svg>
