<svg width="24" height="30" viewBox="0 0 24 30" fill="none" xmlns="http://www.w3.org/2000/svg">
<g clip-path="url(#clip0_1246_1820)">
<path d="M20.6514 8.21423L23.4307 29.5004H0.569336L3.34863 8.21423H20.6514Z" stroke="white"/>
<path fill-rule="evenodd" clip-rule="evenodd" d="M0 30L0.447429 26.5714H23.5526L24 30H0ZM15.4286 6.85714C15.4286 5.55771 14.7969 2.57143 12 2.57143C9.20314 2.57143 8.57143 5.55771 8.57143 6.85714V7.71429H6L6.00857 5.18486C6.00857 2.586 8.61686 0 12 0C15.3831 0 17.9914 2.586 17.9914 5.18486L18 7.71429H15.4286V6.85714Z" fill="white"/>
<path fill-rule="evenodd" clip-rule="evenodd" d="M6 7.71423L6.00771 9.42852H8.57914V7.71423H6ZM15.4191 7.71423V9.41909H17.9906L18 7.71423H15.4209H15.4191Z" fill="white"/>
</g>
<defs>
<clipPath id="clip0_1246_1820">
<rect width="24" height="30" fill="white"/>
</clipPath>
</defs>
</svg>
