<svg width="14" height="16" viewBox="0 0 14 16" fill="none" xmlns="http://www.w3.org/2000/svg">
<path d="M7.14948 0C5.96003 0 4.9816 0.903152 4.9816 1.99812C4.9816 2.36711 5.10444 2.6988 5.29811 2.99718C4.36341 3.34695 3.56313 3.94571 2.99958 4.71689C2.43602 5.48808 2.13481 6.39665 2.13445 7.32645C2.13445 7.32645 2.09109 9.28062 2.09109 10.7406C2.09109 10.666 2.10554 10.7859 2.00004 10.9484C1.86383 11.1383 1.71314 11.319 1.54912 11.4892C1.21238 11.8555 0.871295 12.1552 0.871295 12.1552C0.759883 12.2457 0.681408 12.3656 0.646545 12.4986C0.611683 12.6317 0.622124 12.7714 0.676449 12.8987C0.730775 13.0261 0.826347 13.1349 0.950166 13.2104C1.07398 13.286 1.22004 13.3245 1.36846 13.3208H4.30377C4.30666 14.1294 4.66509 14.9313 5.38771 15.4442C6.38494 16.1502 7.78828 16.1901 8.82019 15.5267C9.60641 15.0206 10.0371 14.1734 10.04 13.3208H12.9305C13.0695 13.3161 13.204 13.2745 13.3179 13.201C13.4319 13.1275 13.5204 13.0253 13.5729 12.9066C13.6254 12.7879 13.6396 12.6578 13.6138 12.5319C13.5881 12.4059 13.5234 12.2895 13.4277 12.1965C13.4277 12.1965 13.1242 11.8982 12.7946 11.5305C12.6301 11.3462 12.4794 11.1517 12.3437 10.9484C12.2397 10.7859 12.2079 10.6686 12.2079 10.7406C12.2079 9.51506 12.2527 7.32645 12.2527 7.32645C12.2555 6.39082 11.9507 5.47635 11.3785 4.70353C10.8062 3.93071 9.99342 3.3358 9.0471 2.99718C9.23498 2.70146 9.31736 2.36311 9.31736 1.99812C9.31736 0.903152 8.33892 0 7.14948 0ZM7.14948 1.33208C7.55704 1.33208 7.87211 1.62248 7.87211 1.99812C7.87211 2.37377 7.55704 2.66416 7.14948 2.66416C7.0542 2.66542 6.95963 2.64905 6.87134 2.61602C6.78305 2.583 6.70284 2.53398 6.63547 2.47188C6.56809 2.40978 6.51491 2.33586 6.47908 2.25448C6.44325 2.17311 6.42549 2.08594 6.42685 1.99812C6.42685 1.62248 6.74192 1.33208 7.14948 1.33208ZM7.19428 3.99625C7.66978 3.99288 8.14126 4.07671 8.58128 4.24288C9.0213 4.40905 9.42106 4.65422 9.7573 4.96413C10.0935 5.27404 10.3595 5.6425 10.5398 6.04806C10.7201 6.45362 10.8111 6.88818 10.8074 7.32645C10.8074 7.32645 10.7626 9.50574 10.7626 10.7406C10.7626 11.1295 10.9592 11.3986 11.1239 11.6557C11.2049 11.7809 11.3031 11.8715 11.3956 11.9887H2.94813C3.04062 11.8742 3.13745 11.7796 3.21839 11.6557C3.38748 11.3973 3.5349 11.1349 3.5349 10.7392C3.5349 9.28994 3.5797 7.32645 3.5797 7.32645C3.57702 6.88843 3.66864 6.45427 3.84927 6.04912C4.02989 5.64396 4.29593 5.27586 4.63198 4.96613C4.96803 4.65639 5.3674 4.41119 5.80698 4.2447C6.24656 4.07822 6.7176 3.99377 7.19284 3.99625H7.19428ZM5.70422 13.3208H8.59473C8.59473 13.7471 8.40396 14.148 8.00796 14.4038C7.48767 14.7368 6.79395 14.7168 6.291 14.3612C6.11293 14.2411 5.96734 14.0847 5.86556 13.9043C5.76379 13.7238 5.70858 13.5242 5.70422 13.3208Z" fill="#6645AB"/>
</svg>
