<svg width="27" height="30" viewBox="0 0 27 30" fill="none" xmlns="http://www.w3.org/2000/svg">
<path fill-rule="evenodd" clip-rule="evenodd" d="M13.4999 0C7.21222 0 2.07814 4.94966 2.07814 10.9995V15.002C2.07814 18.0784 0.825797 20.6788 0.319663 21.6529C-0.696761 23.6131 0.839307 25.9935 3.11327 25.9935H8.41156C8.89379 28.2718 10.9994 30 13.5041 30C16.0088 30 18.1144 28.2718 18.5966 25.9935H23.8949C26.1688 25.9935 27.6945 23.6091 26.6802 21.6529C26.1772 20.6828 24.9321 18.0794 24.9321 15.002V10.9995C24.9321 4.94866 19.7876 0 13.4999 0ZM13.4999 1.99227C18.6548 1.99227 22.8597 6.0378 22.8597 10.9995V15.002C22.8597 18.5925 24.2753 21.4949 24.824 22.553C25.1878 23.2551 24.7086 24.0012 23.8949 24.0012H3.11327C2.29327 24.0012 1.81208 23.2581 2.17791 22.554C2.72562 21.4969 4.1484 18.5935 4.1484 15.002V10.9995C4.1484 6.0368 8.34401 1.99227 13.4999 1.99227ZM13.4999 3.99253C9.48826 3.99253 6.22698 7.13795 6.22698 10.9995C6.22698 11.2647 6.33647 11.5191 6.53138 11.7067C6.72628 11.8942 6.99063 11.9996 7.26627 11.9996C7.5419 11.9996 7.80625 11.8942 8.00115 11.7067C8.19606 11.5191 8.30555 11.2647 8.30555 10.9995C8.30073 10.3415 8.43174 9.68907 8.69099 9.08017C8.95025 8.47127 9.33258 7.91798 9.8158 7.4524C10.299 6.98683 10.8735 6.61824 11.5059 6.36802C12.1384 6.1178 12.8161 5.99094 13.4999 5.9948C13.7758 5.9948 14.0404 5.88932 14.2355 5.70157C14.4306 5.51383 14.5402 5.25918 14.5402 4.99367C14.5402 4.72815 14.4306 4.47351 14.2355 4.28576C14.0404 4.09801 13.7758 3.99253 13.4999 3.99253ZM7.26834 13.9979C6.99271 13.9979 6.72836 14.1032 6.53346 14.2908C6.33855 14.4784 6.22906 14.7327 6.22906 14.998C6.22906 15.2633 6.33855 15.5176 6.53346 15.7052C6.72836 15.8928 6.99271 15.9981 7.26834 15.9981C7.54398 15.9981 7.80833 15.8928 8.00323 15.7052C8.19814 15.5176 8.30763 15.2633 8.30763 14.998C8.30763 14.7327 8.19814 14.4784 8.00323 14.2908C7.80833 14.1032 7.54398 13.9979 7.26834 13.9979ZM10.5733 25.9935H16.4349C16.2249 26.5803 15.8295 27.0893 15.3039 27.4491C14.7784 27.8088 14.149 28.0014 13.5041 27.9997C12.8591 28.0014 12.2298 27.8088 11.7042 27.4491C11.1786 27.0893 10.7832 26.5803 10.5733 25.9935Z" fill="#6645AB"/>
</svg>
