<svg width="24" height="25" viewBox="0 0 24 25" fill="none" xmlns="http://www.w3.org/2000/svg">
<path fill-rule="evenodd" clip-rule="evenodd" d="M12 6.5C12.8284 6.5 13.5 5.82845 13.5 5C13.5 4.17158 12.8284 3.5 12 3.5C11.1716 3.5 10.5 4.17158 10.5 5C10.5 5.82845 11.1716 6.5 12 6.5ZM12 7.5C13.3807 7.5 14.5 6.3807 14.5 5C14.5 3.61929 13.3807 2.5 12 2.5C10.6193 2.5 9.5 3.61929 9.5 5C9.5 6.3807 10.6193 7.5 12 7.5Z" fill="white"/>
<path fill-rule="evenodd" clip-rule="evenodd" d="M8.68688 9.65719C9.15858 9.74699 9.49988 10.1594 9.49988 10.6396V21C9.49988 21.2761 9.72373 21.5 9.99988 21.5H10.0433C10.3019 21.5 10.5178 21.3028 10.5412 21.0452L10.9999 16C11.0013 15.4487 11.4486 15.0026 11.9999 15.0026C12.5511 15.0026 12.9984 15.4487 12.9999 15.9999L13.4585 21.0452C13.4819 21.3028 13.6979 21.5 13.9565 21.5H13.9999C14.276 21.5 14.4999 21.2761 14.4999 21V10.6584C14.4999 10.1782 14.8413 9.76579 15.3131 9.67604C16.1911 9.50909 17.1195 9.27739 18.1398 8.98004C18.4049 8.90279 18.5572 8.62524 18.4799 8.36009C18.4027 8.09499 18.1251 7.94274 17.86 8.01999C15.5429 8.69529 13.7652 9.00779 12.002 8.99989C10.237 8.99194 8.45718 8.66294 6.13358 8.01824C5.86748 7.94439 5.59193 8.10024 5.51808 8.36634C5.44428 8.63244 5.60013 8.90799 5.86623 8.98179C6.88278 9.26389 7.80918 9.49014 8.68688 9.65719ZM11.4888 21.4012C11.3121 22.0399 10.7275 22.5 10.0433 22.5H9.99988C9.17143 22.5 8.49988 21.8284 8.49988 21V10.6396C7.58698 10.4658 6.63253 10.2322 5.59883 9.94539C4.80057 9.72389 4.333 8.89724 4.5545 8.09894C4.776 7.30069 5.60268 6.83314 6.40093 7.05464C8.68563 7.68859 10.3684 7.99254 12.0065 7.99989C13.6393 8.00719 15.3156 7.71994 17.5802 7.05994C18.3755 6.82814 19.2082 7.28499 19.44 8.08029C19.6718 8.87564 19.2149 9.70829 18.4196 9.94009C17.3775 10.2438 16.4171 10.484 15.4999 10.6584V21C15.4999 21.8284 14.8283 22.5 13.9999 22.5H13.9565C13.2723 22.5 12.6876 22.0399 12.5109 21.4012C12.4947 21.3425 12.4819 21.2823 12.4728 21.2208C12.4686 21.1928 12.4652 21.1644 12.4626 21.1358L12.004 16.0905C12.0013 16.0611 12 16.0318 11.9999 16.0026C11.9998 16.0318 11.9984 16.0611 11.9958 16.0905L11.5371 21.1358C11.5345 21.1644 11.5311 21.1928 11.527 21.2208C11.5178 21.2823 11.505 21.3425 11.4888 21.4012Z" fill="white"/>
</svg>
