<svg width="27" height="24" viewBox="0 0 27 24" fill="none" xmlns="http://www.w3.org/2000/svg">
<path d="M24.0679 5.82228C23.7874 5.5328 23.4506 5.30385 23.0783 5.14958C22.7059 4.9953 22.3059 4.91896 21.9029 4.92528H19.2239L18.6139 3.29928C18.4629 2.90928 18.1859 2.57128 17.7829 2.28828C17.3799 2.00528 16.9669 1.86328 16.5449 1.86328H10.4199C9.99687 1.86328 9.58387 2.00528 9.18187 2.28828C8.77887 2.57128 8.50187 2.90828 8.34987 3.29828L7.73987 4.92528H5.06187C4.21687 4.92528 3.49487 5.22528 2.89687 5.82228C2.60739 6.10273 2.37844 6.43953 2.22417 6.81189C2.06989 7.18425 1.99356 7.58428 1.99987 7.98728V18.7043C1.99987 19.5503 2.29887 20.2713 2.89687 20.8693C3.17724 21.1589 3.514 21.3881 3.88636 21.5425C4.25873 21.697 4.6588 21.7735 5.06187 21.7673H21.9029C22.7479 21.7673 23.4699 21.4673 24.0679 20.8693C24.3574 20.5888 24.5863 20.252 24.7406 19.8797C24.8949 19.5073 24.9712 19.1073 24.9649 18.7043V7.98728C24.9712 7.58428 24.8949 7.18425 24.7406 6.81189C24.5863 6.43953 24.3574 6.10273 24.0679 5.82228ZM16.4379 16.3013C15.5849 17.1543 14.5579 17.5813 13.3579 17.5813C12.1579 17.5813 11.1319 17.1543 10.2789 16.3013C9.42587 15.4483 8.99987 14.4213 8.99987 13.2213C8.99987 12.0213 9.42687 10.9963 10.2799 10.1433C11.1319 9.29028 12.1589 8.86328 13.3589 8.86328C14.5589 8.86328 15.5849 9.29028 16.4379 10.1433C17.2909 10.9953 17.7179 12.0223 17.7179 13.2223C17.7179 14.4223 17.2909 15.4483 16.4379 16.3013Z" stroke="#111927" stroke-width="1.5"/>
</svg>
