<svg width="60" height="80" viewBox="0 0 60 80" fill="none" xmlns="http://www.w3.org/2000/svg">
<path d="M12.3438 63.5938C12.3438 63.5938 12.526 63.4115 12.8906 63.0469C13.2552 62.6823 13.9583 62.5 15 62.5C16.0417 62.5 16.9271 62.8646 17.6562 63.5938C18.3854 64.3229 18.75 65.2083 18.75 66.25C18.75 67.2917 18.3854 68.1771 17.6562 68.9062C16.9271 69.6354 16.0417 70 15 70C13.9583 70 13.0729 69.6354 12.3438 68.9062C11.6146 68.1771 11.25 67.2917 11.25 66.25C11.25 65.2083 11.6146 64.3229 12.3438 63.5938ZM13.75 66.25C13.75 66.25 13.75 66.4583 13.75 66.875C13.75 67.2917 14.1667 67.5 15 67.5C15.8333 67.5 16.25 67.0833 16.25 66.25C16.25 65.4167 15.8333 65 15 65C14.1667 65 13.75 65.4167 13.75 66.25ZM47.3438 63.5938C47.3438 63.5938 47.526 63.4115 47.8906 63.0469C48.2552 62.6823 48.9583 62.5 50 62.5C51.0417 62.5 51.9271 62.8646 52.6562 63.5938C53.3854 64.3229 53.75 65.2083 53.75 66.25C53.75 67.2917 53.3854 68.1771 52.6562 68.9062C51.9271 69.6354 51.0417 70 50 70C48.9583 70 48.0729 69.6354 47.3438 68.9062C46.6146 68.1771 46.25 67.2917 46.25 66.25C46.25 65.2083 46.6146 64.3229 47.3438 63.5938ZM48.75 66.25C48.75 66.25 48.75 66.4583 48.75 66.875C48.75 67.2917 49.1667 67.5 50 67.5C50.8333 67.5 51.25 67.0833 51.25 66.25C51.25 65.4167 50.8333 65 50 65C49.1667 65 48.75 65.4167 48.75 66.25ZM60 20L57.5 40L15.1562 47.5L15.9375 52.1875C16.6667 55.7292 18.0208 57.5 20 57.5H57.5V60H20C18.2292 60 16.7708 59.2708 15.625 57.8125C14.5833 56.3542 13.9062 54.6354 13.5938 52.6562L6.875 16.0938C6.5625 14.8438 6.19792 14.0104 5.78125 13.5938C4.94792 12.8646 3.02083 12.5 0 12.5V10C3.4375 10 5.88542 10.5729 7.34375 11.7188C8.17708 12.4479 8.80208 13.5417 9.21875 15L60 20ZM55.4688 37.8125L57.1875 22.3438L9.6875 17.5L14.6875 45L55.4688 37.8125Z" fill="#6645AB"/>
</svg>
