<svg width="24" height="24" viewBox="0 0 24 24" fill="none" xmlns="http://www.w3.org/2000/svg">
<g clip-path="url(#clip0_1246_1816)">
<path d="M14.5049 15.2727H9.4952C9.27571 15.2727 9.06521 15.1865 8.91001 15.0331C8.7548 14.8797 8.66761 14.6715 8.66761 14.4546V9.52364C8.66761 9.30665 8.7548 9.09854 8.91001 8.9451C9.06521 8.79166 9.27571 8.70546 9.4952 8.70546H14.5049C14.7243 8.70546 14.9348 8.79166 15.09 8.9451C15.2452 9.09854 15.3324 9.30665 15.3324 9.52364V14.4764C15.3267 14.6896 15.237 14.8921 15.0824 15.0409C14.9278 15.1896 14.7206 15.2728 14.5049 15.2727ZM10.3449 13.6364H13.6552V10.3636H10.3449V13.6364ZM23.1504 15.2727H18.1407C17.9212 15.2727 17.7107 15.1865 17.5555 15.0331C17.4003 14.8797 17.3131 14.6715 17.3131 14.4546V9.52364C17.3131 9.30665 17.4003 9.09854 17.5555 8.9451C17.7107 8.79166 17.9212 8.70546 18.1407 8.70546H23.1504C23.3699 8.70546 23.5804 8.79166 23.7356 8.9451C23.8908 9.09854 23.978 9.30665 23.978 9.52364V14.4764C23.9722 14.6896 23.8825 14.8921 23.7279 15.0409C23.5733 15.1896 23.3661 15.2728 23.1504 15.2727ZM18.9683 13.6364H22.3228V10.3636H18.9683V13.6364ZM5.85934 15.2727H0.849681C0.630191 15.2727 0.419692 15.1865 0.264489 15.0331C0.109286 14.8797 0.0220947 14.6715 0.0220947 14.4546V9.52364C0.0220947 9.30665 0.109286 9.09854 0.264489 8.9451C0.419692 8.79166 0.630191 8.70546 0.849681 8.70546H5.85934C6.07883 8.70546 6.28933 8.79166 6.44453 8.9451C6.59973 9.09854 6.68692 9.30665 6.68692 9.52364V14.4764C6.68117 14.6896 6.59144 14.8921 6.43686 15.0409C6.28228 15.1896 6.07506 15.2728 5.85934 15.2727ZM1.67727 13.6364H5.03175V10.3636H1.67727V13.6364ZM14.5049 6.57819H9.4952C9.27571 6.57819 9.06521 6.49199 8.91001 6.33855C8.7548 6.18511 8.66761 5.977 8.66761 5.76001V0.801824C8.66761 0.584829 8.7548 0.376721 8.91001 0.223282C9.06521 0.0698435 9.27571 -0.0163574 9.4952 -0.0163574H14.5049C14.7243 -0.0163574 14.9348 0.0698435 15.09 0.223282C15.2452 0.376721 15.3324 0.584829 15.3324 0.801824V5.76001C15.3324 5.977 15.2452 6.18511 15.09 6.33855C14.9348 6.49199 14.7243 6.57819 14.5049 6.57819ZM10.3228 4.94182H13.6552V1.63637H10.3449L10.3228 4.94182ZM23.1504 6.57819H18.1407C17.9212 6.57819 17.7107 6.49199 17.5555 6.33855C17.4003 6.18511 17.3131 5.977 17.3131 5.76001V0.801824C17.3131 0.584829 17.4003 0.376721 17.5555 0.223282C17.7107 0.0698435 17.9212 -0.0163574 18.1407 -0.0163574H23.1504C23.3699 -0.0163574 23.5804 0.0698435 23.7356 0.223282C23.8908 0.376721 23.978 0.584829 23.978 0.801824V5.76001C23.978 5.977 23.8908 6.18511 23.7356 6.33855C23.5804 6.49199 23.3699 6.57819 23.1504 6.57819ZM18.9683 4.94182H22.3228V1.63637H18.9683V4.94182ZM5.85934 6.57819H0.849681C0.630191 6.57819 0.419692 6.49199 0.264489 6.33855C0.109286 6.18511 0.0220947 5.977 0.0220947 5.76001V0.801824C0.0220947 0.584829 0.109286 0.376721 0.264489 0.223282C0.419692 0.0698435 0.630191 -0.0163574 0.849681 -0.0163574H5.85934C6.07883 -0.0163574 6.28933 0.0698435 6.44453 0.223282C6.59973 0.376721 6.68692 0.584829 6.68692 0.801824V5.76001C6.68692 5.977 6.59973 6.18511 6.44453 6.33855C6.28933 6.49199 6.07883 6.57819 5.85934 6.57819ZM1.67727 4.94182H5.03175V1.63637H1.67727V4.94182ZM14.5049 24H9.4952C9.27571 24 9.06521 23.9138 8.91001 23.7604C8.7548 23.6069 8.66761 23.3988 8.66761 23.1818V18.24C8.66761 18.023 8.7548 17.8149 8.91001 17.6615C9.06521 17.508 9.27571 17.4218 9.4952 17.4218H14.5049C14.7243 17.4218 14.9348 17.508 15.09 17.6615C15.2452 17.8149 15.3324 18.023 15.3324 18.24V23.1982C15.3281 23.4123 15.239 23.6163 15.0843 23.7662C14.9295 23.9161 14.7215 24 14.5049 24ZM10.3449 22.3636H13.6552V19.0582H10.3449V22.3636ZM23.1504 24H18.1407C17.9212 24 17.7107 23.9138 17.5555 23.7604C17.4003 23.6069 17.3131 23.3988 17.3131 23.1818V18.24C17.3131 18.023 17.4003 17.8149 17.5555 17.6615C17.7107 17.508 17.9212 17.4218 18.1407 17.4218H23.1504C23.3699 17.4218 23.5804 17.508 23.7356 17.6615C23.8908 17.8149 23.978 18.023 23.978 18.24V23.1982C23.9736 23.4123 23.8845 23.6163 23.7298 23.7662C23.5751 23.9161 23.367 24 23.1504 24ZM18.9683 22.3636H22.3228V19.0582H18.9683V22.3636ZM5.85934 24H0.849681C0.630191 24 0.419692 23.9138 0.264489 23.7604C0.109286 23.6069 0.0220947 23.3988 0.0220947 23.1818V18.24C0.0220947 18.023 0.109286 17.8149 0.264489 17.6615C0.419692 17.508 0.630191 17.4218 0.849681 17.4218H5.85934C6.07883 17.4218 6.28933 17.508 6.44453 17.6615C6.59973 17.8149 6.68692 18.023 6.68692 18.24V23.1982C6.68259 23.4123 6.59349 23.6163 6.43875 23.7662C6.28402 23.9161 6.07599 24 5.85934 24ZM1.67727 22.3636H5.03175V19.0582H1.67727V22.3636Z" fill="white"/>
</g>
<defs>
<clipPath id="clip0_1246_1816">
<rect width="24" height="24" fill="white"/>
</clipPath>
</defs>
</svg>
