<svg width="18" height="19" viewBox="0 0 18 19" fill="none" xmlns="http://www.w3.org/2000/svg">
<path fill-rule="evenodd" clip-rule="evenodd" d="M9 9.5C11.2102 9.5 13 7.7102 13 5.5C13 3.2898 11.2102 1.5 9 1.5C6.7898 1.5 5 3.2898 5 5.5C5 7.7102 6.7898 9.5 9 9.5ZM14 5.5C14 8.2625 11.7625 10.5 9 10.5C6.2375 10.5 4 8.2625 4 5.5C4 2.7375 6.2375 0.5 9 0.5C11.7625 0.5 14 2.7375 14 5.5ZM1.61174 14.6059C1.11019 15.0105 1 15.3146 1 15.5V17.5H17V15.5C17 15.3146 16.8898 15.0105 16.3883 14.6059C15.8979 14.2103 15.167 13.8334 14.2811 13.5075C12.5099 12.8558 10.3766 12.5 9 12.5C7.6234 12.5 5.49005 12.8558 3.7189 13.5075C2.83295 13.8334 2.1021 14.2103 1.61174 14.6059ZM9 11.5C5.99625 11.5 0 13.0174 0 15.5V18.5H18V15.5C18 13.0174 12.0037 11.5 9 11.5Z" fill="white"/>
</svg>
