<svg width="24" height="25" viewBox="0 0 24 25" fill="none" xmlns="http://www.w3.org/2000/svg">
<path fill-rule="evenodd" clip-rule="evenodd" d="M12 12.5C14.2102 12.5 16 10.7102 16 8.5C16 6.2898 14.2102 4.5 12 4.5C9.7898 4.5 8 6.2898 8 8.5C8 10.7102 9.7898 12.5 12 12.5ZM17 8.5C17 11.2625 14.7625 13.5 12 13.5C9.2375 13.5 7 11.2625 7 8.5C7 5.7375 9.2375 3.5 12 3.5C14.7625 3.5 17 5.7375 17 8.5ZM4.61174 17.6059C4.11019 18.0105 4 18.3146 4 18.5V20.5H20V18.5C20 18.3146 19.8898 18.0105 19.3883 17.6059C18.8979 17.2103 18.167 16.8334 17.2811 16.5075C15.5099 15.8558 13.3766 15.5 12 15.5C10.6234 15.5 8.49005 15.8558 6.7189 16.5075C5.83295 16.8334 5.1021 17.2103 4.61174 17.6059ZM12 14.5C8.99625 14.5 3 16.0174 3 18.5V21.5H21V18.5C21 16.0174 15.0037 14.5 12 14.5Z" fill="#6645AB"/>
</svg>
