<svg width="24" height="25" viewBox="0 0 24 25" fill="none" xmlns="http://www.w3.org/2000/svg">
<path d="M10 3.60001H3.5C3.22386 3.60001 3 3.82386 3 4.10001V12.1C3 12.3761 3.22386 12.6 3.5 12.6H10C10.2761 12.6 10.5 12.3761 10.5 12.1V4.10001C10.5 3.82386 10.2761 3.60001 10 3.60001Z" stroke="#F9FAFB" stroke-width="1.5"/>
<path d="M14 21.6H20.5C20.7761 21.6 21 21.3761 21 21.1V13.1C21 12.8239 20.7761 12.6 20.5 12.6H14C13.7239 12.6 13.5 12.8239 13.5 13.1V21.1C13.5 21.3761 13.7239 21.6 14 21.6Z" stroke="#F9FAFB" stroke-width="1.5"/>
<path d="M10 15.6H3.5C3.22386 15.6 3 15.8239 3 16.1V21.1C3 21.3761 3.22386 21.6 3.5 21.6H10C10.2761 21.6 10.5 21.3761 10.5 21.1V16.1C10.5 15.8239 10.2761 15.6 10 15.6Z" stroke="#F9FAFB" stroke-width="1.5"/>
<path d="M14 9.60001H20.5C20.7761 9.60001 21 9.37615 21 9.10001V4.10001C21 3.82386 20.7761 3.60001 20.5 3.60001H14C13.7239 3.60001 13.5 3.82386 13.5 4.10001V9.10001C13.5 9.37615 13.7239 9.60001 14 9.60001Z" stroke="#F9FAFB" stroke-width="1.5"/>
</svg>
