<svg width="16" height="16" viewBox="0 0 16 16" fill="none" xmlns="http://www.w3.org/2000/svg">
<path d="M13.6667 15.6667H2.33337V2H13.6667V15.6667ZM3.00004 15H13V2.66667H3.00004V15Z" fill="#6645AB"/>
<path d="M11.6667 2.66667H4.33337V0H11.6667V2.66667ZM5.00004 2H11V0.666667H5.00004V2Z" fill="#6645AB"/>
<path d="M5.33333 13.3333C5.24493 13.3333 5.16014 13.2981 5.09763 13.2356C5.03512 13.1731 5 13.0883 5 12.9999V4.66659C5 4.57818 5.03512 4.4934 5.09763 4.43088C5.16014 4.36837 5.24493 4.33325 5.33333 4.33325C5.42174 4.33325 5.50652 4.36837 5.56904 4.43088C5.63155 4.4934 5.66667 4.57818 5.66667 4.66659V12.9999C5.66667 13.0883 5.63155 13.1731 5.56904 13.2356C5.50652 13.2981 5.42174 13.3333 5.33333 13.3333Z" fill="#6645AB"/>
<path d="M7.99996 13.3333C7.91155 13.3333 7.82677 13.2981 7.76426 13.2356C7.70174 13.1731 7.66663 13.0883 7.66663 12.9999V4.66659C7.66663 4.57818 7.70174 4.4934 7.76426 4.43088C7.82677 4.36837 7.91155 4.33325 7.99996 4.33325C8.08836 4.33325 8.17315 4.36837 8.23566 4.43088C8.29817 4.4934 8.33329 4.57818 8.33329 4.66659V12.9999C8.33329 13.0883 8.29817 13.1731 8.23566 13.2356C8.17315 13.2981 8.08836 13.3333 7.99996 13.3333Z" fill="#6645AB"/>
<path d="M10.6667 13.3333C10.5783 13.3333 10.4935 13.2981 10.431 13.2356C10.3685 13.1731 10.3334 13.0883 10.3334 12.9999V4.66659C10.3334 4.57818 10.3685 4.4934 10.431 4.43088C10.4935 4.36837 10.5783 4.33325 10.6667 4.33325C10.7551 4.33325 10.8399 4.36837 10.9024 4.43088C10.9649 4.4934 11 4.57818 11 4.66659V12.9999C11 13.0883 10.9649 13.1731 10.9024 13.2356C10.8399 13.2981 10.7551 13.3333 10.6667 13.3333Z" fill="#6645AB"/>
<path d="M0 2H16V2.66667H0V2Z" fill="#6645AB"/>
</svg>
