<svg width="81" height="79" viewBox="0 0 81 79" fill="none" xmlns="http://www.w3.org/2000/svg">
<path d="M51.6185 28.1102C51.5085 28.0002 51.3778 27.9128 51.2339 27.8533C51.09 27.7937 50.9358 27.763 50.78 27.763C50.6243 27.763 50.4701 27.7937 50.3262 27.8533C50.1823 27.9128 50.0516 28.0002 49.9416 28.1102L29.0936 48.9311C28.977 49.0396 28.8835 49.1704 28.8186 49.3158C28.7538 49.4611 28.7189 49.618 28.7161 49.7771C28.7133 49.9362 28.7426 50.0943 28.8023 50.2418C28.8619 50.3894 28.9508 50.5234 29.0634 50.636C29.1761 50.7485 29.3103 50.8372 29.4581 50.8968C29.6058 50.9564 29.764 50.9857 29.9234 50.9828C30.0827 50.98 30.2398 50.9452 30.3853 50.8804C30.5309 50.8157 30.6619 50.7223 30.7705 50.6059L51.6185 29.785C51.7287 29.6751 51.8162 29.5446 51.8758 29.4009C51.9355 29.2572 51.9662 29.1032 51.9662 28.9476C51.9662 28.7921 51.9355 28.638 51.8758 28.4944C51.8162 28.3507 51.7287 28.2201 51.6185 28.1102ZM33.5517 38.3137C34.884 38.3129 36.1747 37.8507 37.204 37.0061C38.2333 36.1614 38.9376 34.9864 39.1967 33.6813C39.4559 32.3762 39.2539 31.0218 38.6253 29.8487C37.9966 28.6757 36.9801 27.7566 35.749 27.2481C34.5179 26.7396 33.1484 26.6731 31.8737 27.06C30.599 27.4468 29.4981 28.2631 28.7585 29.3698C28.0189 30.4764 27.6863 31.8049 27.8175 33.1289C27.9487 34.453 28.5355 35.6906 29.478 36.631C30.0126 37.1656 30.6477 37.5894 31.3468 37.8782C32.0459 38.1669 32.7952 38.3149 33.5517 38.3137ZM31.1549 30.1689C31.6288 29.6956 32.2326 29.3732 32.89 29.2426C33.5474 29.1119 34.2288 29.1789 34.848 29.4351C35.4672 29.6912 35.9965 30.125 36.3689 30.6815C36.7413 31.2381 36.94 31.8924 36.94 32.5618C36.94 33.2312 36.7413 33.8855 36.3689 34.4421C35.9965 34.9986 35.4672 35.4324 34.848 35.6885C34.2288 35.9447 33.5474 36.0117 32.89 35.881C32.2326 35.7504 31.6288 35.428 31.1549 34.9547C30.8396 34.6408 30.5893 34.2679 30.4186 33.8573C30.2479 33.4467 30.16 33.0064 30.16 32.5618C30.16 32.1172 30.2479 31.6769 30.4186 31.2663C30.5893 30.8557 30.8396 30.4828 31.1549 30.1689ZM77.8249 34.4349C76.7791 33.4363 75.6986 32.403 75.4993 31.5309C75.2873 30.5987 75.8252 29.1609 76.3457 27.7674C77.0876 25.7813 77.8549 23.7274 77.0022 21.9626C76.1337 20.1677 74.0232 19.4836 71.9824 18.82C70.5855 18.3665 69.1427 17.8989 68.5652 17.1768C67.9878 16.4548 67.8422 14.9317 67.7078 13.4655C67.5053 11.3388 67.3044 9.14107 65.7524 7.90237C64.2004 6.66368 62.0251 6.95439 59.9115 7.24195C58.4434 7.43628 56.9246 7.63694 56.0719 7.22773C55.2509 6.83115 54.4757 5.54032 53.7274 4.29056C52.6199 2.44515 51.4745 0.534962 49.5112 0.0894097C47.6128 -0.340343 45.7951 0.857276 44.0311 2.01382C42.7765 2.84646 41.4793 3.69175 40.5 3.69175C39.5207 3.69175 38.2235 2.84646 36.9689 2.01698C35.2049 0.860436 33.3809 -0.335603 31.4824 0.0925696C29.5191 0.538122 28.3737 2.44831 27.2663 4.29372C26.518 5.54348 25.7428 6.83431 24.9217 7.23089C24.069 7.6401 22.5487 7.43944 21.0821 7.24511C18.9686 6.96545 16.7838 6.67474 15.2413 7.90553C13.6988 9.13633 13.4947 11.3388 13.2986 13.4639C13.1641 14.9301 13.0249 16.4453 12.4411 17.1752C11.8573 17.9052 10.4208 18.365 9.02391 18.8184C6.98309 19.4804 4.87266 20.1661 4.00412 21.961C3.15141 23.7258 3.91869 25.7798 4.66066 27.7658C5.18115 29.1577 5.71904 30.5971 5.50705 31.5293C5.30771 32.4014 4.22719 33.4347 3.18146 34.4333C1.61684 35.9279 0 37.4731 0 39.5018C0 41.5305 1.61684 43.0757 3.18146 44.5704C4.22719 45.5689 5.30771 46.6022 5.50705 47.4744C5.71904 48.4066 5.18115 49.8443 4.66066 51.2379C3.91869 53.2239 3.15141 55.2779 4.00412 57.0427C4.87266 58.8375 6.98309 59.5217 9.01758 60.1852C10.4145 60.6387 11.8573 61.1064 12.4348 61.8284C13.0122 62.5505 13.1578 64.0736 13.2922 65.5398C13.4884 67.6648 13.6893 69.8626 15.2413 71.0981C16.7933 72.3337 18.9686 72.0382 21.0821 71.7586C22.5503 71.5642 24.069 71.3636 24.9217 71.7728C25.7428 72.1693 26.518 73.4602 27.2663 74.7099C28.3737 76.5553 29.5191 78.4655 31.4824 78.9111C31.7468 78.97 32.0168 78.9997 32.2877 78.9996C33.8934 78.9996 35.4517 77.9789 36.9626 76.9867C38.2171 76.1635 39.5144 75.3119 40.4937 75.3119C41.4729 75.3119 42.7702 76.1635 44.0248 76.9867C45.7887 78.1432 47.6112 79.3393 49.5049 78.9111C51.4682 78.4655 52.6136 76.5553 53.721 74.7099C54.4693 73.4602 55.2445 72.1693 56.0656 71.7728C56.9183 71.3636 58.4387 71.5642 59.9052 71.7586C62.0188 72.0382 64.2036 72.3289 65.7461 71.0981C67.2885 69.8673 67.4989 67.6648 67.6951 65.5398C67.8296 64.0736 67.9688 62.5584 68.5526 61.8284C69.1364 61.0985 70.5728 60.6387 71.9698 60.1852C74.0106 59.5232 76.121 58.8375 76.9895 57.0427C77.8423 55.2779 77.075 53.2239 76.333 51.2379C75.8125 49.8459 75.2746 48.4066 75.4866 47.4744C75.686 46.6022 76.7665 45.5689 77.8122 44.5704C79.3832 43.0757 81 41.5305 81 39.5018C81 37.4731 79.3832 35.9279 77.8185 34.4333L77.8249 34.4349ZM76.1843 42.8593C74.8855 44.1011 73.5423 45.3872 73.1863 46.9498C72.8161 48.574 73.4806 50.3499 74.1213 52.0689C74.6909 53.5889 75.2778 55.1609 74.8649 56.0189C74.4377 56.9021 72.8161 57.4282 71.2484 57.9369C69.5208 58.4994 67.7331 59.0793 66.7111 60.3559C65.6891 61.6325 65.5103 63.5158 65.3442 65.3296C65.1939 66.9602 65.0405 68.6476 64.2795 69.2527C63.5186 69.8578 61.8511 69.6303 60.2295 69.4107C58.4149 69.1706 56.5402 68.9225 55.0484 69.6398C53.5866 70.3445 52.6263 71.945 51.6976 73.4934C50.8465 74.9153 49.9669 76.38 48.9923 76.6012C48.0827 76.8081 46.6889 75.8918 45.341 75.007C43.7954 73.9926 42.1959 72.9435 40.5063 72.9435C38.8167 72.9435 37.2173 73.9926 35.6716 75.007C34.3237 75.8918 32.9284 76.8066 32.0203 76.6012C31.0458 76.38 30.1662 74.9122 29.315 73.4934C28.3864 71.945 27.4261 70.3445 25.9643 69.6398C25.2255 69.2843 24.3933 69.1658 23.5216 69.1658C22.6045 69.1881 21.6897 69.2699 20.7831 69.4107C19.1616 69.6256 17.4862 69.8468 16.7331 69.2527C15.9801 68.6586 15.8203 66.9538 15.6621 65.3233C15.5039 63.5174 15.3236 61.6341 14.2952 60.3575C13.2669 59.0808 11.4855 58.4931 9.75797 57.9306C8.19018 57.4219 6.56859 56.8957 6.14145 56.0125C5.72854 55.1594 6.31547 53.5873 6.885 52.0626C7.51781 50.3436 8.19018 48.5677 7.81998 46.9435C7.46402 45.3777 6.12088 44.0995 4.82203 42.8529C3.61811 41.7138 2.37305 40.5177 2.37305 39.5018C2.37305 38.4859 3.61811 37.2899 4.82203 36.146C6.12088 34.9041 7.46402 33.618 7.82789 32.0554C8.19809 30.4312 7.53363 28.6553 6.89291 26.9363C6.32338 25.4164 5.73644 23.8443 6.14936 22.9864C6.5765 22.1032 8.206 21.577 9.76588 21.0683C11.4935 20.5058 13.2812 19.926 14.3031 18.6493C15.3251 17.3727 15.5039 15.4941 15.6621 13.6803C15.8203 12.0498 15.9659 10.3624 16.7268 9.75726C17.4878 9.15213 19.1552 9.37965 20.7768 9.59926C22.5914 9.83942 24.4661 10.0875 25.958 9.37017C27.4198 8.6655 28.3801 7.06499 29.3087 5.51662C30.1598 4.09464 31.0395 2.63001 32.014 2.40881C32.9237 2.20183 34.3174 3.11822 35.6653 4.003C37.211 5.01734 38.8104 6.06645 40.5 6.06645C42.1896 6.06645 43.789 5.01734 45.3347 4.003C46.6826 3.11822 48.0764 2.20341 48.986 2.40881C49.9605 2.63001 50.8402 4.0978 51.6913 5.51662C52.6199 7.06499 53.5802 8.6655 55.042 9.37017C56.5339 10.0875 58.4102 9.84416 60.2232 9.59926C61.8448 9.38439 63.5201 9.16161 64.2732 9.75726C65.0262 10.3529 65.1876 12.0498 65.3379 13.6803C65.504 15.4941 65.6764 17.3696 66.7048 18.6541C67.7331 19.9386 69.5145 20.5106 71.242 21.073C72.8098 21.5818 74.4314 22.1079 74.8586 22.9911C75.2715 23.8443 74.6845 25.4164 74.115 26.941C73.4743 28.6601 72.8098 30.4359 73.18 32.0602C73.536 33.6259 74.8791 34.9041 76.178 36.1507C77.3819 37.2899 78.627 38.4859 78.627 39.5018C78.627 40.5177 77.3819 41.7138 76.178 42.8577L76.1843 42.8593ZM40.5 11.244C24.898 11.244 12.2054 23.9201 12.2054 39.5018C12.2054 55.0835 24.898 67.7596 40.5 67.7596C56.102 67.7596 68.7946 55.0835 68.7946 39.5018C68.7946 23.9201 56.102 11.244 40.5 11.244ZM40.5 65.3897C26.2063 65.3897 14.5784 53.7769 14.5784 39.5018C14.5784 25.2268 26.2063 13.614 40.5 13.614C54.7937 13.614 66.4216 25.2268 66.4216 39.5018C66.4216 53.7769 54.7937 65.3897 40.5 65.3897ZM43.3746 42.3726C42.5686 43.1773 42.0197 44.2026 41.7973 45.3189C41.5749 46.4352 41.6889 47.5922 42.125 48.6437C42.561 49.6953 43.2995 50.594 44.2471 51.2264C45.1946 51.8587 46.3087 52.1962 47.4483 52.1962C48.5879 52.1962 49.7019 51.8587 50.6495 51.2264C51.597 50.594 52.3355 49.6953 52.7716 48.6437C53.2076 47.5922 53.3217 46.4352 53.0992 45.3189C52.8768 44.2026 52.3279 43.1773 51.522 42.3726C50.4409 41.2949 48.9758 40.6897 47.4483 40.6897C45.9208 40.6897 44.4557 41.2949 43.3746 42.3726ZM49.8451 48.8347C49.3712 49.3081 48.7674 49.6305 48.11 49.7611C47.4526 49.8917 46.7712 49.8247 46.152 49.5686C45.5328 49.3125 45.0035 48.8787 44.6311 48.3221C44.2587 47.7656 44.06 47.1112 44.06 46.4419C44.06 45.7725 44.2587 45.1181 44.6311 44.5616C45.0035 44.005 45.5328 43.5713 46.152 43.3151C46.7712 43.059 47.4526 42.992 48.11 43.1226C48.7674 43.2533 49.3712 43.5756 49.8451 44.049C50.4797 44.6841 50.8361 45.5446 50.8361 46.4419C50.8361 47.3391 50.4797 48.1997 49.8451 48.8347Z" fill="#6645AB"/>
</svg>
