<svg width="80" height="48" viewBox="0 0 80 48" fill="none" xmlns="http://www.w3.org/2000/svg">
<path d="M40 10C46.625 10 52 16.375 52 24C52 31.75 46.625 38 40 38C33.25 38 28 31.75 28 24C28 16.375 33.25 10 40 10ZM45 31V29C45 28.5 44.5 28 44 28H42V17C42 16.5 41.5 16 41 16H39.25C38.625 16 38 16.25 37.625 16.625L35.625 17.875C35.375 18 35.25 18.375 35.25 18.625C35.25 18.875 35.25 19.125 35.375 19.25L36.5 20.875C36.625 21.125 37 21.375 37.375 21.375C37.5 21.375 37.75 21.25 37.875 21.125H38V28H36C35.375 28 35 28.5 35 29V31C35 31.625 35.375 32 36 32H44C44.5 32 45 31.625 45 31ZM76 0C78.125 0 80 1.875 80 4V44C80 46.25 78.125 48 76 48H4C1.75 48 0 46.25 0 44V4C0 1.875 1.75 0 4 0H76ZM74 34V14C69.5 14 66 10.5 66 6H14C14 10.5 10.375 14 6 14V34C10.375 34 14 37.625 14 42H66C66 37.625 69.5 34 74 34Z" fill="#6645AB"/>
</svg>
