<svg width="20" height="20" viewBox="0 0 20 20" fill="none" xmlns="http://www.w3.org/2000/svg">
<path d="M16.25 17.25C16.25 17.6642 15.9142 18 15.5 18L4.5 18C4.0858 18 3.75 17.6642 3.75 17.25C3.75 16.8358 4.0858 16.5 4.5 16.5L15.5 16.5C15.9142 16.5 16.25 16.8358 16.25 17.25Z" fill="#6645AB"/>
<path d="M10 2C10.4142 2 10.75 2.33579 10.75 2.75L10.75 12.9393L13.4697 10.2197C13.7626 9.92678 14.2374 9.92678 14.5303 10.2197C14.8232 10.5126 14.8232 10.9874 14.5303 11.2803L10.5337 15.277C10.5216 15.2891 10.5092 15.3009 10.4964 15.3122C10.4395 15.3626 10.3768 15.4028 10.3106 15.4329C10.2159 15.476 10.1108 15.5 10 15.5C9.8878 15.5 9.7813 15.4753 9.6857 15.4312C9.6222 15.4019 9.562 15.3633 9.5071 15.3153C9.4929 15.3029 9.4792 15.29 9.466 15.2766L5.4697 11.2803C5.1768 10.9874 5.1768 10.5126 5.4697 10.2197C5.7626 9.92678 6.2374 9.92678 6.5303 10.2197L9.25 12.9393L9.25 2.75C9.25 2.33579 9.5858 2 10 2Z" fill="#6645AB"/>
</svg>
