<svg width="64" height="64" viewBox="0 0 64 64" fill="none" xmlns="http://www.w3.org/2000/svg">
<rect width="64" height="64" rx="32" fill="#F3F9FE"/>
<rect x="8" y="8" width="48" height="48" rx="24" fill="#E8F2FD"/>
<path d="M31.5667 23.4602L30.1455 24.8814C29.8839 25.143 29.8926 25.5759 30.165 25.8483L38.0569 33.7402C38.3293 34.0126 38.7622 34.0213 39.0238 33.7597L40.445 32.3385C40.7066 32.0769 40.6979 31.6439 40.4255 31.3715L32.5336 23.4797C32.2612 23.2073 31.8283 23.1985 31.5667 23.4602Z" stroke="#1780EA" stroke-width="1.5" stroke-linecap="round" stroke-linejoin="round"/>
<path d="M32.3387 40.4433L33.7599 39.0222C34.0215 38.7605 34.0128 38.3276 33.7404 38.0552L25.8486 30.1633C25.5762 29.8909 25.1432 29.8822 24.8816 30.1438L23.4604 31.565C23.1988 31.8266 23.2075 32.2596 23.4799 32.532L31.3718 40.4238C31.6442 40.6962 32.0771 40.705 32.3387 40.4433Z" stroke="#1780EA" stroke-width="1.5" stroke-linecap="round" stroke-linejoin="round"/>
<path d="M33.6172 24.3684L35.3937 22.5919C35.5507 22.4348 35.7533 22.3362 35.9568 22.3176C36.1604 22.2991 36.3482 22.3622 36.4791 22.493L41.4115 27.4254C41.5423 27.5562 41.6053 27.744 41.5868 27.9476C41.5682 28.1511 41.4696 28.3537 41.3125 28.5108L39.5361 30.2872" stroke="#1780EA" stroke-width="1.5" stroke-linecap="round" stroke-linejoin="round"/>
<path d="M30.2882 39.536L28.5118 41.3125C28.3547 41.4696 28.1521 41.5682 27.9486 41.5868C27.745 41.6053 27.5572 41.5422 27.4264 41.4114L22.494 36.479C22.3631 36.3482 22.3001 36.1604 22.3186 35.9568C22.3372 35.7533 22.4358 35.5507 22.5929 35.3936L24.3693 33.6172" stroke="#1780EA" stroke-width="1.5" stroke-linecap="round" stroke-linejoin="round"/>
<path d="M30 34L34 30" stroke="#1780EA" stroke-width="1.5" stroke-linecap="round" stroke-linejoin="round"/>
</svg>
