<svg width="13" height="12" viewBox="0 0 13 12" fill="none" xmlns="http://www.w3.org/2000/svg">
<g clip-path="url(#clip0_605_47287)">
<path d="M11.9711 3.41849L10.8801 2.32699L11.3536 1.85349C11.4013 1.80737 11.4394 1.7522 11.4656 1.6912C11.4918 1.63019 11.5056 1.56458 11.5062 1.4982C11.5068 1.43181 11.4941 1.36597 11.469 1.30452C11.4438 1.24307 11.4067 1.18724 11.3597 1.1403C11.3128 1.09335 11.257 1.05622 11.1955 1.03108C11.1341 1.00594 11.0682 0.993292 11.0019 0.993869C10.9355 0.994446 10.8699 1.00824 10.8088 1.03444C10.7478 1.06065 10.6927 1.09874 10.6466 1.14649L10.1731 1.61999L9.08155 0.528994C8.73752 0.201156 8.28052 0.01828 7.8053 0.01828C7.33008 0.01828 6.87308 0.201156 6.52905 0.528994C6.36133 0.696577 6.22828 0.89557 6.1375 1.1146C6.04672 1.33363 6 1.5684 6 1.80549C6 2.04259 6.04672 2.27736 6.1375 2.49639C6.22828 2.71542 6.36133 2.91441 6.52905 3.08199L7.62005 4.17299L4.67305 7.11999L3.58155 6.02899C3.23752 5.70116 2.78052 5.51828 2.3053 5.51828C1.83008 5.51828 1.37308 5.70116 1.02905 6.02899C0.861331 6.19658 0.728279 6.39557 0.637502 6.6146C0.546724 6.83363 0.5 7.0684 0.5 7.30549C0.5 7.54259 0.546724 7.77736 0.637502 7.99639C0.728279 8.21542 0.861331 8.41441 1.02905 8.58199L2.12005 9.67299L1.64655 10.1465C1.5988 10.1926 1.56071 10.2478 1.5345 10.3088C1.5083 10.3698 1.4945 10.4354 1.49393 10.5018C1.49335 10.5682 1.506 10.634 1.53114 10.6955C1.55628 10.7569 1.59341 10.8127 1.64035 10.8597C1.6873 10.9066 1.74313 10.9438 1.80457 10.9689C1.86602 10.994 1.93186 11.0067 1.99825 11.0061C2.06464 11.0055 2.13025 10.9917 2.19125 10.9655C2.25226 10.9393 2.30743 10.9012 2.35355 10.8535L2.82705 10.38L3.91855 11.471C4.08613 11.6386 4.28509 11.7716 4.50407 11.8624C4.72305 11.9531 4.95777 11.9998 5.1948 11.9998C5.43184 11.9998 5.66655 11.9531 5.88553 11.8624C6.10452 11.7716 6.30348 11.6386 6.47105 11.471C6.63876 11.3035 6.7718 11.1045 6.86257 10.8855C6.95334 10.6665 7.00006 10.4318 7.00006 10.1947C7.00006 9.95769 6.95334 9.72296 6.86257 9.50397C6.7718 9.28498 6.63876 9.08603 6.47105 8.91849L5.38005 7.82749L8.33005 4.87999L9.42105 5.97099C9.58862 6.13864 9.78759 6.27163 10.0066 6.36236C10.2256 6.4531 10.4603 6.4998 10.6973 6.4998C10.9343 6.4998 11.1691 6.4531 11.388 6.36236C11.607 6.27163 11.806 6.13864 11.9736 5.97099C12.1413 5.80345 12.2743 5.6045 12.3651 5.38552C12.4558 5.16653 12.5026 4.9318 12.5026 4.69474C12.5026 4.45769 12.4558 4.22296 12.3651 4.00397C12.2743 3.78498 12.1413 3.58603 11.9736 3.41849H11.9711Z" fill="#C7F064"/>
</g>
<defs>
<clipPath id="clip0_605_47287">
<rect width="12" height="12" fill="white" transform="translate(0.5)"/>
</clipPath>
</defs>
</svg>
