<svg width="23" height="5" viewBox="0 0 23 5" fill="none" xmlns="http://www.w3.org/2000/svg">
<path d="M2.91207 5C2.22194 5 1.56008 4.73661 1.07208 4.26777C0.584089 3.79893 0.309937 3.16304 0.309937 2.5C0.309937 1.83696 0.584089 1.20107 1.07208 0.732233C1.56008 0.263392 2.22194 0 2.91207 0C3.6022 0 4.26406 0.263392 4.75206 0.732233C5.24005 1.20107 5.5142 1.83696 5.5142 2.5C5.5142 3.16304 5.24005 3.79893 4.75206 4.26777C4.26406 4.73661 3.6022 5 2.91207 5ZM11.5858 5C10.8957 5 10.2339 4.73661 9.74586 4.26777C9.25787 3.79893 8.98372 3.16304 8.98372 2.5C8.98372 1.83696 9.25787 1.20107 9.74586 0.732233C10.2339 0.263392 10.8957 0 11.5858 0C12.276 0 12.9378 0.263392 13.4258 0.732233C13.9138 1.20107 14.188 1.83696 14.188 2.5C14.188 3.16304 13.9138 3.79893 13.4258 4.26777C12.9378 4.73661 12.276 5 11.5858 5ZM20.2596 5C19.5695 5 18.9076 4.73661 18.4196 4.26777C17.9316 3.79893 17.6575 3.16304 17.6575 2.5C17.6575 1.83696 17.9316 1.20107 18.4196 0.732233C18.9076 0.263392 19.5695 0 20.2596 0C20.9498 0 21.6116 0.263392 22.0996 0.732233C22.5876 1.20107 22.8618 1.83696 22.8618 2.5C22.8618 3.16304 22.5876 3.79893 22.0996 4.26777C21.6116 4.73661 20.9498 5 20.2596 5Z" fill="white"/>
</svg>
