<svg width="25" height="24" viewBox="0 0 25 24" fill="none" xmlns="http://www.w3.org/2000/svg">
<g clip-path="url(#clip0_524_36900)">
<path d="M3.6875 5.25C3.275 5.25 2.9375 5.5875 2.9375 6V7.03594L11.0234 13.6734C11.9937 14.4703 13.3859 14.4703 14.3563 13.6734L22.4375 7.03594V6C22.4375 5.5875 22.1 5.25 21.6875 5.25H3.6875ZM2.9375 9.94687V18C2.9375 18.4125 3.275 18.75 3.6875 18.75H21.6875C22.1 18.75 22.4375 18.4125 22.4375 18V9.94687L15.7812 15.4125C13.9812 16.8891 11.3891 16.8891 9.59375 15.4125L2.9375 9.94687ZM0.6875 6C0.6875 4.34531 2.03281 3 3.6875 3H21.6875C23.3422 3 24.6875 4.34531 24.6875 6V18C24.6875 19.6547 23.3422 21 21.6875 21H3.6875C2.03281 21 0.6875 19.6547 0.6875 18V6Z" fill="#10B981"/>
</g>
<defs>
<clipPath id="clip0_524_36900">
<path d="M0.6875 0H24.6875V24H0.6875V0Z" fill="white"/>
</clipPath>
</defs>
</svg>
