<svg width="22" height="22" viewBox="0 0 22 22" fill="none" xmlns="http://www.w3.org/2000/svg">
<path d="M12.617 3.36901L14.394 1.59201C14.5444 1.43835 14.7433 1.34153 14.957 1.31801C15.0515 1.30686 15.1474 1.31676 15.2376 1.34702C15.3279 1.37728 15.4103 1.42713 15.479 1.49301L20.412 6.42601C20.542 6.55601 20.605 6.74401 20.587 6.94801C20.5635 7.16171 20.4667 7.36066 20.313 7.51101L18.536 9.28801M9.288 18.536L7.512 20.312C7.36164 20.4657 7.16269 20.5625 6.949 20.586C6.85431 20.5973 6.75829 20.5875 6.66785 20.5572C6.57742 20.527 6.49482 20.477 6.426 20.411L1.494 15.479C1.42792 15.4102 1.37795 15.3276 1.34768 15.2372C1.31742 15.1467 1.30762 15.0507 1.319 14.956C1.34251 14.7423 1.43934 14.5434 1.593 14.393L3.369 12.617M9 13L13 9.00001M10.567 2.46001L9.146 3.88201C9.02044 4.01291 8.95201 4.18831 8.95576 4.36965C8.95951 4.55099 9.03513 4.72342 9.166 4.84901L17.057 12.741C17.1826 12.8719 17.355 12.9475 17.5364 12.9513C17.7177 12.955 17.8931 12.8866 18.024 12.761L19.445 11.339C19.5706 11.2081 19.639 11.0327 19.6352 10.8514C19.6315 10.67 19.5559 10.4976 19.425 10.372L11.535 2.48001C11.4094 2.34915 11.237 2.27352 11.0556 2.26977C10.8743 2.26602 10.6979 2.33445 10.567 2.46001ZM11.339 19.444L12.759 18.023C12.8847 17.8923 12.9533 17.7169 12.9497 17.5356C12.9462 17.3542 12.8707 17.1817 12.74 17.056L4.85 9.16401C4.72441 9.03315 4.55198 8.95752 4.37064 8.95377C4.1893 8.95002 4.01389 9.01845 3.883 9.14401L2.46 10.565C2.33444 10.6959 2.26601 10.8713 2.26976 11.0527C2.27351 11.234 2.34913 11.4064 2.48 11.532L10.372 19.424C10.4976 19.5549 10.67 19.6305 10.8514 19.6343C11.0327 19.638 11.2081 19.5696 11.339 19.444Z" stroke="white" stroke-width="1.5" stroke-linecap="round" stroke-linejoin="round"/>
</svg>
