<svg width="79" height="78" viewBox="0 0 79 78" fill="none" xmlns="http://www.w3.org/2000/svg">
<path d="M73.9939 38.0915L73.8191 35.3539C73.7026 34.4802 73.5279 33.5482 73.4114 32.6745C73.2949 31.8008 73.0619 30.9271 72.7707 30.0534C72.5377 29.1796 72.3047 28.3059 71.9552 27.4322C70.7903 23.9956 68.9846 20.792 66.7712 17.9379C64.5578 15.0838 61.9949 12.5209 59.0243 10.5404C56.0536 8.56004 52.7918 6.92911 49.4134 5.88065C47.2 5.23993 44.9284 4.8322 42.6567 4.59921C40.6181 4.42447 38.8706 5.99715 38.8706 8.03581C38.8706 9.78323 40.1521 11.2394 41.8995 11.4724C43.7052 11.7054 45.5109 12.1131 47.2583 12.6956C49.9377 13.6276 52.4423 14.9673 54.714 16.6564C56.9856 18.2874 58.966 20.3843 60.5969 22.6559C62.2279 24.9276 63.5676 27.4322 64.3248 30.1116C64.5578 30.7523 64.7325 31.4513 64.849 32.1503C65.0238 32.8492 65.1985 33.4899 65.2567 34.1889C65.315 34.8879 65.4315 35.5869 65.4897 36.2276L65.548 38.3245C65.4897 41.1204 65.1402 43.858 64.2665 46.4791C63.3928 49.1003 62.1696 51.5467 60.5969 53.7601C59.0243 55.9735 57.0438 57.8956 54.8887 59.5266L54.0732 60.109C53.782 60.2838 53.549 60.5168 53.1995 60.6915L51.4521 61.74C50.2289 62.3224 49.0057 62.9049 47.7243 63.3127C45.1614 64.1864 42.482 64.7106 39.8026 64.6523C34.3856 64.7688 29.0851 63.0797 24.7165 60.109C22.5614 58.5946 20.6392 56.7307 19.0083 54.6338L17.8433 53.0029C17.4938 52.4204 17.2026 51.8379 16.8531 51.3137C16.5036 50.7894 16.2706 50.1487 15.9794 49.5663L15.5717 48.6925C15.4552 48.4013 15.3387 48.0518 15.2222 47.7606L14.9309 46.8286C14.8144 46.5374 14.6979 46.2461 14.6397 45.8967L14.1737 43.9745C14.0572 43.3338 13.999 42.6931 13.8825 42.0523C13.8242 41.7028 13.766 41.4116 13.766 41.0621V40.0719C13.766 39.4312 13.7077 38.7905 13.766 38.0915C13.8242 37.4508 13.8242 36.8101 13.9407 36.1693C14.1155 34.8879 14.3485 33.6064 14.6979 32.3832L10.7954 25.6848L3.04845 29.4126C2.58247 31.2765 2.29124 33.1405 2.11649 35.0626C2.05825 35.9946 2 36.9848 2 37.9168C2 38.8487 2.05825 39.8389 2.11649 40.7709L2.23299 42.1688C2.23299 42.6348 2.34948 43.1008 2.40773 43.5668C2.58247 44.4987 2.69897 45.4307 2.93196 46.3626L3.68918 49.1003C3.80567 49.5662 3.98041 50.0322 4.15516 50.44L4.67938 51.7797C4.85413 52.2456 5.02887 52.6534 5.20361 53.1193L5.84433 54.4008C6.25206 55.2163 6.6598 56.09 7.18402 56.9054C7.70825 57.7209 8.17423 58.5364 8.69846 59.2936L10.4459 61.5652C12.8923 64.4776 15.6882 66.9822 18.8335 69.0209C25.1825 73.04 32.7547 75.1369 40.2103 74.6709L41.6083 74.5544C42.0743 74.4962 42.5402 74.4962 43.0062 74.4379L45.7438 73.9719C46.2098 73.9137 46.6758 73.739 47.0835 73.6225L48.4232 73.273C48.8892 73.1565 49.2969 73.04 49.7629 72.8652L51.0444 72.3993C52.7918 71.8168 54.4227 70.9431 56.0536 70.0694L58.3835 68.6132C58.7913 68.3802 59.1408 68.0889 59.4902 67.7977L60.5969 66.924C63.4511 64.5941 66.014 61.9147 68.0526 58.8276C70.0913 55.7405 71.6057 52.4204 72.6542 48.8673C73.7026 45.4307 74.0521 41.7611 73.9939 38.0915Z" fill="#6645AB"/>
<path d="M38.4634 46.3619C42.832 46.5949 46.4433 43.1 46.4433 38.7897C46.4433 36.0521 44.9871 33.6639 42.832 32.3242L41.667 21.2572C41.4923 19.801 40.2691 18.6943 38.8711 18.6943C37.415 18.6943 36.1918 19.801 36.0753 21.199L34.9103 32.266C32.5804 33.7222 31.066 36.4016 31.299 39.4304C31.6485 43.1583 34.7356 46.1871 38.4634 46.3619ZM37.415 35.4114C37.8227 35.2366 38.3469 35.1201 38.8129 35.1201C39.2789 35.1201 39.8031 35.2366 40.2108 35.4114C41.5505 35.9356 42.4242 37.2753 42.4242 38.7897C42.4242 40.7701 40.7933 42.4593 38.7547 42.4593C36.7742 42.4593 35.0851 40.8284 35.0851 38.7897C35.2016 37.217 36.1335 35.9356 37.415 35.4114Z" fill="#6645AB"/>
<path d="M76.4141 2L2.41407 76" stroke="#6645AB" stroke-width="4" stroke-linecap="round"/>
</svg>
