<svg width="21" height="21" viewBox="0 0 21 21" fill="none" xmlns="http://www.w3.org/2000/svg">
<path d="M7.75829 14.0749L9.66663 15.9916V7.99992C9.66663 7.77891 9.75442 7.56695 9.9107 7.41067C10.067 7.25439 10.2789 7.16659 10.5 7.16659C10.721 7.16659 10.9329 7.25439 11.0892 7.41067C11.2455 7.56695 11.3333 7.77891 11.3333 7.99992V15.9916L13.2416 14.0749C13.3191 13.9968 13.4113 13.9348 13.5128 13.8925C13.6144 13.8502 13.7233 13.8284 13.8333 13.8284C13.9433 13.8284 14.0522 13.8502 14.1538 13.8925C14.2553 13.9348 14.3475 13.9968 14.425 14.0749C14.5031 14.1524 14.5651 14.2446 14.6074 14.3461C14.6497 14.4477 14.6715 14.5566 14.6715 14.6666C14.6715 14.7766 14.6497 14.8855 14.6074 14.9871C14.5651 15.0886 14.5031 15.1808 14.425 15.2583L11.0916 18.5916C11.0124 18.6675 10.9189 18.7269 10.8166 18.7666C10.6137 18.8499 10.3862 18.8499 10.1833 18.7666C10.081 18.7269 9.98755 18.6675 9.90829 18.5916L6.57496 15.2583C6.49726 15.1806 6.43563 15.0883 6.39358 14.9868C6.35153 14.8853 6.32988 14.7765 6.32988 14.6666C6.32988 14.5567 6.35153 14.4479 6.39358 14.3464C6.43563 14.2449 6.49726 14.1526 6.57496 14.0749C6.65266 13.9972 6.7449 13.9356 6.84642 13.8935C6.94794 13.8515 7.05674 13.8298 7.16663 13.8298C7.27651 13.8298 7.38532 13.8515 7.48683 13.8935C7.58835 13.9356 7.68059 13.9972 7.75829 14.0749ZM18 10.4999C17.7789 10.4999 17.567 10.4121 17.4107 10.2558C17.2544 10.0996 17.1666 9.8876 17.1666 9.66659V4.66659C17.1666 4.44558 17.0788 4.23361 16.9225 4.07733C16.7663 3.92105 16.5543 3.83326 16.3333 3.83326H4.66663C4.44561 3.83326 4.23365 3.92105 4.07737 4.07733C3.92109 4.23361 3.83329 4.44558 3.83329 4.66659V9.66659C3.83329 9.8876 3.7455 10.0996 3.58921 10.2558C3.43293 10.4121 3.22097 10.4999 2.99996 10.4999C2.77895 10.4999 2.56698 10.4121 2.4107 10.2558C2.25442 10.0996 2.16663 9.8876 2.16663 9.66659V4.66659C2.16663 4.00355 2.43002 3.36766 2.89886 2.89882C3.3677 2.42998 4.00358 2.16659 4.66663 2.16659H16.3333C16.9963 2.16659 17.6322 2.42998 18.1011 2.89882C18.5699 3.36766 18.8333 4.00355 18.8333 4.66659V9.66659C18.8333 9.8876 18.7455 10.0996 18.5892 10.2558C18.4329 10.4121 18.221 10.4999 18 10.4999Z" fill="white"/>
</svg>
