<svg width="24" height="24" viewBox="0 0 24 24" fill="none" xmlns="http://www.w3.org/2000/svg">
<path d="M24 12.0004C24 18.0612 19.5074 23.0717 13.6712 23.8848C13.1255 23.9605 12.5671 24 12.0004 24C11.3463 24 10.7039 23.9479 10.0783 23.847C4.36394 22.9271 0 17.9729 0 12.0004C0 5.37295 5.37295 0 11.9996 0C18.6262 0 24 5.37295 24 12.0004Z" fill="#1877F2"/>
<path d="M13.671 9.63515V12.2493H16.9049L16.3928 15.7707H13.671V23.884C13.1253 23.9596 12.567 23.9992 12.0003 23.9992C11.3461 23.9992 10.7037 23.947 10.0782 23.8461V15.7707H7.0957V12.2493H10.0782V9.05077C10.0782 7.06639 11.6867 5.45703 13.6719 5.45703V5.45871C13.6778 5.45871 13.6828 5.45703 13.6887 5.45703H16.9057V8.50254H14.8037C14.1789 8.50254 13.6719 9.00957 13.6719 9.63431L13.671 9.63515Z" fill="white"/>
</svg>
