<svg width="17" height="17" viewBox="0 0 17 17" fill="none" xmlns="http://www.w3.org/2000/svg">
<path d="M14.45 2.68423H9.112L8.84 1.78949C8.66367 1.26449 8.33659 0.810206 7.90407 0.489584C7.47155 0.168963 6.955 -0.0021267 6.426 1.99558e-05H2.55C1.8737 1.99558e-05 1.2251 0.28282 0.746878 0.786206C0.26866 1.28959 0 1.97233 0 2.68423V14.3158C0 15.0277 0.26866 15.7104 0.746878 16.2138C1.2251 16.7172 1.8737 17 2.55 17H14.45C15.1263 17 15.7749 16.7172 16.2531 16.2138C16.7313 15.7104 17 15.0277 17 14.3158V5.36843C17 4.65654 16.7313 3.9738 16.2531 3.47041C15.7749 2.96703 15.1263 2.68423 14.45 2.68423ZM15.3 14.3158C15.3 14.5531 15.2104 14.7807 15.051 14.9485C14.8916 15.1163 14.6754 15.2105 14.45 15.2105H2.55C2.32457 15.2105 2.10837 15.1163 1.94896 14.9485C1.78955 14.7807 1.7 14.5531 1.7 14.3158V2.68423C1.7 2.44693 1.78955 2.21935 1.94896 2.05155C2.10837 1.88376 2.32457 1.78949 2.55 1.78949H6.426C6.6042 1.78901 6.77803 1.84749 6.92293 1.95667C7.06784 2.06584 7.17648 2.2202 7.2335 2.39791L7.6925 3.86528C7.74952 4.04299 7.85816 4.19735 8.00307 4.30652C8.14797 4.4157 8.3218 4.47418 8.5 4.4737H14.45C14.6754 4.4737 14.8916 4.56797 15.051 4.73576C15.2104 4.90356 15.3 5.13114 15.3 5.36843V14.3158Z" fill="#6645AB"/>
</svg>
