<svg width="22" height="20" viewBox="0 0 22 20" fill="none" xmlns="http://www.w3.org/2000/svg">
<path d="M11.95 5.27799L10.89 3.16999C10.585 2.56299 10.433 2.25999 10.205 2.03799C10.0035 1.84197 9.76098 1.69307 9.495 1.60199C9.195 1.49899 8.853 1.49899 8.171 1.49899H4.54C3.476 1.49899 2.944 1.49899 2.537 1.70499C2.18 1.88599 1.889 2.17499 1.707 2.52999C1.5 2.93399 1.5 3.46299 1.5 4.52099V5.27699M1.5 5.27699H15.94C17.536 5.27699 18.334 5.27699 18.944 5.58599C19.48 5.85699 19.916 6.29099 20.189 6.82399C20.5 7.42999 20.5 8.22399 20.5 9.80999V13.966C20.5 15.552 20.5 16.346 20.19 16.952C19.916 17.485 19.48 17.918 18.944 18.19C18.334 18.499 17.536 18.499 15.94 18.499H6.06C4.464 18.499 3.666 18.499 3.056 18.19C2.52074 17.9191 2.08493 17.4857 1.811 16.952C1.5 16.346 1.5 15.552 1.5 13.966V5.27699Z" stroke="white" stroke-width="1.5" stroke-linecap="round" stroke-linejoin="round"/>
</svg>
