<svg width="37" height="36" viewBox="0 0 37 36" fill="none" xmlns="http://www.w3.org/2000/svg">
<rect x="0.5" y="0.5" width="35.7" height="34.2" rx="17.1" stroke="white"/>
<g clip-path="url(#clip0_90_7539)">
<path d="M26.7073 19.2214V12.5183C25.4813 13.1784 24.3714 13.5085 23.3775 13.5085C22.7827 13.5085 22.2567 13.3924 21.7997 13.1603C21.0743 12.8048 20.4068 12.5273 19.7975 12.3278C19.1881 12.1283 18.5424 12.0286 17.8605 12.0286C16.6055 12.0286 15.1437 12.4892 13.4752 13.4106V19.9287C15.2525 19.1089 16.8231 18.6991 18.187 18.6991C18.586 18.6991 18.9614 18.7263 19.3132 18.7807C19.6651 18.8351 20.0205 18.9294 20.3796 19.0636C20.7387 19.1978 21.018 19.3103 21.2175 19.4009C21.417 19.4916 21.7163 19.6349 22.1153 19.8308L22.42 19.9831C22.7392 20.1427 23.1055 20.2225 23.519 20.2225C24.3895 20.2225 25.4523 19.8888 26.7073 19.2214ZM12.0823 10.6357C12.0823 10.8896 12.0189 11.1218 11.8919 11.3322C11.765 11.5425 11.5963 11.7094 11.3859 11.8327V25.6089C11.3859 25.7105 11.3533 25.7939 11.288 25.8592C11.2227 25.9245 11.1393 25.9572 11.0377 25.9572H10.3413C10.2397 25.9572 10.1563 25.9245 10.091 25.8592C10.0257 25.7939 9.99306 25.7105 9.99306 25.6089V11.8327C9.78268 11.7094 9.61401 11.5425 9.48706 11.3322C9.36011 11.1218 9.29663 10.8896 9.29663 10.6357C9.29663 10.2512 9.43265 9.92297 9.70469 9.65093C9.97674 9.37889 10.305 9.24287 10.6895 9.24287C11.074 9.24287 11.4022 9.37889 11.6743 9.65093C11.9463 9.92297 12.0823 10.2512 12.0823 10.6357ZM28.1002 11.3322V19.6349C28.1002 19.9178 27.9732 20.1246 27.7193 20.2551C27.6468 20.2914 27.5851 20.3241 27.5344 20.3531C25.9529 21.1946 24.6144 21.6154 23.519 21.6154C22.8806 21.6154 22.3075 21.4884 21.7997 21.2345L21.495 21.0822C21.0307 20.8428 20.6716 20.6686 20.4177 20.5598C20.1638 20.451 19.8337 20.3458 19.4275 20.2443C19.0212 20.1427 18.6077 20.0919 18.187 20.0919C17.447 20.0919 16.5928 20.2515 15.6243 20.5707C14.6559 20.8899 13.827 21.2599 13.1379 21.6806C13.0291 21.7459 12.9094 21.7786 12.7788 21.7786C12.6627 21.7786 12.5466 21.7496 12.4306 21.6915C12.1984 21.5537 12.0823 21.3506 12.0823 21.0822V13.0079C12.0823 12.754 12.1948 12.5545 12.4197 12.4094C12.6736 12.2571 12.9583 12.1029 13.2739 11.947C13.5895 11.791 14.003 11.6024 14.5144 11.3811C15.0258 11.1599 15.579 10.9803 16.1739 10.8425C16.7687 10.7046 17.331 10.6357 17.8605 10.6357C18.673 10.6357 19.4311 10.7482 20.1348 10.9731C20.8385 11.1979 21.5966 11.5099 22.4091 11.9089C22.6847 12.0467 23.0076 12.1156 23.3775 12.1156C24.2626 12.1156 25.387 11.7094 26.7509 10.8969C26.9105 10.8098 27.0229 10.7482 27.0882 10.7119C27.3131 10.5958 27.538 10.6031 27.7629 10.7337C27.9878 10.8787 28.1002 11.0782 28.1002 11.3322Z" fill="white"/>
</g>
<defs>
<clipPath id="clip0_90_7539">
<rect width="19.5" height="20" fill="white" transform="matrix(1 0 0 -1 8.6001 27.6)"/>
</clipPath>
</defs>
</svg>
