<svg width="25" height="26" viewBox="0 0 25 26" fill="none" xmlns="http://www.w3.org/2000/svg">
<path d="M11.0498 19.4953H2.2998V4.49536" stroke="white" stroke-width="1.5" stroke-linecap="square" stroke-linejoin="round"/>
<path d="M18.0506 8.24536L12.0506 14.2454L6.05059 9.74536L2.7998 12.5899" stroke="white" stroke-width="1.5" stroke-linecap="square" stroke-linejoin="round"/>
<path d="M21.2773 17.3646H23.2999V15.342" stroke="white" stroke-width="1.5" stroke-linecap="square" stroke-linejoin="round"/>
<path d="M21.5807 21.9407C20.9586 22.5633 20.1657 22.9875 19.3025 23.1595C18.4392 23.3315 17.5444 23.2436 16.7311 22.9069C15.9178 22.5702 15.2226 21.9999 14.7335 21.2681C14.2444 20.5362 13.9834 19.6758 13.9834 18.7956C13.9834 17.9154 14.2444 17.0549 14.7335 16.3231C15.2226 15.5913 15.9178 15.0209 16.7311 14.6843C17.5444 14.3476 18.4392 14.2597 19.3025 14.4317C20.1657 14.6037 20.9586 15.0278 21.5807 15.6505L22.8881 16.954" stroke="white" stroke-width="1.5" stroke-linecap="square" stroke-linejoin="round"/>
</svg>
