<svg width="21" height="21" viewBox="0 0 21 21" fill="none" xmlns="http://www.w3.org/2000/svg">
<path d="M7.75829 6.92508L9.66663 5.00841V13.0001C9.66663 13.2211 9.75442 13.4331 9.9107 13.5893C10.067 13.7456 10.2789 13.8334 10.5 13.8334C10.721 13.8334 10.9329 13.7456 11.0892 13.5893C11.2455 13.4331 11.3333 13.2211 11.3333 13.0001V5.00841L13.2416 6.92508C13.3191 7.00318 13.4113 7.06518 13.5128 7.10749C13.6144 7.14979 13.7233 7.17158 13.8333 7.17158C13.9433 7.17158 14.0522 7.14979 14.1538 7.10749C14.2553 7.06518 14.3475 7.00318 14.425 6.92508C14.5031 6.84761 14.5651 6.75544 14.6074 6.65389C14.6497 6.55234 14.6715 6.44342 14.6715 6.33341C14.6715 6.2234 14.6497 6.11448 14.6074 6.01293C14.5651 5.91138 14.5031 5.81921 14.425 5.74174L11.0916 2.40841C11.0124 2.33254 10.9189 2.27307 10.8166 2.23341C10.6137 2.15006 10.3862 2.15006 10.1833 2.23341C10.081 2.27307 9.98755 2.33254 9.90829 2.40841L6.57496 5.74174C6.49726 5.81944 6.43563 5.91168 6.39358 6.0132C6.35153 6.11472 6.32988 6.22353 6.32988 6.33341C6.32988 6.44329 6.35153 6.5521 6.39358 6.65362C6.43563 6.75514 6.49726 6.84738 6.57496 6.92508C6.65266 7.00278 6.7449 7.06441 6.84642 7.10646C6.94794 7.14851 7.05674 7.17015 7.16663 7.17015C7.27651 7.17015 7.38532 7.14851 7.48683 7.10646C7.58835 7.06441 7.68059 7.00278 7.75829 6.92508ZM18 10.5001C17.7789 10.5001 17.567 10.5879 17.4107 10.7442C17.2544 10.9004 17.1666 11.1124 17.1666 11.3334V16.3334C17.1666 16.5544 17.0788 16.7664 16.9225 16.9227C16.7663 17.0789 16.5543 17.1667 16.3333 17.1667H4.66663C4.44561 17.1667 4.23365 17.0789 4.07737 16.9227C3.92109 16.7664 3.83329 16.5544 3.83329 16.3334V11.3334C3.83329 11.1124 3.7455 10.9004 3.58921 10.7442C3.43293 10.5879 3.22097 10.5001 2.99996 10.5001C2.77895 10.5001 2.56698 10.5879 2.4107 10.7442C2.25442 10.9004 2.16663 11.1124 2.16663 11.3334V16.3334C2.16663 16.9965 2.43002 17.6323 2.89886 18.1012C3.3677 18.57 4.00358 18.8334 4.66663 18.8334H16.3333C16.9963 18.8334 17.6322 18.57 18.1011 18.1012C18.5699 17.6323 18.8333 16.9965 18.8333 16.3334V11.3334C18.8333 11.1124 18.7455 10.9004 18.5892 10.7442C18.4329 10.5879 18.221 10.5001 18 10.5001Z" fill="white"/>
</svg>
