<svg width="25" height="24" viewBox="0 0 25 24" fill="none" xmlns="http://www.w3.org/2000/svg">
<path d="M7.06006 6H5.06006C4.50777 6 4.06006 6.44772 4.06006 7V17C4.06006 17.5523 4.50777 18 5.06006 18H7.06006C7.61234 18 8.06006 17.5523 8.06006 17V7C8.06006 6.44772 7.61234 6 7.06006 6Z" stroke="white" stroke-width="1.5"/>
<path d="M17.0601 18H19.0601C19.6123 18 20.0601 17.5523 20.0601 17V7C20.0601 6.44771 19.6123 6 19.0601 6H17.0601C16.5078 6 16.0601 6.44771 16.0601 7V17C16.0601 17.5523 16.5078 18 17.0601 18Z" stroke="white" stroke-width="1.5"/>
<path d="M4.06006 9H2.06006C1.50778 9 1.06006 9.44772 1.06006 10V14C1.06006 14.5523 1.50778 15 2.06006 15H4.06006" stroke="white" stroke-width="1.5"/>
<path d="M20.0601 15H22.0601C22.6124 15 23.0601 14.5523 23.0601 14V10C23.0601 9.44772 22.6124 9 22.0601 9H20.0601" stroke="white" stroke-width="1.5"/>
<path d="M8.06006 11.75H16.0601" stroke="white" stroke-width="1.5"/>
</svg>
