<svg width="68" height="68" viewBox="0 0 68 68" fill="none" xmlns="http://www.w3.org/2000/svg">
<path d="M49.5833 7.08334H18.4167C18.0409 7.08334 17.6806 7.2326 17.4149 7.49828C17.1493 7.76395 17 8.12429 17 8.50001C17 8.87573 17.1493 9.23607 17.4149 9.50174C17.6806 9.76742 18.0409 9.91668 18.4167 9.91668H49.5833C49.9591 9.91668 50.3194 9.76742 50.5851 9.50174C50.8507 9.23607 51 8.87573 51 8.50001C51 8.12429 50.8507 7.76395 50.5851 7.49828C50.3194 7.2326 49.9591 7.08334 49.5833 7.08334Z" fill="#C52229"/>
<path fill-rule="evenodd" clip-rule="evenodd" d="M18.4166 5.66666H49.5833C50.3348 5.66666 51.0554 5.96517 51.5868 6.49652C52.1181 7.02787 52.4166 7.74854 52.4166 8.49999C52.4166 9.25144 52.1181 9.97211 51.5868 10.5035C51.0554 11.0348 50.3348 11.3333 49.5833 11.3333H18.4166C17.6652 11.3333 16.9445 11.0348 16.4132 10.5035C15.8818 9.97211 15.5833 9.25144 15.5833 8.49999C15.5833 7.74854 15.8818 7.02787 16.4132 6.49652C16.9445 5.96517 17.6652 5.66666 18.4166 5.66666ZM18.4166 7.08332H49.5833C49.959 7.08332 50.3194 7.23258 50.585 7.49826C50.8507 7.76393 51 8.12427 51 8.49999C51 8.87571 50.8507 9.23605 50.585 9.50172C50.3194 9.7674 49.959 9.91666 49.5833 9.91666H18.4166C18.0409 9.91666 17.6806 9.7674 17.4149 9.50172C17.1492 9.23605 17 8.87571 17 8.49999C17 8.12427 17.1492 7.76393 17.4149 7.49826C17.6806 7.23258 18.0409 7.08332 18.4166 7.08332Z" fill="#9B0F15"/>
<path fill-rule="evenodd" clip-rule="evenodd" d="M17.7083 7.79168C17.7083 7.60382 17.7829 7.42365 17.9158 7.29081C18.0486 7.15797 18.2288 7.08334 18.4166 7.08334H25.1458C25.3337 7.08334 25.5138 7.15797 25.6467 7.29081C25.7795 7.42365 25.8541 7.60382 25.8541 7.79168C25.8541 7.97954 25.7795 8.15971 25.6467 8.29254C25.5138 8.42538 25.3337 8.50001 25.1458 8.50001H18.4166C18.2288 8.50001 18.0486 8.42538 17.9158 8.29254C17.7829 8.15971 17.7083 7.97954 17.7083 7.79168Z" fill="#DF3840"/>
<path d="M44.625 5.66666H23.375C23.1872 5.66666 23.007 5.74128 22.8742 5.87412C22.7413 6.00696 22.6667 6.18713 22.6667 6.37499V41.7917C22.6667 41.9795 22.7413 42.1597 22.8742 42.2925C23.007 42.4254 23.1872 42.5 23.375 42.5H44.625C44.8129 42.5 44.993 42.4254 45.1259 42.2925C45.2587 42.1597 45.3334 41.9795 45.3334 41.7917V6.37499C45.3334 6.18713 45.2587 6.00696 45.1259 5.87412C44.993 5.74128 44.8129 5.66666 44.625 5.66666Z" fill="#F1333B"/>
<path fill-rule="evenodd" clip-rule="evenodd" d="M23.375 4.25H44.625C45.1886 4.25 45.7291 4.47388 46.1276 4.8724C46.5261 5.27091 46.75 5.81142 46.75 6.375V41.7917C46.75 42.3553 46.5261 42.8958 46.1276 43.2943C45.7291 43.6928 45.1886 43.9167 44.625 43.9167H23.375C22.8114 43.9167 22.2709 43.6928 21.8724 43.2943C21.4739 42.8958 21.25 42.3553 21.25 41.7917V6.375C21.25 5.81142 21.4739 5.27091 21.8724 4.8724C22.2709 4.47388 22.8114 4.25 23.375 4.25ZM23.375 5.66667H44.625C44.8129 5.66667 44.993 5.74129 45.1259 5.87413C45.2587 6.00697 45.3333 6.18714 45.3333 6.375V41.7917C45.3333 41.9795 45.2587 42.1597 45.1259 42.2925C44.993 42.4254 44.8129 42.5 44.625 42.5H23.375C23.1871 42.5 23.007 42.4254 22.8741 42.2925C22.7413 42.1597 22.6667 41.9795 22.6667 41.7917V6.375C22.6667 6.18714 22.7413 6.00697 22.8741 5.87413C23.007 5.74129 23.1871 5.66667 23.375 5.66667Z" fill="#9B0F15"/>
<path fill-rule="evenodd" clip-rule="evenodd" d="M23.9948 6.46353C24.1826 6.46353 24.3628 6.53816 24.4956 6.671C24.6285 6.80384 24.7031 6.984 24.7031 7.17186V40.0208H42.8541C43.042 40.0208 43.2222 40.0954 43.355 40.2283C43.4879 40.3611 43.5625 40.5413 43.5625 40.7292C43.5625 40.917 43.4879 41.0972 43.355 41.23C43.2222 41.3629 43.042 41.4375 42.8541 41.4375H23.9948C23.8069 41.4375 23.6267 41.3629 23.4939 41.23C23.3611 41.0972 23.2864 40.917 23.2864 40.7292V7.17186C23.2864 6.984 23.3611 6.80384 23.4939 6.671C23.6267 6.53816 23.8069 6.46353 23.9948 6.46353Z" fill="#FE666D"/>
<path d="M39.6907 8.39375C39.6907 8.79538 39.3734 9.1205 38.9824 9.1205C38.5907 9.1205 38.2741 8.79467 38.2741 8.39446C38.2741 7.99283 38.5907 7.66771 38.9824 7.66771C39.3734 7.66771 39.6907 7.99283 39.6907 8.39375ZM37.2024 8.57083C37.2024 9.07021 36.8078 9.47467 36.3205 9.47467C35.8339 9.47467 35.4393 9.07021 35.4393 8.57154C35.4393 8.07217 35.8339 7.66771 36.3212 7.66771C36.8078 7.66771 37.2024 8.07146 37.2024 8.57083ZM39.4074 11.1577C39.4074 11.6563 39.0129 12.0608 38.5262 12.0608C38.0396 12.0608 37.6444 11.657 37.6444 11.1577C37.6444 10.659 38.0396 10.2545 38.5262 10.2545C39.0129 10.2545 39.4074 10.6583 39.4074 11.1577ZM41.4226 9.92658C41.4233 9.98519 41.4124 10.0433 41.3905 10.0977C41.3687 10.1521 41.3364 10.2017 41.2954 10.2436C41.2544 10.2855 41.2056 10.3189 41.1517 10.3419C41.0978 10.365 41.0399 10.3771 40.9813 10.3778C40.8631 10.3763 40.7503 10.3279 40.6677 10.2433C40.5851 10.1587 40.5394 10.0448 40.5407 9.92658C40.54 9.86798 40.5508 9.8098 40.5725 9.75537C40.5943 9.70095 40.6265 9.65133 40.6674 9.60937C40.7083 9.5674 40.7571 9.53391 40.811 9.51079C40.8648 9.48768 40.9227 9.47541 40.9813 9.47467C41.04 9.47531 41.0979 9.48752 41.1519 9.51059C41.2058 9.53366 41.2547 9.56714 41.2957 9.60912C41.3367 9.65109 41.369 9.70074 41.3908 9.75521C41.4125 9.80969 41.4234 9.86792 41.4226 9.92658ZM36.7618 10.7057C36.7625 10.7644 36.7517 10.8226 36.7299 10.8771C36.7081 10.9316 36.6758 10.9812 36.6348 11.0232C36.5939 11.0652 36.545 11.0987 36.491 11.1217C36.4371 11.1448 36.3791 11.157 36.3205 11.1577C36.2619 11.1569 36.204 11.1447 36.1501 11.1215C36.0963 11.0984 36.0475 11.0649 36.0066 11.023C35.9657 10.981 35.9334 10.9314 35.9117 10.877C35.89 10.8225 35.8792 10.7644 35.8799 10.7057C35.8786 10.5875 35.9242 10.4736 36.0068 10.389C36.0894 10.3044 36.2023 10.256 36.3205 10.2545C36.3791 10.2552 36.437 10.2674 36.4909 10.2904C36.5448 10.3134 36.5936 10.3468 36.6346 10.3887C36.6756 10.4306 36.7079 10.4802 36.7297 10.5346C36.7515 10.589 36.7624 10.6471 36.7618 10.7057ZM34.306 7.94254C34.3067 8.00115 34.2959 8.05932 34.2742 8.11375C34.2525 8.16818 34.2202 8.21779 34.1793 8.25976C34.1384 8.30172 34.0896 8.33522 34.0357 8.35833C33.9819 8.38144 33.924 8.39372 33.8654 8.39446C33.8067 8.39381 33.7488 8.3816 33.6948 8.35853C33.6409 8.33546 33.592 8.30198 33.551 8.26001C33.5101 8.21803 33.4777 8.16839 33.456 8.11391C33.4342 8.05944 33.4234 8.0012 33.4241 7.94254C33.4234 7.88388 33.4342 7.82564 33.456 7.77117C33.4777 7.7167 33.5101 7.66705 33.551 7.62508C33.592 7.5831 33.6409 7.54962 33.6948 7.52655C33.7488 7.50348 33.8067 7.49127 33.8654 7.49062C33.924 7.49136 33.9819 7.50364 34.0357 7.52675C34.0896 7.54986 34.1384 7.58336 34.1793 7.62533C34.2202 7.66729 34.2525 7.7169 34.2742 7.77133C34.2959 7.82576 34.3067 7.88394 34.306 7.94254ZM40.982 13.0794C40.9827 13.138 40.9718 13.1961 40.95 13.2505C40.9281 13.3049 40.8958 13.3545 40.8548 13.3964C40.8139 13.4383 40.765 13.4717 40.7111 13.4947C40.6572 13.5178 40.5993 13.5299 40.5407 13.5306C40.4225 13.5291 40.3097 13.4807 40.2271 13.3961C40.1445 13.3115 40.0988 13.1976 40.1001 13.0794C40.0994 13.0208 40.1102 12.9626 40.1319 12.9082C40.1537 12.8537 40.1859 12.8041 40.2268 12.7622C40.2677 12.7202 40.3165 12.6867 40.3704 12.6636C40.4242 12.6405 40.4821 12.6282 40.5407 12.6275C40.5994 12.6281 40.6574 12.6403 40.7113 12.6634C40.7652 12.6865 40.8141 12.7199 40.8551 12.7619C40.8961 12.8039 40.9284 12.8535 40.9502 12.908C40.9719 12.9625 40.9828 13.0207 40.982 13.0794ZM38.7139 13.5306C38.7147 13.5892 38.7039 13.6474 38.6822 13.7018C38.6604 13.7562 38.6282 13.8058 38.5873 13.8478C38.5463 13.8898 38.4976 13.9233 38.4437 13.9464C38.3898 13.9695 38.332 13.9818 38.2734 13.9825C38.1551 13.981 38.0423 13.9326 37.9597 13.848C37.8771 13.7634 37.8315 13.6495 37.8328 13.5313C37.832 13.4727 37.8428 13.4145 37.8646 13.3601C37.8863 13.3057 37.9185 13.256 37.9595 13.2141C38.0004 13.1721 38.0492 13.1386 38.103 13.1155C38.1569 13.0924 38.2148 13.0801 38.2734 13.0794C38.3916 13.0809 38.5044 13.1292 38.587 13.2138C38.6696 13.2984 38.7153 13.4123 38.7139 13.5306ZM43.826 16.6104C43.8267 16.669 43.8159 16.7272 43.7942 16.7816C43.7725 16.8361 43.7402 16.8857 43.6993 16.9276C43.6584 16.9696 43.6096 17.0031 43.5557 17.0262C43.5019 17.0493 43.444 17.0616 43.3854 17.0623C43.3268 17.0616 43.2689 17.0493 43.2151 17.0262C43.1612 17.0031 43.1124 16.9696 43.0715 16.9276C43.0306 16.8857 42.9983 16.8361 42.9766 16.7816C42.9549 16.7272 42.9441 16.669 42.9448 16.6104C42.9435 16.4922 42.9891 16.3783 43.0718 16.2937C43.1544 16.2091 43.2672 16.1607 43.3854 16.1592C43.5036 16.1607 43.6164 16.2091 43.699 16.2937C43.7817 16.3783 43.8273 16.4922 43.826 16.6104ZM42.1437 7.62379C42.145 7.74203 42.0994 7.85595 42.0168 7.94055C41.9341 8.02515 41.8213 8.07351 41.7031 8.075C41.5849 8.07351 41.4721 8.02515 41.3895 7.94055C41.3069 7.85595 41.2612 7.74203 41.2625 7.62379C41.2618 7.56519 41.2726 7.50701 41.2943 7.45258C41.3161 7.39815 41.3483 7.34854 41.3892 7.30657C41.4301 7.26461 41.4789 7.23111 41.5328 7.208C41.5866 7.18489 41.6445 7.17261 41.7031 7.17188C41.7617 7.17261 41.8196 7.18489 41.8735 7.208C41.9273 7.23111 41.9761 7.26461 42.017 7.30657C42.0579 7.34854 42.0902 7.39815 42.1119 7.45258C42.1336 7.50701 42.1444 7.56519 42.1437 7.62379ZM43.1091 11.8929C43.1091 12.2988 42.7883 12.6282 42.3916 12.6282C41.9957 12.6282 41.6748 12.2988 41.6748 11.8929C41.6748 11.487 41.9957 11.1577 42.3916 11.1577C42.7883 11.1577 43.1091 11.487 43.1091 11.8929ZM43.8267 8.73942C43.8267 9.14529 43.5051 9.47467 43.1091 9.47467C42.7132 9.47467 42.3923 9.14529 42.3923 8.73942C42.3923 8.33354 42.7125 8.00417 43.1091 8.00417C43.5058 8.00417 43.8267 8.33354 43.8267 8.73942ZM42.4157 15.1697C42.4157 15.5755 42.0948 15.9049 41.6989 15.9049C41.3022 15.9049 40.9813 15.5755 40.9813 15.1697C40.9813 14.7638 41.3029 14.4344 41.6989 14.4344C42.0955 14.4344 42.4157 14.7638 42.4157 15.1697ZM44.0442 13.9825C44.0449 14.0411 44.0341 14.0993 44.0124 14.1537C43.9906 14.2081 43.9584 14.2578 43.9175 14.2997C43.8766 14.3417 43.8278 14.3752 43.7739 14.3983C43.7201 14.4214 43.6622 14.4337 43.6036 14.4344C43.5449 14.4338 43.4869 14.4216 43.433 14.3985C43.3791 14.3754 43.3302 14.3419 43.2892 14.3C43.2482 14.258 43.2159 14.2083 43.1941 14.1539C43.1724 14.0994 43.1615 14.0412 43.1623 13.9825C43.1616 13.9239 43.1725 13.8657 43.1943 13.8113C43.2162 13.757 43.2485 13.7074 43.2895 13.6655C43.3304 13.6236 43.3793 13.5902 43.4332 13.5671C43.4871 13.5441 43.545 13.5319 43.6036 13.5313C43.7218 13.5328 43.8346 13.5811 43.9172 13.6657C43.9998 13.7503 44.0455 13.8643 44.0442 13.9825Z" fill="#DB1B24"/>
<path d="M40.3516 27.8751C43.2884 27.4437 45.8398 28.0011 47.5235 29.6848C49.2072 31.3686 49.7647 33.9207 49.3333 36.8567C51.7154 38.629 53.125 40.8269 53.125 43.2083C53.125 45.5898 51.7154 47.7877 49.3333 49.5593C49.7647 52.4967 49.2072 55.0481 47.5235 56.7318C45.8398 58.4156 43.2877 58.973 40.3509 58.5416C38.5801 60.9238 36.3814 62.3333 34 62.3333C31.6186 62.3333 29.4206 60.9238 27.6491 58.5416C24.7123 58.9737 22.1602 58.4156 20.4765 56.7318C18.7928 55.0481 18.2353 52.496 18.6667 49.5593C16.2846 47.7884 14.875 45.5898 14.875 43.2083C14.875 40.8269 16.2846 38.629 18.6667 36.8567C18.2353 33.9207 18.7928 31.3686 20.4765 29.6848C22.1602 28.0011 24.7123 27.4437 27.6484 27.8751C29.4206 25.4936 31.6186 24.0833 34 24.0833C36.3814 24.0833 38.5794 25.4929 40.3516 27.8751Z" fill="#DCA16A"/>
<path fill-rule="evenodd" clip-rule="evenodd" d="M40.9728 26.3755C43.8671 26.1134 46.597 26.7544 48.5251 28.6832C50.4538 30.612 51.0942 33.3412 50.8335 36.2355C53.0648 38.0984 54.5416 40.4812 54.5416 43.2083C54.5416 45.9361 53.0648 48.3189 50.8335 50.1812C51.0949 53.0754 50.4538 55.8053 48.5251 57.7334C46.5963 59.6622 43.8671 60.3032 40.9721 60.0419C39.1106 62.2731 36.7285 63.75 34 63.75C31.2729 63.75 28.8894 62.2731 27.0279 60.0419C24.1329 60.3032 21.4037 59.6622 19.4749 57.7334C17.5461 55.8046 16.9051 53.0754 17.1664 50.1812C14.9352 48.3182 13.4583 45.9354 13.4583 43.2083C13.4583 40.4805 14.9352 38.0977 17.1664 36.2355C16.9058 33.3412 17.5461 30.612 19.4749 28.6832C21.4037 26.7544 24.1329 26.1141 27.0271 26.3755C28.8894 24.1435 31.2729 22.6667 34 22.6667C36.7278 22.6667 39.1106 24.1435 40.9728 26.3755ZM40.3516 27.875C38.5794 25.4936 36.3814 24.0833 34 24.0833C31.6186 24.0833 29.4206 25.4929 27.6484 27.875C24.7116 27.4437 22.1602 28.0011 20.4765 29.6848C18.7928 31.3685 18.2353 33.9207 18.6667 36.8567C16.2846 38.6289 14.875 40.8269 14.875 43.2083C14.875 45.5897 16.2846 47.7877 18.6667 49.5592C18.2353 52.4967 18.7928 55.0481 20.4765 56.7318C22.1602 58.4155 24.7123 58.973 27.6491 58.5416C29.4199 60.9237 31.6186 62.3333 34 62.3333C36.3814 62.3333 38.5794 60.9237 40.3509 58.5416C43.2884 58.9737 45.8398 58.4155 47.5235 56.7318C49.2072 55.0481 49.7646 52.496 49.3333 49.5592C51.7154 47.7884 53.125 45.5897 53.125 43.2083C53.125 40.8269 51.7154 38.6289 49.3333 36.8567C49.7646 33.9207 49.2072 31.3685 47.5235 29.6848C45.8398 28.0011 43.2876 27.4437 40.3516 27.875Z" fill="#C38144"/>
<path fill-rule="evenodd" clip-rule="evenodd" d="M51.7084 42.5C51.8962 42.5 52.0764 42.5746 52.2092 42.7075C52.3421 42.8403 52.4167 43.0205 52.4167 43.2083C52.4167 45.5933 51.073 47.7204 48.9529 49.402C49.2632 52.0894 48.7093 54.5445 47.0227 56.2303C45.3362 57.9176 42.8811 58.4715 40.1937 58.1613C38.5121 60.2813 36.385 61.625 34 61.625C33.8122 61.625 33.632 61.5504 33.4992 61.4175C33.3663 61.2847 33.2917 61.1045 33.2917 60.9167C33.2917 60.7288 33.3663 60.5486 33.4992 60.4158C33.632 60.283 33.8122 60.2083 34 60.2083C35.9026 60.2083 37.7506 59.0828 39.3125 56.9833C39.3888 56.8807 39.4914 56.8006 39.6095 56.7516C39.7276 56.7026 39.8568 56.6865 39.9833 56.7049C42.573 57.0853 44.6753 56.5746 46.0211 55.2295C47.3663 53.8836 47.877 51.7813 47.4966 49.1923C47.478 49.0657 47.4941 48.9364 47.5431 48.8182C47.5921 48.6999 47.6722 48.5972 47.775 48.5208C49.8738 46.959 51 45.1109 51 43.2083C51 43.0205 51.0746 42.8403 51.2075 42.7075C51.3403 42.5746 51.5205 42.5 51.7084 42.5Z" fill="#CF945D"/>
<path fill-rule="evenodd" clip-rule="evenodd" d="M34 26.2083C32.0974 26.2083 30.2494 27.3346 28.6875 29.4334C28.6111 29.5361 28.5084 29.6162 28.3902 29.6653C28.2719 29.7143 28.1426 29.7303 28.016 29.7117C25.427 29.3314 23.3247 29.8428 21.9789 31.1879C20.6344 32.533 20.123 34.6354 20.5034 37.2243C20.522 37.351 20.5059 37.4803 20.4569 37.5985C20.4079 37.7167 20.3278 37.8195 20.225 37.8958C18.1262 39.4577 17 41.3057 17 43.2083C17 43.3962 16.9254 43.5764 16.7925 43.7092C16.6597 43.842 16.4795 43.9167 16.2916 43.9167C16.1038 43.9167 15.9236 43.842 15.7908 43.7092C15.6579 43.5764 15.5833 43.3962 15.5833 43.2083C15.5833 40.8234 16.9277 38.6962 19.0471 37.0147C18.7368 34.3272 19.2914 31.8722 20.9773 30.1863C22.6638 28.4998 25.1189 27.9459 27.8056 28.2554C29.4879 26.1361 31.6157 24.7917 34 24.7917C34.1878 24.7917 34.368 24.8663 34.5008 24.9991C34.6337 25.132 34.7083 25.3121 34.7083 25.5C34.7083 25.6879 34.6337 25.868 34.5008 26.0009C34.368 26.1337 34.1878 26.2083 34 26.2083Z" fill="#F0B57F"/>
<path d="M38.7047 31.8502C40.88 31.5314 42.7706 31.9437 44.0172 33.1911C45.2646 34.4377 45.6776 36.329 45.3581 38.5036C47.1219 39.8161 48.1666 41.4446 48.1666 43.2083C48.1666 44.9721 47.1219 46.6012 45.3581 47.9131C45.6769 50.0884 45.2646 51.9789 44.0172 53.2256C42.7706 54.4729 40.88 54.8859 38.7047 54.5665C37.3922 56.3302 35.7637 57.375 34 57.375C32.2362 57.375 30.6078 56.3302 29.2952 54.5665C27.1199 54.8859 25.2294 54.4729 23.9827 53.2256C22.7354 51.9789 22.3224 50.0884 22.6419 47.9131C20.8781 46.6005 19.8333 44.9721 19.8333 43.2083C19.8333 41.4446 20.8781 39.8154 22.6419 38.5036C22.3231 36.3283 22.7354 34.4377 23.9827 33.1911C25.2294 31.9444 27.1199 31.5307 29.2952 31.8502C30.6078 30.0864 32.2362 29.0417 34 29.0417C35.7637 29.0417 37.3929 30.0864 38.7047 31.8502Z" fill="#F7BA82"/>
<path fill-rule="evenodd" clip-rule="evenodd" d="M23.9828 53.2256C22.7354 51.9789 22.3224 50.0884 22.6419 47.9131C20.8781 46.6005 19.8334 44.9721 19.8334 43.2083C19.8334 41.4446 20.8781 39.8154 22.6419 38.5036C22.3231 36.3283 22.7354 34.4378 23.9828 33.1911C25.2294 31.9444 27.12 31.5308 29.2953 31.8502C30.6078 30.0865 32.2363 29.0417 34 29.0417C35.7638 29.0417 37.3929 30.0865 38.7048 31.8502C40.8801 31.5315 42.7706 31.9437 44.0173 33.1911C45.2646 34.4378 45.6776 36.329 45.3581 38.5036C47.1219 39.8161 48.1667 41.4446 48.1667 43.2083C48.1667 44.9721 47.1219 46.6012 45.3581 47.9131C45.6769 50.0884 45.2646 51.9789 44.0173 53.2256C42.7706 54.473 40.8801 54.8859 38.7048 54.5665C37.3922 56.3302 35.7638 57.375 34 57.375C32.2363 57.375 30.6078 56.3302 29.2953 54.5665C27.12 54.8859 25.2294 54.473 23.9828 53.2256ZM28.6776 56.0589C26.5299 56.2147 24.4666 55.7132 22.9812 54.2279C21.4951 52.7418 20.9943 50.6784 21.1494 48.5308C19.5217 47.1226 18.4167 45.3092 18.4167 43.2083C18.4167 41.1074 19.5217 39.2941 21.1494 37.8852C20.9943 35.739 21.4951 33.6749 22.9812 32.1895C24.4666 30.7034 26.5299 30.2026 28.6769 30.3578C30.0858 28.73 31.8991 27.625 34 27.625C36.1016 27.625 37.9143 28.73 39.3231 30.3578C41.4694 30.2026 43.5335 30.7034 45.0189 32.1895C46.5049 33.6749 47.0057 35.7383 46.8506 37.8852C48.4784 39.2941 49.5834 41.1081 49.5834 43.2083C49.5834 45.3092 48.4784 47.1226 46.8506 48.5308C47.0057 50.6784 46.5049 52.7418 45.0189 54.2279C43.5335 55.7132 41.4701 56.214 39.3224 56.0589C37.9143 57.6867 36.1009 58.7917 34 58.7917C31.8991 58.7917 30.0858 57.6867 28.6776 56.0589Z" fill="#C28044"/>
<path fill-rule="evenodd" clip-rule="evenodd" d="M46.75 42.5C46.9379 42.5 47.1181 42.5746 47.2509 42.7075C47.3837 42.8403 47.4584 43.0205 47.4584 43.2083C47.4584 44.9721 46.4823 46.5304 44.9749 47.7544C45.1754 49.6853 44.7639 51.4774 43.5165 52.7248C42.2691 53.9722 40.4777 54.3837 38.5461 54.184C37.3221 55.6899 35.7638 56.6667 34 56.6667C33.8122 56.6667 33.632 56.592 33.4992 56.4592C33.3663 56.3264 33.2917 56.1462 33.2917 55.9583C33.2917 55.7705 33.3663 55.5903 33.4992 55.4575C33.632 55.3246 33.8122 55.25 34 55.25C35.2849 55.25 36.5635 54.49 37.6656 53.0081C37.742 52.9054 37.8447 52.8252 37.963 52.7762C38.0812 52.7272 38.2105 52.7112 38.3371 52.7298C40.1646 52.9982 41.6061 52.632 42.5149 51.7232C43.4237 50.8144 43.7899 49.373 43.5214 47.5455C43.5028 47.4189 43.5187 47.2896 43.5676 47.1714C43.6165 47.0532 43.6965 46.9504 43.7991 46.874C45.2816 45.7725 46.0417 44.494 46.0417 43.2083C46.0417 43.0205 46.1163 42.8403 46.2492 42.7075C46.382 42.5746 46.5622 42.5 46.75 42.5Z" fill="#E5A66C"/>
<path fill-rule="evenodd" clip-rule="evenodd" d="M34 31.1667C32.7151 31.1667 31.4366 31.9267 30.3344 33.4093C30.258 33.5119 30.1552 33.5919 30.037 33.6408C29.9187 33.6896 29.7895 33.7056 29.6629 33.6869C27.8354 33.4185 26.3939 33.7854 25.4851 34.6935C24.5771 35.6023 24.2101 37.0437 24.4786 38.8712C24.4973 38.9978 24.4813 39.127 24.4324 39.2453C24.3835 39.3635 24.3035 39.4663 24.2009 39.5427C22.7184 40.6442 21.9584 41.9227 21.9584 43.2083C21.9584 43.3962 21.8837 43.5764 21.7509 43.7092C21.618 43.842 21.4379 43.9167 21.25 43.9167C21.0622 43.9167 20.882 43.842 20.7492 43.7092C20.6163 43.5764 20.5417 43.3962 20.5417 43.2083C20.5417 41.4446 21.5178 39.8863 23.0251 38.6623C22.8246 36.7313 23.2362 34.9392 24.4836 33.6919C25.7309 32.4445 27.5223 32.033 29.4539 32.2327C30.6779 30.7268 32.2356 29.75 34 29.75C34.1879 29.75 34.3681 29.8246 34.5009 29.9575C34.6337 30.0903 34.7084 30.2705 34.7084 30.4583C34.7084 30.6462 34.6337 30.8264 34.5009 30.9592C34.3681 31.092 34.1879 31.1667 34 31.1667Z" fill="#FFD5AE"/>
<path d="M32.3035 41.7697H33.5821C34.1912 41.7697 34.6417 41.6174 34.935 41.3128C35.2282 41.0082 35.3749 40.6045 35.3749 40.1016C35.3749 39.6142 35.2282 39.2353 34.9357 38.964C34.6474 38.6927 34.2486 38.5574 33.74 38.5574C33.2803 38.5574 32.8957 38.6849 32.5855 38.9392C32.2759 39.1878 32.1215 39.5144 32.1215 39.9188H29.7217C29.7217 39.2877 29.8902 38.7232 30.2281 38.2252C30.571 37.7216 31.047 37.3285 31.6554 37.0465C32.2702 36.7639 32.9446 36.623 33.6812 36.623C34.9591 36.623 35.9607 36.9304 36.686 37.5438C37.4106 38.153 37.7733 38.9945 37.7733 40.0676C37.7733 40.6215 37.6047 41.1301 37.2668 41.5955C36.9259 42.0628 36.4678 42.4319 35.9387 42.6657C36.6194 42.9094 37.1259 43.2749 37.4581 43.7615C37.7952 44.2489 37.9645 44.824 37.9645 45.4885C37.9645 46.5616 37.5714 47.4222 36.7859 48.0696C36.0053 48.717 34.9704 49.0407 33.6812 49.0407C32.475 49.0407 31.4868 48.7227 30.7176 48.0866C29.954 47.4498 29.5722 46.609 29.5722 45.5628H31.9713C31.9713 46.0162 32.1399 46.3873 32.4778 46.6749C32.8206 46.9632 33.2414 47.107 33.7386 47.107C34.3095 47.107 34.7544 46.9575 35.076 46.6586C35.4018 46.354 35.5647 45.9531 35.5647 45.4545C35.5647 44.2489 34.901 43.6454 33.5729 43.6454H32.3028V41.7704L32.3035 41.7697Z" fill="#FFD5AE"/>
<path fill-rule="evenodd" clip-rule="evenodd" d="M30.9549 41.3348H29.7224C29.3467 41.3348 28.9863 41.1855 28.7206 40.9199C28.455 40.6542 28.3057 40.2939 28.3057 39.9181C28.3057 39.0185 28.5515 38.1749 29.0565 37.4305L29.058 37.4276C29.5595 36.691 30.2437 36.1399 31.0604 35.7609L31.0647 35.7588C31.8807 35.3841 32.7597 35.2063 33.682 35.2063C35.178 35.2063 36.5429 35.5675 37.6005 36.4615C38.6892 37.3773 39.1907 38.6396 39.1907 40.0676C39.1918 40.9172 38.9196 41.7447 38.4143 42.4278C38.3816 42.4727 38.348 42.5171 38.3138 42.5609C38.425 42.6856 38.5298 42.818 38.6254 42.959C39.1453 43.7098 39.3819 44.574 39.3819 45.4878C39.3819 46.9576 38.8202 48.229 37.689 49.1612C36.5925 50.0707 35.2091 50.4574 33.682 50.4574C32.2171 50.4574 30.8883 50.0657 29.8152 49.1782L29.8116 49.1746C28.7066 48.2538 28.1562 47.0043 28.1562 45.5628C28.1562 45.1871 28.3055 44.8268 28.5712 44.5611C28.8369 44.2954 29.1972 44.1462 29.5729 44.1462H30.9783C30.9177 43.9862 30.8868 43.8165 30.8869 43.6454V41.7704C30.8869 41.6188 30.911 41.4722 30.9549 41.3348ZM33.2973 45.062C33.3614 45.2307 33.3927 45.4101 33.3894 45.5905C33.3908 45.5917 33.3922 45.5929 33.3937 45.594C33.4525 45.6422 33.5403 45.6903 33.74 45.6903C33.903 45.6903 34.0007 45.6691 34.051 45.6514C34.0726 45.6461 34.0928 45.6364 34.1105 45.623M33.2973 45.062H33.5736C33.9256 45.062 34.0694 45.123 34.1084 45.1435L34.1119 45.1513C34.1413 45.2498 34.154 45.3525 34.1495 45.4552C34.1516 45.5058 34.1439 45.5563 34.1268 45.6039C34.122 45.6106 34.1165 45.6175 34.1105 45.623M36.7866 48.0696C37.5721 47.4222 37.9653 46.5616 37.9653 45.4885C37.9653 44.824 37.796 44.2489 37.4588 43.7615C37.4039 43.6814 37.3443 43.6045 37.2803 43.5313C36.9552 43.1581 36.5082 42.8698 35.9394 42.6658C36.4683 42.4316 36.9263 42.0625 37.2675 41.5955C37.5973 41.1544 37.7751 40.6183 37.774 40.0676C37.774 38.9945 37.4113 38.153 36.6867 37.5445C35.9621 36.9304 34.9598 36.6237 33.682 36.6237C32.9453 36.6237 32.271 36.7639 31.6561 37.0465C31.0477 37.3285 30.5724 37.7216 30.2288 38.2252C29.8927 38.7253 29.7161 39.3156 29.7224 39.9181H32.1215C32.1215 39.5144 32.2759 39.1885 32.5862 38.9392C32.8957 38.6842 33.2803 38.5567 33.74 38.5567C34.2493 38.5567 34.6474 38.6927 34.935 38.964C35.2283 39.2353 35.3749 39.6143 35.3749 40.1009C35.3749 40.6045 35.2282 41.009 34.9357 41.3128C34.6417 41.6174 34.1912 41.7697 33.5828 41.7697H32.3035V43.6454H33.5736C34.9017 43.6454 35.5661 44.2489 35.5661 45.4552C35.5661 45.9531 35.4032 46.3548 35.0767 46.6593C34.7551 46.9576 34.3095 47.107 33.74 47.107C33.2421 47.107 32.8213 46.9632 32.4785 46.6749C32.1406 46.3873 31.972 46.0162 31.972 45.5628H29.5729C29.5729 46.087 29.6685 46.5588 29.8598 46.9795C30.051 47.3995 30.3372 47.7686 30.7183 48.0866C31.4875 48.7227 32.475 49.0408 33.682 49.0408C34.9711 49.0408 36.006 48.7163 36.7866 48.0696ZM33.4702 40.3538C33.5056 40.2426 33.5283 40.1257 33.5353 40.0045C33.601 39.9816 33.6705 39.9715 33.74 39.9748C33.8534 39.9748 33.9193 39.9875 33.9511 39.9968C33.9554 40.0187 33.9582 40.0534 33.9582 40.1016C33.9608 40.1732 33.9505 40.2447 33.9277 40.3127C33.8154 40.3443 33.6987 40.3582 33.5821 40.3538H33.4702Z" fill="#C28044"/>
</svg>
