<svg width="16" height="15" viewBox="0 0 16 15" fill="none" xmlns="http://www.w3.org/2000/svg">
<path d="M5.87491 13.876V12.4569M8.00014 13.874V12.4573M10.1249 13.876V12.4569M12.2501 13.874V12.4573M11.5417 1.1239V2.50796M9.41674 1.1239V2.54057M7.29174 1.1239V2.54057M10.125 9.6239L14.1675 5.58136C14.3003 5.44852 14.375 5.26836 14.375 5.0805V1.83223C14.375 1.44104 14.0579 1.1239 13.6667 1.1239H2.33333C1.94213 1.1239 1.625 1.44104 1.625 1.83223V4.66557C1.625 5.05677 1.94213 5.3739 2.33333 5.3739H14.3108" stroke="white" stroke-width="1.5" stroke-linecap="round" stroke-linejoin="round"/>
<path d="M3.81454 9.6239H13.6667C14.0579 9.6239 14.375 9.94102 14.375 10.3322V13.1656C14.375 13.5568 14.0579 13.8739 13.6667 13.8739H4.45833C4.06713 13.8739 3.75 13.5568 3.75 13.1656V9.91729C3.75 9.72944 3.82463 9.54924 3.95746 9.41643L8 5.3739M4.8125 1.1239V5.3739" stroke="white" stroke-width="1.5" stroke-linecap="round" stroke-linejoin="round"/>
</svg>
