<svg width="21" height="20" viewBox="0 0 21 20" fill="none" xmlns="http://www.w3.org/2000/svg">
<path d="M10.3741 0C15.8877 0 20.3736 4.48589 20.3736 9.99957C20.3736 12.1995 19.6728 14.2785 18.345 16.028C18.8247 17.2404 19.5564 18.337 20.4919 19.2453C20.5547 19.3052 20.5981 19.3827 20.6164 19.4676C20.6348 19.5525 20.6272 19.641 20.5947 19.7215C20.5622 19.8021 20.5063 19.871 20.4341 19.9194C20.362 19.9678 20.277 19.9935 20.1901 19.993H20.1841C18.4858 19.9676 16.8222 19.5094 15.3504 18.6618C13.8375 19.537 12.1209 19.9985 10.3732 20C4.85951 20 0.373617 15.5141 0.373617 10.0004C0.374487 4.48589 4.86125 0 10.3741 0ZM10.3741 19.1296C12.0444 19.1296 13.687 18.6644 15.1243 17.7844C15.1925 17.7424 15.2711 17.7202 15.3512 17.7202C15.4314 17.7202 15.5099 17.7424 15.5782 17.7844C16.6605 18.446 17.8687 18.8751 19.1258 19.0444C18.4042 18.165 17.8355 17.1706 17.4433 16.1028C17.4176 16.0328 17.4105 15.9573 17.4225 15.8838C17.4345 15.8102 17.4654 15.741 17.512 15.6828C18.807 14.0723 19.5102 12.0662 19.5041 9.99957C19.5041 4.965 15.4086 0.869527 10.3741 0.869527C5.33949 0.869527 1.24401 4.965 1.24401 9.99957C1.24401 15.0341 5.33949 19.1296 10.3741 19.1296Z" fill="#6645AB"/>
<path d="M4.6352 6.88672H16.113C16.2283 6.88672 16.3389 6.93252 16.4204 7.01406C16.5019 7.09559 16.5477 7.20618 16.5477 7.32148C16.5477 7.43679 16.5019 7.54737 16.4204 7.62891C16.3389 7.71044 16.2283 7.75625 16.113 7.75625H4.6352C4.5199 7.75625 4.40932 7.71044 4.32778 7.62891C4.24625 7.54737 4.20044 7.43679 4.20044 7.32148C4.20044 7.20618 4.24625 7.09559 4.32778 7.01406C4.40932 6.93252 4.5199 6.88672 4.6352 6.88672ZM4.6352 9.94746H16.113C16.2283 9.94746 16.3389 9.99326 16.4204 10.0748C16.5019 10.1563 16.5477 10.2669 16.5477 10.3822C16.5477 10.4975 16.5019 10.6081 16.4204 10.6896C16.3389 10.7712 16.2283 10.817 16.113 10.817H4.6352C4.5199 10.817 4.40932 10.7712 4.32778 10.6896C4.24625 10.6081 4.20044 10.4975 4.20044 10.3822C4.20044 10.2669 4.24625 10.1563 4.32778 10.0748C4.40932 9.99326 4.5199 9.94746 4.6352 9.94746ZM4.6352 13.0082H16.113C16.2283 13.0082 16.3389 13.054 16.4204 13.1355C16.5019 13.2171 16.5477 13.3276 16.5477 13.443C16.5477 13.5583 16.5019 13.6688 16.4204 13.7504C16.3389 13.8319 16.2283 13.8777 16.113 13.8777H4.6352C4.5199 13.8777 4.40932 13.8319 4.32778 13.7504C4.24625 13.6688 4.20044 13.5583 4.20044 13.443C4.20044 13.3276 4.24625 13.2171 4.32778 13.1355C4.40932 13.054 4.5199 13.0082 4.6352 13.0082Z" fill="#6645AB"/>
</svg>
