<svg width="24" height="25" viewBox="0 0 24 25" fill="none" xmlns="http://www.w3.org/2000/svg">
<path d="M23.4286 0.5H7.42857C7.27702 0.5 7.13167 0.557467 7.02451 0.65976C6.91735 0.762052 6.85714 0.900791 6.85714 1.04545V20.6818C6.85714 21.4051 6.55612 22.0988 6.02031 22.6103C5.48449 23.1218 4.75776 23.4091 4 23.4091C3.24224 23.4091 2.51551 23.1218 1.97969 22.6103C1.44388 22.0988 1.14286 21.4051 1.14286 20.6818V10.8636H1.71429V9.77273H0.571429C0.419876 9.77273 0.274531 9.83019 0.167368 9.93249C0.0602039 10.0348 0 10.1735 0 10.3182V20.6818C0 21.6945 0.421427 22.6656 1.17157 23.3817C1.92172 24.0977 2.93913 24.5 4 24.5H20C21.0609 24.5 22.0783 24.0977 22.8284 23.3817C23.5786 22.6656 24 21.6945 24 20.6818V1.04545C24 0.900791 23.9398 0.762052 23.8326 0.65976C23.7255 0.557467 23.5801 0.5 23.4286 0.5ZM22.8571 20.6818C22.8571 21.4051 22.5561 22.0988 22.0203 22.6103C21.4845 23.1218 20.7578 23.4091 20 23.4091H6.79429C7.17533 23.054 7.47825 22.6299 7.6853 22.1615C7.89234 21.6932 7.99933 21.1901 8 20.6818V1.59091H22.8571V20.6818ZM2.28571 20.6818V8.68182C2.28571 8.53716 2.34592 8.39842 2.45308 8.29612C2.56025 8.19383 2.70559 8.13636 2.85714 8.13636H4V9.22727H3.42857V20.6818C3.42857 20.8265 3.48878 20.9652 3.59594 21.0675C3.7031 21.1698 3.84845 21.2273 4 21.2273C4.15155 21.2273 4.2969 21.1698 4.40406 21.0675C4.51122 20.9652 4.57143 20.8265 4.57143 20.6818V6.5C4.57143 6.35534 4.63163 6.2166 4.7388 6.11431C4.84596 6.01201 4.9913 5.95455 5.14286 5.95455H6.28571V7.04545H5.71429V20.6818C5.71429 21.1158 5.53367 21.532 5.21218 21.8389C4.89069 22.1458 4.45466 22.3182 4 22.3182C3.54534 22.3182 3.10931 22.1458 2.78782 21.8389C2.46633 21.532 2.28571 21.1158 2.28571 20.6818ZM10.8571 8.13636H20C20.1516 8.13636 20.2969 8.0789 20.4041 7.9766C20.5112 7.87431 20.5714 7.73557 20.5714 7.59091V4.31818C20.5714 4.17352 20.5112 4.03478 20.4041 3.93249C20.2969 3.83019 20.1516 3.77273 20 3.77273H10.8571C10.7056 3.77273 10.5602 3.83019 10.4531 3.93249C10.3459 4.03478 10.2857 4.17352 10.2857 4.31818V7.59091C10.2857 7.73557 10.3459 7.87431 10.4531 7.9766C10.5602 8.0789 10.7056 8.13636 10.8571 8.13636ZM11.4286 4.86364H19.4286V7.04545H11.4286V4.86364ZM13.1429 13.5909V13.0455H11.4286C11.277 13.0455 11.1317 12.988 11.0245 12.8857C10.9173 12.7834 10.8571 12.6447 10.8571 12.5V10.8636C10.8571 10.719 10.9173 10.5802 11.0245 10.4779C11.1317 10.3756 11.277 10.3182 11.4286 10.3182H12V9.77273H13.1429V10.3182H14.2857V11.4091H12V11.9545H13.7143C13.8658 11.9545 14.0112 12.012 14.1183 12.1143C14.2255 12.2166 14.2857 12.3553 14.2857 12.5V14.1364C14.2857 14.281 14.2255 14.4198 14.1183 14.5221C14.0112 14.6244 13.8658 14.6818 13.7143 14.6818H13.1429V15.2273H12V14.6818H10.8571V13.5909H13.1429ZM15.4286 10.3182H20.5714V11.4091H15.4286V10.3182ZM15.4286 13.5909H20.5714V14.6818H15.4286V13.5909ZM10.8571 16.8636H20.5714V17.9545H10.8571V16.8636ZM10.8571 20.1364H20.5714V21.2273H10.8571V20.1364Z" fill="white"/>
</svg>
