<svg width="49" height="49" viewBox="0 0 49 49" fill="none" xmlns="http://www.w3.org/2000/svg">
<rect x="0.800049" y="0.800049" width="48" height="48" rx="24" fill="#F3F4F6"/>
<path d="M21.05 24.8H28.55" stroke="#9DA4AE" stroke-width="1.5" stroke-linecap="square" stroke-linejoin="round"/>
<path d="M21.05 28.55H28.55" stroke="#9DA4AE" stroke-width="1.5" stroke-linecap="square" stroke-linejoin="round"/>
<path d="M16.3625 14.4875H33.2375C33.4861 14.4875 33.7246 14.5863 33.9004 14.7621C34.0762 14.9379 34.175 15.1764 34.175 15.425V33.2375C34.175 33.9834 33.8787 34.6988 33.3512 35.2262C32.8238 35.7537 32.1084 36.05 31.3625 36.05H18.2375C17.4916 36.05 16.7763 35.7537 16.2488 35.2262C15.7214 34.6988 15.425 33.9834 15.425 33.2375V15.425C15.425 15.1764 15.5238 14.9379 15.6996 14.7621C15.8754 14.5863 16.1139 14.4875 16.3625 14.4875Z" stroke="#9DA4AE" stroke-width="1.5" stroke-linecap="square" stroke-linejoin="round"/>
<path d="M19.175 12.6125V16.3625" stroke="#9DA4AE" stroke-width="1.5" stroke-linecap="square" stroke-linejoin="round"/>
<path d="M24.8 12.6125V16.3625" stroke="#9DA4AE" stroke-width="1.5" stroke-linecap="square" stroke-linejoin="round"/>
<path d="M30.425 12.6125V16.3625" stroke="#9DA4AE" stroke-width="1.5" stroke-linecap="square" stroke-linejoin="round"/>
</svg>
