<svg width="14" height="15" viewBox="0 0 14 15" fill="none" xmlns="http://www.w3.org/2000/svg">
<path d="M6.9375 9.64999L7.84375 8.74374L6.65625 7.55624L5.75 8.46249V8.89999H6.5V9.64999H6.9375ZM10.3672 4.28281C10.4557 4.19426 10.4583 4.10833 10.375 4.02499C10.2917 3.94166 10.2057 3.94426 10.1172 4.03281L7.38281 6.76718C7.29427 6.85572 7.29167 6.94166 7.375 7.02499C7.45833 7.10833 7.54427 7.10572 7.63281 7.01718L10.3672 4.28281ZM11 8.66562V10.15C11 10.7698 10.7799 11.2997 10.3398 11.7398C9.89974 12.1799 9.36979 12.4 8.75 12.4H2.25C1.63021 12.4 1.10026 12.1799 0.660156 11.7398C0.220052 11.2997 0 10.7698 0 10.15V3.64999C0 3.0302 0.220052 2.50025 0.660156 2.06015C1.10026 1.62005 1.63021 1.39999 2.25 1.39999H8.75C9.07812 1.39999 9.38281 1.4651 9.66406 1.59531C9.74219 1.63176 9.78906 1.69166 9.80469 1.77499C9.82031 1.86354 9.79688 1.93906 9.73438 2.00156L9.35156 2.38437C9.27865 2.45729 9.19531 2.47812 9.10156 2.44687C8.98177 2.41562 8.86458 2.39999 8.75 2.39999H2.25C1.90625 2.39999 1.61198 2.52239 1.36719 2.76718C1.1224 3.01197 1 3.30624 1 3.64999V10.15C1 10.4937 1.1224 10.788 1.36719 11.0328C1.61198 11.2776 1.90625 11.4 2.25 11.4H8.75C9.09375 11.4 9.38802 11.2776 9.63281 11.0328C9.8776 10.788 10 10.4937 10 10.15V9.16562C10 9.09791 10.0234 9.04062 10.0703 8.99374L10.5703 8.49374C10.6484 8.41562 10.7396 8.39739 10.8438 8.43906C10.9479 8.48072 11 8.55624 11 8.66562ZM10.25 2.89999L12.5 5.14999L7.25 10.4H5V8.14999L10.25 2.89999ZM13.7188 3.93124L13 4.64999L10.75 2.39999L11.4688 1.68124C11.6146 1.53541 11.7917 1.46249 12 1.46249C12.2083 1.46249 12.3854 1.53541 12.5312 1.68124L13.7188 2.86874C13.8646 3.01458 13.9375 3.19166 13.9375 3.39999C13.9375 3.60833 13.8646 3.78541 13.7188 3.93124Z" fill="#3C8DBC"/>
</svg>
