<svg width="24" height="24" viewBox="0 0 24 24" fill="none" xmlns="http://www.w3.org/2000/svg">
<path fill-rule="evenodd" clip-rule="evenodd" d="M0.475254 0.000678944C0.342749 0.00759744 0.218303 0.0692 0.129293 0.171934C0.0402829 0.274669 -0.0060005 0.41012 0.000624733 0.54849C0.00724997 0.68686 0.0662411 0.816814 0.164621 0.909764C0.263001 1.00271 0.39271 1.05105 0.525215 1.04413H3.1082L6.02991 17.3157C6.05179 17.435 6.11288 17.5426 6.20263 17.62C6.29238 17.6973 6.40517 17.7395 6.52153 17.7393H21.5878C21.5924 17.7401 21.5971 17.7408 21.6018 17.7414C21.6184 17.7416 21.6351 17.7409 21.6517 17.7393H21.8146C22.51 17.7393 23.0007 18.2297 23.0007 18.7828C23.0007 19.3358 22.51 19.8262 21.8136 19.8262H6.41961C6.28711 19.8262 6.16003 19.8812 6.06633 19.979C5.97264 20.0769 5.92 20.2096 5.92 20.3479C5.92 20.4863 5.97264 20.619 6.06633 20.7168C6.16003 20.8147 6.28711 20.8697 6.41961 20.8697H21.8146C22.9867 20.8697 23.9999 19.965 23.9999 18.7828C23.9999 17.7268 23.1905 16.8962 22.1813 16.7303L23.9939 4.77967C24.0051 4.70519 24.0008 4.62904 23.9812 4.55647C23.9616 4.4839 23.9271 4.41664 23.8802 4.35932C23.8333 4.30199 23.775 4.25597 23.7094 4.22442C23.6438 4.19287 23.5725 4.17654 23.5003 4.17656H4.68696L4.01349 0.426406C3.99209 0.307026 3.93148 0.199183 3.8421 0.121467C3.75272 0.0437521 3.64018 0.00103445 3.52387 0.000678944H0.526214C0.509238 -0.000226315 0.49223 -0.000226315 0.475254 0.000678944ZM19.5034 20.8697C18.681 20.8697 18.0046 21.5761 18.0046 22.4348C18.0046 23.2936 18.681 24 19.5034 24C20.3257 24 21.0022 23.2936 21.0022 22.4348C21.0022 21.5761 20.3257 20.8697 19.5034 20.8697ZM9.5112 20.8697C8.68884 20.8697 8.01237 21.5761 8.01237 22.4348C8.01237 23.2936 8.68884 24 9.5112 24C10.3336 24 11.01 23.2936 11.01 22.4348C11.01 21.5761 10.3336 20.8697 9.5112 20.8697ZM4.87482 5.22001H8.05334L8.2192 7.30482H5.24853L4.87482 5.22001ZM9.05455 5.22001H12.0092V7.30482H9.22042L9.05455 5.22001ZM13.0085 5.22001H15.0069V7.30482H13.0085V5.22001ZM16.0061 5.22001H18.9608L18.7949 7.30482H16.0061V5.22001ZM19.962 5.22001H22.9147L22.599 7.30482H19.7962L19.962 5.22001ZM5.43638 8.34827H8.30314L8.46901 10.4352H5.81109L5.43638 8.34827ZM9.30436 8.34827H12.0092V10.4352H9.47023L9.30436 8.34827ZM13.0085 8.34827H15.0069V10.4352H13.0085V8.34827ZM16.0061 8.34827H18.711L18.5451 10.4352H16.0061V8.34827ZM19.7122 8.34827H22.4401L22.1243 10.4352H19.5464L19.7122 8.34827ZM5.99794 11.4786H8.55294L8.71881 13.5655H6.37265L5.99794 11.4786ZM9.55416 11.4786H12.0092V13.5655H9.72003L9.55416 11.4786ZM13.0085 11.4786H15.0069V13.5655H13.0085V11.4786ZM16.0061 11.4786H18.4612L18.2953 13.5655H16.0061V11.4786ZM19.4624 11.4786H21.9665L21.6497 13.5655H19.2966L19.4624 11.4786ZM6.5605 14.609H8.80075L8.96862 16.6959H6.93521L6.5605 14.609ZM9.80397 14.609H12.0092V16.6959H9.96984L9.80397 14.609ZM13.0085 14.609H15.0069V16.6959H13.0085V14.609ZM16.0061 14.609H18.2114L18.0455 16.6959H16.0061V14.609ZM19.2136 14.609H21.4918L21.1741 16.6959H19.0467L19.2146 14.609H19.2136ZM9.5112 21.9131C9.79298 21.9131 10.0108 22.1406 10.0108 22.4348C10.0108 22.7291 9.79298 22.9566 9.5112 22.9566C9.44533 22.9575 9.37994 22.9447 9.31889 22.9188C9.25785 22.893 9.2024 22.8546 9.15582 22.8059C9.10924 22.7573 9.07247 22.6994 9.0477 22.6356C9.02292 22.5719 9.01064 22.5036 9.01159 22.4348C9.01159 22.1406 9.22942 21.9131 9.5112 21.9131ZM19.5034 21.9131C19.7852 21.9131 20.003 22.1406 20.003 22.4348C20.003 22.7291 19.7852 22.9566 19.5034 22.9566C19.4375 22.9575 19.3721 22.9447 19.3111 22.9188C19.25 22.893 19.1946 22.8546 19.148 22.8059C19.1014 22.7573 19.0647 22.6994 19.0399 22.6356C19.0151 22.5719 19.0028 22.5036 19.0038 22.4348C19.0038 22.1406 19.2216 21.9131 19.5034 21.9131Z" fill="#6645AB"/>
</svg>
