<svg width="22" height="18" viewBox="0 0 22 18" fill="none" xmlns="http://www.w3.org/2000/svg">
<g clip-path="url(#clip0_1322_283)">
<path d="M12.6 9.75H9.4C9.17909 9.75 9 9.91281 9 10.1136V17.3864C9 17.5872 9.17909 17.75 9.4 17.75H12.6C12.8209 17.75 13 17.5872 13 17.3864V10.1136C13 9.91281 12.8209 9.75 12.6 9.75Z" fill="white"/>
<path d="M16.7 7.75H14.3C14.1343 7.75 14 7.9099 14 8.10714V17.3929C14 17.5901 14.1343 17.75 14.3 17.75H16.7C16.8657 17.75 17 17.5901 17 17.3929V8.10714C17 7.9099 16.8657 7.75 16.7 7.75Z" fill="white"/>
<path d="M21.6 3.75H18.4C18.1791 3.75 18 3.91072 18 4.10897V17.391C18 17.5893 18.1791 17.75 18.4 17.75H21.6C21.8209 17.75 22 17.5893 22 17.391V4.10897C22 3.91072 21.8209 3.75 21.6 3.75Z" fill="white"/>
<path d="M7.7 7.75H5.3C5.13431 7.75 5 7.91582 5 8.12037V17.3796C5 17.5842 5.13431 17.75 5.3 17.75H7.7C7.86569 17.75 8 17.5842 8 17.3796V8.12037C8 7.91582 7.86569 7.75 7.7 7.75Z" fill="white"/>
<path d="M3.6 10.75H0.4C0.179086 10.75 0 10.9241 0 11.1389V17.3611C0 17.5759 0.179086 17.75 0.4 17.75H3.6C3.82091 17.75 4 17.5759 4 17.3611V11.1389C4 10.9241 3.82091 10.75 3.6 10.75Z" fill="white"/>
<path d="M11 9.375C10.9137 9.375 10.8312 9.34501 10.76 9.28876L6.47373 5.71875L2.83248 8.14875C2.65998 8.265 2.42748 8.21625 2.31123 8.04375C2.19498 7.87125 2.24373 7.63875 2.41623 7.5225L6.28998 4.93875C6.42873 4.845 6.60873 4.85625 6.73623 4.96125L10.9737 8.49375L18.5 0.5C18.6462 0.35375 18.8825 0.35375 19.0287 0.5C19.175 0.64625 19.175 0.8825 19.0287 1.02875L11.2587 9.26625C11.1875 9.3375 11.09 9.375 10.9925 9.375H11Z" fill="white"/>
<path d="M2 9.375C2.62132 9.375 3.125 8.87132 3.125 8.25C3.125 7.62868 2.62132 7.125 2 7.125C1.37868 7.125 0.875 7.62868 0.875 8.25C0.875 8.87132 1.37868 9.375 2 9.375Z" fill="white"/>
<path d="M19.25 0H17.375C17.1687 0 17 0.16875 17 0.375C17 0.58125 17.1687 0.75 17.375 0.75H18.875V2.25C18.875 2.45625 19.0438 2.625 19.25 2.625C19.4562 2.625 19.625 2.45625 19.625 2.25V0.375C19.625 0.16875 19.4562 0 19.25 0Z" fill="white"/>
<path d="M21.6333 18H0.366667C0.165 18 0 17.775 0 17.5C0 17.225 0.165 17 0.366667 17H21.6333C21.835 17 22 17.225 22 17.5C22 17.775 21.835 18 21.6333 18Z" fill="white"/>
</g>
<defs>
<clipPath id="clip0_1322_283">
<rect width="22" height="18" fill="white"/>
</clipPath>
</defs>
</svg>
