<svg width="10" height="10" viewBox="0 0 10 10" fill="none" xmlns="http://www.w3.org/2000/svg">
<path d="M4.37012 0.620117V9.37988C4.37988 9.55566 4.44336 9.70215 4.56055 9.81934C4.67773 9.93652 4.82422 9.99512 5 9.99512C5.17578 9.99512 5.32227 9.93652 5.43945 9.81934C5.55664 9.70215 5.62012 9.55566 5.62988 9.37988V0.620117C5.62012 0.444336 5.55664 0.297852 5.43945 0.180664C5.32227 0.0634766 5.17578 0.00488281 5 0.00488281C4.82422 0.00488281 4.67773 0.0634766 4.56055 0.180664C4.44336 0.297852 4.37988 0.444336 4.37012 0.620117ZM0.620117 5.62988H9.37988C9.55566 5.62012 9.70215 5.55664 9.81934 5.43945C9.93652 5.32227 9.99512 5.17578 9.99512 5C9.99512 4.82422 9.93652 4.67773 9.81934 4.56055C9.70215 4.44336 9.55566 4.37988 9.37988 4.37012H0.620117C0.444336 4.37988 0.297852 4.44336 0.180664 4.56055C0.0634766 4.67773 0.00488281 4.82422 0.00488281 5C0.00488281 5.17578 0.0634766 5.32227 0.180664 5.43945C0.297852 5.55664 0.444336 5.62012 0.620117 5.62988Z" fill="#6645AB"/>
</svg>
