<svg width="24" height="22" viewBox="0 0 24 22" fill="none" xmlns="http://www.w3.org/2000/svg">
<path d="M8.625 18.5C8.72446 18.5 8.81984 18.4605 8.89017 18.3902C8.96049 18.3198 9 18.2245 9 18.125V16.25C9 16.1505 8.96049 16.0552 8.89017 15.9848C8.81984 15.9145 8.72446 15.875 8.625 15.875C8.52554 15.875 8.43016 15.9145 8.35983 15.9848C8.28951 16.0552 8.25 16.1505 8.25 16.25V18.125C8.25 18.2245 8.28951 18.3198 8.35983 18.3902C8.43016 18.4605 8.52554 18.5 8.625 18.5ZM8.625 14.75C8.72446 14.75 8.81984 14.7105 8.89017 14.6402C8.96049 14.5698 9 14.4745 9 14.375V12.5C9 12.4005 8.96049 12.3052 8.89017 12.2348C8.81984 12.1645 8.72446 12.125 8.625 12.125C8.52554 12.125 8.43016 12.1645 8.35983 12.2348C8.28951 12.3052 8.25 12.4005 8.25 12.5V14.375C8.25 14.4745 8.28951 14.5698 8.35983 14.6402C8.43016 14.7105 8.52554 14.75 8.625 14.75Z" fill="#6645AB"/>
<path d="M2.25 21.4999H21.75C22.1478 21.4999 22.5294 21.3419 22.8107 21.0606C23.092 20.7793 23.25 20.3978 23.25 19.9999V18.1249C23.25 18.0255 23.2105 17.9301 23.1402 17.8598C23.0698 17.7894 22.9745 17.7499 22.875 17.7499C22.2285 17.7499 21.6085 17.4931 21.1514 17.036C20.6943 16.5789 20.4375 15.9589 20.4375 15.3124C20.4375 14.666 20.6943 14.046 21.1514 13.5889C21.6085 13.1317 22.2285 12.8749 22.875 12.8749C22.9745 12.8749 23.0698 12.8354 23.1402 12.7651C23.2105 12.6948 23.25 12.5994 23.25 12.4999V10.2499C23.2495 10.0059 23.169 9.76882 23.0209 9.57493C23.1603 9.36366 23.2382 9.11773 23.2456 8.8647C23.2531 8.61167 23.19 8.36156 23.0632 8.14243L22.23 6.7013C22.2054 6.65863 22.1726 6.62121 22.1336 6.5912C22.0945 6.56118 22.05 6.53916 22.0024 6.52638C21.9548 6.51359 21.9052 6.51031 21.8564 6.51671C21.8075 6.52311 21.7604 6.53907 21.7178 6.56368C21.2297 6.84549 20.6497 6.92188 20.1054 6.77606C19.561 6.63024 19.0969 6.27415 18.8151 5.78611C18.5333 5.29808 18.4569 4.71809 18.6027 4.17373C18.7485 3.62937 19.1046 3.16524 19.5926 2.88343C19.6783 2.83328 19.7408 2.75138 19.7664 2.65549C19.7921 2.5596 19.779 2.45744 19.7299 2.37118L18.7297 0.639427C18.5908 0.401144 18.3633 0.227364 18.0969 0.155876C17.8305 0.0843882 17.5466 0.120974 17.307 0.257677L1.95 9.12493H1.875C1.57663 9.12493 1.29048 9.24345 1.0795 9.45443C0.868526 9.66541 0.75 9.95156 0.75 10.2499V12.4999C0.75 12.5994 0.789509 12.6948 0.859835 12.7651C0.930161 12.8354 1.02554 12.8749 1.125 12.8749C1.77147 12.8749 2.39145 13.1317 2.84857 13.5889C3.30569 14.046 3.5625 14.666 3.5625 15.3124C3.5625 15.9589 3.30569 16.5789 2.84857 17.036C2.39145 17.4931 1.77147 17.7499 1.125 17.7499C1.02554 17.7499 0.930161 17.7894 0.859835 17.8598C0.789509 17.9301 0.75 18.0255 0.75 18.1249V19.9999C0.75 20.3978 0.908035 20.7793 1.18934 21.0606C1.47064 21.3419 1.85218 21.4999 2.25 21.4999ZM17.682 0.907177C17.7491 0.868888 17.8285 0.858637 17.9031 0.878652C17.9777 0.898668 18.0414 0.947331 18.0802 1.01405L18.9053 2.44205C18.3521 2.86678 17.9722 3.47804 17.8362 4.16204C17.7002 4.84603 17.8175 5.55613 18.1661 6.16013C18.5147 6.76413 19.0709 7.22086 19.7312 7.44528C20.3914 7.6697 21.1108 7.64652 21.7552 7.38005L22.413 8.5193C22.4696 8.61757 22.4979 8.72956 22.4949 8.84292C22.4918 8.95628 22.4575 9.06659 22.3958 9.16168C22.3073 9.13841 22.2164 9.12606 22.125 9.12493H3.45L17.682 0.907177ZM1.5 18.4778C2.27504 18.386 2.98946 18.0131 3.50786 17.4296C4.02626 16.8462 4.31259 16.0929 4.31259 15.3124C4.31259 14.532 4.02626 13.7786 3.50786 13.1952C2.98946 12.6118 2.27504 12.2388 1.5 12.1471V10.2499C1.5 10.1505 1.53951 10.0551 1.60984 9.98476C1.68016 9.91444 1.77554 9.87493 1.875 9.87493H8.25V10.6249C8.25 10.7244 8.28951 10.8198 8.35983 10.8901C8.43016 10.9604 8.52554 10.9999 8.625 10.9999C8.72446 10.9999 8.81984 10.9604 8.89017 10.8901C8.96049 10.8198 9 10.7244 9 10.6249V9.87493H22.125C22.2245 9.87493 22.3198 9.91444 22.3902 9.98476C22.4605 10.0551 22.5 10.1505 22.5 10.2499V12.1471C21.725 12.2388 21.0105 12.6118 20.4921 13.1952C19.9737 13.7786 19.6874 14.532 19.6874 15.3124C19.6874 16.0929 19.9737 16.8462 20.4921 17.4296C21.0105 18.0131 21.725 18.386 22.5 18.4778V19.9999C22.5 20.1988 22.421 20.3896 22.2803 20.5303C22.1397 20.6709 21.9489 20.7499 21.75 20.7499H9V19.9999C9 19.9005 8.96049 19.8051 8.89017 19.7348C8.81984 19.6644 8.72446 19.6249 8.625 19.6249C8.52554 19.6249 8.43016 19.6644 8.35983 19.7348C8.28951 19.8051 8.25 19.9005 8.25 19.9999V20.7499H2.25C2.05109 20.7499 1.86032 20.6709 1.71967 20.5303C1.57902 20.3896 1.5 20.1988 1.5 19.9999V18.4778Z" fill="#6645AB"/>
<path d="M12.75 14.75C13.0467 14.75 13.3367 14.662 13.5834 14.4972C13.83 14.3324 14.0223 14.0981 14.1358 13.824C14.2494 13.5499 14.2791 13.2483 14.2212 12.9574C14.1633 12.6664 14.0204 12.3991 13.8107 12.1893C13.6009 11.9796 13.3336 11.8367 13.0426 11.7788C12.7517 11.7209 12.4501 11.7506 12.176 11.8642C11.9019 11.9777 11.6676 12.17 11.5028 12.4166C11.338 12.6633 11.25 12.9533 11.25 13.25C11.25 13.6478 11.408 14.0294 11.6893 14.3107C11.9706 14.592 12.3522 14.75 12.75 14.75ZM12.75 12.5C12.8983 12.5 13.0433 12.544 13.1667 12.6264C13.29 12.7088 13.3861 12.8259 13.4429 12.963C13.4997 13.1 13.5145 13.2508 13.4856 13.3963C13.4567 13.5418 13.3852 13.6754 13.2803 13.7803C13.1754 13.8852 13.0418 13.9567 12.8963 13.9856C12.7508 14.0145 12.6 13.9997 12.463 13.9429C12.3259 13.8861 12.2088 13.79 12.1264 13.6667C12.044 13.5433 12 13.3983 12 13.25C12 13.0511 12.079 12.8603 12.2197 12.7197C12.3603 12.579 12.5511 12.5 12.75 12.5ZM17.25 16.25C16.9533 16.25 16.6633 16.338 16.4166 16.5028C16.17 16.6676 15.9777 16.9019 15.8642 17.176C15.7506 17.4501 15.7209 17.7517 15.7788 18.0426C15.8367 18.3336 15.9796 18.6009 16.1893 18.8107C16.3991 19.0204 16.6664 19.1633 16.9574 19.2212C17.2483 19.2791 17.5499 19.2494 17.824 19.1358C18.0981 19.0223 18.3324 18.83 18.4972 18.5834C18.662 18.3367 18.75 18.0467 18.75 17.75C18.75 17.3522 18.592 16.9706 18.3107 16.6893C18.0294 16.408 17.6478 16.25 17.25 16.25ZM17.25 18.5C17.1017 18.5 16.9567 18.456 16.8333 18.3736C16.71 18.2912 16.6139 18.1741 16.5571 18.037C16.5003 17.9 16.4855 17.7492 16.5144 17.6037C16.5433 17.4582 16.6148 17.3246 16.7197 17.2197C16.8246 17.1148 16.9582 17.0434 17.1037 17.0144C17.2492 16.9855 17.4 17.0003 17.537 17.0571C17.6741 17.1139 17.7912 17.21 17.8736 17.3333C17.956 17.4567 18 17.6017 18 17.75C18 17.9489 17.921 18.1397 17.7803 18.2803C17.6397 18.421 17.4489 18.5 17.25 18.5ZM11.5807 17.75C11.5805 17.9812 11.6489 18.2072 11.7774 18.3995C11.9058 18.5917 12.0885 18.7414 12.3022 18.8295C12.5159 18.9177 12.751 18.9404 12.9776 18.8947C13.2043 18.8489 13.4122 18.7369 13.575 18.5728L18.0454 14.0458C18.254 13.8335 18.371 13.5478 18.371 13.2502C18.371 12.9526 18.254 12.6669 18.0454 12.4546C17.8306 12.2517 17.5462 12.1387 17.2507 12.1387C16.9553 12.1387 16.6709 12.2517 16.4561 12.4546L11.9272 16.925C11.8178 17.0327 11.7307 17.1611 11.6713 17.3028C11.6118 17.4444 11.581 17.5964 11.5807 17.75ZM12.4541 17.4575L16.9852 12.9845C17.0195 12.947 17.0611 12.9169 17.1074 12.896C17.1536 12.875 17.2037 12.8637 17.2545 12.8627C17.3052 12.8617 17.3557 12.871 17.4028 12.8901C17.4499 12.9092 17.4926 12.9376 17.5283 12.9737C17.5641 13.0098 17.5921 13.0527 17.6108 13.1C17.6294 13.1472 17.6382 13.1978 17.6368 13.2485C17.6353 13.2993 17.6235 13.3493 17.6022 13.3953C17.5808 13.4414 17.5503 13.4827 17.5125 13.5166L13.0425 18.0455C13.0039 18.0841 12.9581 18.1148 12.9076 18.1357C12.8571 18.1566 12.8031 18.1674 12.7484 18.1674C12.6938 18.1674 12.6397 18.1567 12.5893 18.1358C12.5388 18.1149 12.4929 18.0843 12.4543 18.0457C12.4157 18.0071 12.385 17.9612 12.3641 17.9108C12.3432 17.8603 12.3324 17.8063 12.3324 17.7516C12.3324 17.697 12.3431 17.6429 12.364 17.5925C12.3849 17.542 12.4155 17.4961 12.4541 17.4575Z" fill="#6645AB"/>
</svg>
