<svg width="24" height="24" viewBox="0 0 24 24" fill="none" xmlns="http://www.w3.org/2000/svg">
<path d="M8.625 19.5C8.72446 19.5 8.81984 19.4605 8.89017 19.3902C8.96049 19.3198 9 19.2245 9 19.125V17.25C9 17.1505 8.96049 17.0552 8.89017 16.9848C8.81984 16.9145 8.72446 16.875 8.625 16.875C8.52554 16.875 8.43016 16.9145 8.35983 16.9848C8.28951 17.0552 8.25 17.1505 8.25 17.25V19.125C8.25 19.2245 8.28951 19.3198 8.35983 19.3902C8.43016 19.4605 8.52554 19.5 8.625 19.5ZM8.625 15.75C8.72446 15.75 8.81984 15.7105 8.89017 15.6402C8.96049 15.5698 9 15.4745 9 15.375V13.5C9 13.4005 8.96049 13.3052 8.89017 13.2348C8.81984 13.1645 8.72446 13.125 8.625 13.125C8.52554 13.125 8.43016 13.1645 8.35983 13.2348C8.28951 13.3052 8.25 13.4005 8.25 13.5V15.375C8.25 15.4745 8.28951 15.5698 8.35983 15.6402C8.43016 15.7105 8.52554 15.75 8.625 15.75Z" fill="white"/>
<path d="M2.25 22.5H21.75C22.1478 22.5 22.5294 22.342 22.8107 22.0607C23.092 21.7794 23.25 21.3979 23.25 21V19.125C23.25 19.0256 23.2105 18.9302 23.1402 18.8599C23.0698 18.7896 22.9745 18.75 22.875 18.75C22.2285 18.75 21.6085 18.4932 21.1514 18.0361C20.6943 17.579 20.4375 16.959 20.4375 16.3125C20.4375 15.6661 20.6943 15.0461 21.1514 14.589C21.6085 14.1319 22.2285 13.875 22.875 13.875C22.9745 13.875 23.0698 13.8355 23.1402 13.7652C23.2105 13.6949 23.25 13.5995 23.25 13.5V11.25C23.2495 11.006 23.169 10.7689 23.0209 10.575C23.1603 10.3638 23.2382 10.1178 23.2456 9.86482C23.2531 9.61179 23.19 9.36169 23.0632 9.14255L22.23 7.70142C22.2054 7.65875 22.1726 7.62133 22.1336 7.59132C22.0945 7.5613 22.05 7.53928 22.0024 7.5265C21.9548 7.51372 21.9052 7.51043 21.8564 7.51683C21.8075 7.52323 21.7604 7.53919 21.7178 7.5638C21.2297 7.84561 20.6497 7.92201 20.1054 7.77618C19.561 7.63036 19.0969 7.27427 18.8151 6.78624C18.5333 6.29821 18.4569 5.71821 18.6027 5.17385C18.7485 4.62949 19.1046 4.16536 19.5926 3.88355C19.6783 3.8334 19.7408 3.7515 19.7664 3.65561C19.7921 3.55972 19.779 3.45757 19.7299 3.3713L18.7297 1.63955C18.5908 1.40127 18.3633 1.22749 18.0969 1.156C17.8305 1.08451 17.5466 1.1211 17.307 1.2578L1.95 10.125H1.875C1.57663 10.125 1.29048 10.2436 1.0795 10.4546C0.868526 10.6655 0.75 10.9517 0.75 11.25V13.5C0.75 13.5995 0.789509 13.6949 0.859835 13.7652C0.930161 13.8355 1.02554 13.875 1.125 13.875C1.77147 13.875 2.39145 14.1319 2.84857 14.589C3.30569 15.0461 3.5625 15.6661 3.5625 16.3125C3.5625 16.959 3.30569 17.579 2.84857 18.0361C2.39145 18.4932 1.77147 18.75 1.125 18.75C1.02554 18.75 0.930161 18.7896 0.859835 18.8599C0.789509 18.9302 0.75 19.0256 0.75 19.125V21C0.75 21.3979 0.908035 21.7794 1.18934 22.0607C1.47064 22.342 1.85218 22.5 2.25 22.5ZM17.682 1.9073C17.7491 1.86901 17.8285 1.85876 17.9031 1.87877C17.9777 1.89879 18.0414 1.94745 18.0802 2.01417L18.9053 3.44217C18.3521 3.8669 17.9722 4.47817 17.8362 5.16216C17.7002 5.84615 17.8175 6.55625 18.1661 7.16025C18.5147 7.76425 19.0709 8.22098 19.7312 8.4454C20.3914 8.66982 21.1108 8.64664 21.7552 8.38017L22.413 9.51942C22.4696 9.61769 22.4979 9.72969 22.4949 9.84304C22.4918 9.9564 22.4575 10.0667 22.3958 10.1618C22.3073 10.1385 22.2164 10.1262 22.125 10.125H3.45L17.682 1.9073ZM1.5 19.4779C2.27504 19.3861 2.98946 19.0132 3.50786 18.4298C4.02626 17.8463 4.31259 17.093 4.31259 16.3125C4.31259 15.5321 4.02626 14.7788 3.50786 14.1953C2.98946 13.6119 2.27504 13.239 1.5 13.1472V11.25C1.5 11.1506 1.53951 11.0552 1.60984 10.9849C1.68016 10.9146 1.77554 10.875 1.875 10.875H8.25V11.625C8.25 11.7245 8.28951 11.8199 8.35983 11.8902C8.43016 11.9605 8.52554 12 8.625 12C8.72446 12 8.81984 11.9605 8.89017 11.8902C8.96049 11.8199 9 11.7245 9 11.625V10.875H22.125C22.2245 10.875 22.3198 10.9146 22.3902 10.9849C22.4605 11.0552 22.5 11.1506 22.5 11.25V13.1472C21.725 13.239 21.0105 13.6119 20.4921 14.1953C19.9737 14.7788 19.6874 15.5321 19.6874 16.3125C19.6874 17.093 19.9737 17.8463 20.4921 18.4298C21.0105 19.0132 21.725 19.3861 22.5 19.4779V21C22.5 21.199 22.421 21.3897 22.2803 21.5304C22.1397 21.671 21.9489 21.75 21.75 21.75H9V21C9 20.9006 8.96049 20.8052 8.89017 20.7349C8.81984 20.6646 8.72446 20.625 8.625 20.625C8.52554 20.625 8.43016 20.6646 8.35983 20.7349C8.28951 20.8052 8.25 20.9006 8.25 21V21.75H2.25C2.05109 21.75 1.86032 21.671 1.71967 21.5304C1.57902 21.3897 1.5 21.199 1.5 21V19.4779Z" fill="white"/>
<path d="M12.75 15.75C13.0467 15.75 13.3367 15.662 13.5834 15.4972C13.83 15.3324 14.0223 15.0981 14.1358 14.824C14.2494 14.5499 14.2791 14.2483 14.2212 13.9574C14.1633 13.6664 14.0204 13.3991 13.8107 13.1893C13.6009 12.9796 13.3336 12.8367 13.0426 12.7788C12.7517 12.7209 12.4501 12.7506 12.176 12.8642C11.9019 12.9777 11.6676 13.17 11.5028 13.4166C11.338 13.6633 11.25 13.9533 11.25 14.25C11.25 14.6478 11.408 15.0294 11.6893 15.3107C11.9706 15.592 12.3522 15.75 12.75 15.75ZM12.75 13.5C12.8983 13.5 13.0433 13.544 13.1667 13.6264C13.29 13.7088 13.3861 13.8259 13.4429 13.963C13.4997 14.1 13.5145 14.2508 13.4856 14.3963C13.4567 14.5418 13.3852 14.6754 13.2803 14.7803C13.1754 14.8852 13.0418 14.9567 12.8963 14.9856C12.7508 15.0145 12.6 14.9997 12.463 14.9429C12.3259 14.8861 12.2088 14.79 12.1264 14.6667C12.044 14.5433 12 14.3983 12 14.25C12 14.0511 12.079 13.8603 12.2197 13.7197C12.3603 13.579 12.5511 13.5 12.75 13.5ZM17.25 17.25C16.9533 17.25 16.6633 17.338 16.4166 17.5028C16.17 17.6676 15.9777 17.9019 15.8642 18.176C15.7506 18.4501 15.7209 18.7517 15.7788 19.0426C15.8367 19.3336 15.9796 19.6009 16.1893 19.8107C16.3991 20.0204 16.6664 20.1633 16.9574 20.2212C17.2483 20.2791 17.5499 20.2494 17.824 20.1358C18.0981 20.0223 18.3324 19.83 18.4972 19.5834C18.662 19.3367 18.75 19.0467 18.75 18.75C18.75 18.3522 18.592 17.9706 18.3107 17.6893C18.0294 17.408 17.6478 17.25 17.25 17.25ZM17.25 19.5C17.1017 19.5 16.9567 19.456 16.8333 19.3736C16.71 19.2912 16.6139 19.1741 16.5571 19.037C16.5003 18.9 16.4855 18.7492 16.5144 18.6037C16.5433 18.4582 16.6148 18.3246 16.7197 18.2197C16.8246 18.1148 16.9582 18.0434 17.1037 18.0144C17.2492 17.9855 17.4 18.0003 17.537 18.0571C17.6741 18.1139 17.7912 18.21 17.8736 18.3333C17.956 18.4567 18 18.6017 18 18.75C18 18.9489 17.921 19.1397 17.7803 19.2803C17.6397 19.421 17.4489 19.5 17.25 19.5ZM11.5807 18.75C11.5805 18.9812 11.6489 19.2072 11.7774 19.3995C11.9058 19.5917 12.0885 19.7414 12.3022 19.8295C12.5159 19.9177 12.751 19.9404 12.9776 19.8947C13.2043 19.8489 13.4122 19.7369 13.575 19.5728L18.0454 15.0458C18.254 14.8335 18.371 14.5478 18.371 14.2502C18.371 13.9526 18.254 13.6669 18.0454 13.4546C17.8306 13.2517 17.5462 13.1387 17.2507 13.1387C16.9553 13.1387 16.6709 13.2517 16.4561 13.4546L11.9272 17.925C11.8178 18.0327 11.7307 18.1611 11.6713 18.3028C11.6118 18.4444 11.581 18.5964 11.5807 18.75ZM12.4541 18.4575L16.9852 13.9845C17.0195 13.947 17.0611 13.9169 17.1074 13.896C17.1536 13.875 17.2037 13.8637 17.2545 13.8627C17.3052 13.8617 17.3557 13.871 17.4028 13.8901C17.4499 13.9092 17.4926 13.9376 17.5283 13.9737C17.5641 14.0098 17.5921 14.0527 17.6108 14.1C17.6294 14.1472 17.6382 14.1978 17.6368 14.2485C17.6353 14.2993 17.6235 14.3493 17.6022 14.3953C17.5808 14.4414 17.5503 14.4827 17.5125 14.5166L13.0425 19.0455C13.0039 19.0841 12.9581 19.1148 12.9076 19.1357C12.8571 19.1566 12.8031 19.1674 12.7484 19.1674C12.6938 19.1674 12.6397 19.1567 12.5893 19.1358C12.5388 19.1149 12.4929 19.0843 12.4543 19.0457C12.4157 19.0071 12.385 18.9612 12.3641 18.9108C12.3432 18.8603 12.3324 18.8063 12.3324 18.7516C12.3324 18.697 12.3431 18.6429 12.364 18.5925C12.3849 18.542 12.4155 18.4961 12.4541 18.4575Z" fill="white"/>
</svg>
