<svg width="114" height="61" viewBox="0 0 114 61" fill="none" xmlns="http://www.w3.org/2000/svg">
<path fill-rule="evenodd" clip-rule="evenodd" d="M30.8823 17.3383C30.8822 17.2219 30.8591 17.1066 30.8144 16.9991C30.7697 16.8916 30.7042 16.794 30.6217 16.7119C30.5391 16.6297 30.4412 16.5647 30.3336 16.5204C30.2259 16.4762 30.1105 16.4536 29.9941 16.454H18.9431C18.4571 16.454 18.0652 16.8538 18.0652 17.3383C18.0652 17.8228 18.4573 18.2226 18.9431 18.2226H29.9939C30.4838 18.2223 30.8823 17.8292 30.8823 17.3383ZM30.8823 25.9944C30.8822 25.878 30.8591 25.7627 30.8144 25.6552C30.7697 25.5477 30.7042 25.4501 30.6217 25.368C30.5391 25.2858 30.4412 25.2208 30.3336 25.1765C30.2259 25.1323 30.1105 25.1097 29.9941 25.1101H18.9431C18.4571 25.1101 18.0652 25.51 18.0652 25.9944C18.0652 26.4782 18.4577 26.8787 18.9431 26.8787H29.9939C30.4834 26.8784 30.8823 26.4848 30.8823 25.9944ZM30.8823 34.6505C30.8822 34.5341 30.8591 34.4188 30.8144 34.3113C30.7697 34.2038 30.7042 34.1062 30.6217 34.0241C30.5391 33.942 30.4412 33.8769 30.3336 33.8327C30.2259 33.7884 30.1105 33.7658 29.9941 33.7663H18.9431C18.4571 33.7663 18.0652 34.1661 18.0652 34.6505C18.0652 35.135 18.4573 35.5348 18.9431 35.5348H29.9939C30.4838 35.5348 30.8823 35.1414 30.8823 34.6505ZM30.8823 43.3066C30.8823 42.8162 30.4834 42.4224 29.9941 42.4224H18.9431C18.4577 42.4224 18.0652 42.8226 18.0652 43.3066C18.0652 43.7911 18.4571 44.1907 18.9431 44.1907H29.9939C30.1103 44.1911 30.2257 44.1686 30.3334 44.1244C30.4411 44.0802 30.539 44.0152 30.6216 43.933C30.7041 43.8509 30.7696 43.7533 30.8144 43.6458C30.8591 43.5383 30.8822 43.4231 30.8823 43.3066ZM37.571 44.1012C37.571 44.5907 37.9575 44.9852 38.4488 44.9852V49.1707C37.9575 49.1707 37.571 49.5652 37.571 50.055V54.8827L34.3838 58.0626H11.9035L11.7839 57.3189C11.0937 53.0238 7.68679 49.622 3.39343 48.9283L2.65039 48.8083V40.4974L3.39321 40.3771C8.28992 39.5848 11.9187 35.3246 11.9187 30.3574C11.9187 25.3902 8.28992 21.13 3.39343 20.3376L2.65061 20.2174V11.9067L3.39365 11.7867C7.68701 11.093 11.0939 7.69117 11.7841 3.39605L11.9037 2.65234H34.384L37.5712 5.83225V10.66C37.5712 11.1491 37.9582 11.5441 38.4491 11.5441V15.7296C37.9578 15.7296 37.5712 16.1241 37.5712 16.6138V21.8067C37.5712 22.2962 37.9578 22.691 38.4491 22.691V26.8765C37.9582 26.8765 37.5712 27.2716 37.5712 27.7607V32.9547C37.5712 33.4438 37.9582 33.839 38.4491 33.839V38.0245C37.9584 38.0245 37.5712 38.4185 37.5712 38.9076V44.1012H37.571Z" fill="#9BC9FF"/>
<path fill-rule="evenodd" clip-rule="evenodd" d="M82.0786 20.0543L65.9194 42.5459C65.7556 42.7745 65.5396 42.9607 65.2893 43.0889C65.0391 43.2171 64.7618 43.2837 64.4806 43.283C64.1103 43.2825 63.7494 43.1662 63.4485 42.9504C62.6561 42.3802 62.4789 41.276 63.0418 40.4828L79.2114 17.9912C79.7743 17.1988 80.8794 17.0174 81.6717 17.5876C82.4644 18.1569 82.6521 19.262 82.0786 20.0543ZM63.7926 22.4251C63.7926 23.6084 64.7518 24.5726 65.9401 24.5726C67.1287 24.5726 68.0877 23.6084 68.0877 22.4251C68.0877 21.2398 67.1285 20.2764 65.9401 20.2764C64.7518 20.2764 63.7926 21.2396 63.7926 22.4251ZM71.6221 22.4251C71.6221 19.2903 69.0783 16.7402 65.9403 16.7402C62.8024 16.7402 60.2586 19.2903 60.2586 22.4251C60.2586 25.559 62.8024 28.1079 65.9403 28.1079C69.0783 28.1079 71.6221 25.5588 71.6221 22.4251ZM79.045 40.2699C80.2333 40.2699 81.1925 39.3066 81.1925 38.1213C81.1925 36.9369 80.2333 35.9737 79.045 35.9737C77.8564 35.9737 76.8974 36.9371 76.8974 38.1213C76.8972 39.3068 77.8564 40.2699 79.045 40.2699ZM79.045 32.4375C75.9068 32.4375 73.3632 34.9876 73.3632 38.1215C73.3632 41.2552 75.9071 43.8063 79.045 43.8063C82.1829 43.8063 84.7267 41.2552 84.7267 38.1215C84.7267 34.9876 82.1829 32.4375 79.045 32.4375ZM31.7661 43.3069C31.7661 44.2837 30.9738 45.0749 29.9938 45.0749H18.9428C17.9733 45.0749 17.1809 44.2837 17.1809 43.3069C17.1809 42.3311 17.9733 41.5388 18.9428 41.5388H29.9936C30.9738 41.5388 31.7661 42.3311 31.7661 43.3069ZM31.7661 34.6507C31.7661 35.6276 30.9738 36.4188 29.9938 36.4188H18.9428C17.9733 36.4188 17.1809 35.6276 17.1809 34.6507C17.1809 33.6739 17.9733 32.8827 18.9428 32.8827H29.9936C30.9738 32.8827 31.7661 33.6739 31.7661 34.6507ZM31.7661 25.9946C31.7661 26.9704 30.9738 27.7627 29.9938 27.7627H18.9428C17.9733 27.7627 17.1809 26.9704 17.1809 25.9946C17.1809 25.0178 17.9733 24.2265 18.9428 24.2265H29.9936C30.9738 24.2265 31.7661 25.0178 31.7661 25.9946ZM31.7661 17.3385C31.7661 18.3154 30.9738 19.1066 29.9938 19.1066H18.9428C17.9733 19.1066 17.1809 18.3152 17.1809 17.3385C17.1809 16.3617 17.9733 15.5704 18.9428 15.5704H29.9936C30.9738 15.5704 31.7661 16.3617 31.7661 17.3385ZM40.2209 38.9074V44.1014C40.2209 45.0783 39.4286 45.8695 38.4486 45.8695C37.4686 45.8695 36.6867 45.0783 36.6867 44.1014V38.9074C36.6867 37.9316 37.4686 37.1402 38.4486 37.1402C39.4286 37.1402 40.2209 37.9316 40.2209 38.9074ZM40.2209 27.7607V32.9547C40.2209 33.9305 39.4286 34.7228 38.4486 34.7228C37.4686 34.7228 36.6867 33.9305 36.6867 32.9547V27.7607C36.6867 26.785 37.4686 25.9926 38.4486 25.9926C39.4286 25.9924 40.2209 26.7847 40.2209 27.7607ZM40.2209 16.6138V21.8067C40.2209 22.7836 39.4286 23.5748 38.4486 23.5748C37.4686 23.5748 36.6867 22.7836 36.6867 21.8067V16.6138C36.6867 15.637 37.4686 14.8457 38.4486 14.8457C39.4286 14.8457 40.2209 15.637 40.2209 16.6138ZM109.622 41.2499C104.378 40.4012 100.354 35.8402 100.354 30.3576C100.354 24.875 104.378 20.3138 109.622 19.4651V12.6595C104.952 11.9047 101.251 8.2068 100.5 3.5364H42.8794L40.2209 6.19803V10.66C40.2209 11.6358 39.4286 12.4281 38.4486 12.4281C37.4686 12.4281 36.6867 11.6358 36.6867 10.66V6.19913L34.0178 3.5364H12.6564C11.9059 8.2068 8.20481 11.9047 3.53418 12.6595V19.4651C8.77811 20.3138 12.8023 24.8748 12.8023 30.3576C12.8023 35.8402 8.77811 40.4012 3.53418 41.2499V48.0555C8.20481 48.8102 11.9059 52.5082 12.6564 57.1786H34.018L36.6869 54.5161V50.055C36.6869 49.0781 37.4689 48.2869 38.4488 48.2869C39.4288 48.2869 40.2211 49.0783 40.2211 50.055V54.5161L42.8796 57.1786H100.5C101.251 52.508 104.952 48.8102 109.623 48.0555V41.2499H109.622ZM111.384 22.8607C112.364 22.8607 113.156 22.0684 113.156 21.0915V11.0331C113.156 10.0562 112.364 9.265 111.384 9.265C107.256 9.265 103.888 5.90187 103.888 1.76698C103.888 0.791219 103.096 0 102.126 0H42.1496C41.6804 0 41.2322 0.18565 40.8987 0.517166L38.4486 2.96597L35.9987 0.517166C35.6756 0.18565 35.2168 0 34.7478 0H11.03C10.0604 0 9.26809 0.791219 9.26809 1.76698C9.26809 5.90165 5.90077 9.265 1.77229 9.265C0.792324 9.265 0 10.0562 0 11.0331V21.0915C0 22.0684 0.792324 22.8607 1.77229 22.8607C5.90077 22.8607 9.26809 26.2238 9.26809 30.3576C9.26809 34.4923 5.90077 37.8554 1.77229 37.8554C0.792324 37.8554 0 38.6468 0 39.6224V49.6819C0 50.6588 0.792324 51.45 1.77229 51.45C5.90077 51.45 9.26809 54.8131 9.26809 58.9469C9.26809 59.9238 10.0604 60.715 11.03 60.715H34.7475C35.2168 60.715 35.6754 60.5293 35.9985 60.1981L38.4484 57.749L40.8985 60.1981C41.2307 60.5291 41.6805 60.7149 42.1494 60.715H102.126C103.096 60.715 103.888 59.9238 103.888 58.9469C103.888 54.8133 107.255 51.45 111.384 51.45C112.364 51.45 113.156 50.6588 113.156 49.6819V39.6224C113.156 38.6466 112.364 37.8554 111.384 37.8554C107.255 37.8554 103.888 34.4923 103.888 30.3576C103.888 26.224 107.256 22.8607 111.384 22.8607Z" fill="#6645AB"/>
</svg>
