<svg width="11" height="12" viewBox="0 0 11 12" fill="none" xmlns="http://www.w3.org/2000/svg">
<g clip-path="url(#clip0_94_3755)">
<path d="M3.14279 6.42854V5.57139C3.14279 5.45532 3.1852 5.35488 3.27002 5.27005C3.35484 5.18523 3.45529 5.14282 3.57136 5.14282H8.71422C8.83029 5.14282 8.93073 5.18523 9.01556 5.27005C9.10038 5.35488 9.14279 5.45532 9.14279 5.57139V6.42854C9.14279 6.54461 9.10038 6.64505 9.01556 6.72988C8.93073 6.8147 8.83029 6.85711 8.71422 6.85711H3.57136C3.45529 6.85711 3.35484 6.8147 3.27002 6.72988C3.1852 6.64505 3.14279 6.54461 3.14279 6.42854ZM1.68966 3.41849C1.68966 3.41849 1.57471 3.61548 1.3448 4.00945C1.11489 4.40342 0.99993 5.06693 0.99993 5.99997C0.99993 6.933 1.22984 7.79349 1.68966 8.58144C2.14948 9.36938 2.77337 9.99327 3.56131 10.4531C4.34926 10.9129 5.20975 11.1428 6.14279 11.1428C7.07582 11.1428 7.93631 10.9129 8.72426 10.4531C9.51221 9.99327 10.1361 9.36938 10.5959 8.58144C11.0557 7.79349 11.2856 6.933 11.2856 5.99997C11.2856 5.06693 11.0557 4.20644 10.5959 3.41849C10.1361 2.63055 9.51221 2.00666 8.72426 1.54684C7.93631 1.08702 7.07582 0.857108 6.14279 0.857108C5.20975 0.857108 4.34926 1.08702 3.56131 1.54684C2.77337 2.00666 2.14948 2.63055 1.68966 3.41849Z" fill="white"/>
</g>
<defs>
<clipPath id="clip0_94_3755">
<rect width="10.29" height="12" fill="white" transform="matrix(-1 0 0 -1 11 12)"/>
</clipPath>
</defs>
</svg>
