<svg width="24" height="24" viewBox="0 0 24 24" fill="none" xmlns="http://www.w3.org/2000/svg">
<g clip-path="url(#clip0_1246_1832)">
<path d="M18.4043 4.37843C18.4099 4.38369 18.414 4.39027 18.4164 4.39757C18.4188 4.40486 18.4193 4.41263 18.4179 4.42017L18.2395 5.44043C18.2133 5.58735 18.229 5.73867 18.2848 5.8771C18.3405 6.01552 18.4341 6.13545 18.5548 6.22318C18.6756 6.3109 18.8186 6.36287 18.9674 6.37314C19.1163 6.38341 19.2651 6.35157 19.3967 6.28126L20.3123 5.79604C20.319 5.79267 20.3265 5.79094 20.3341 5.791C20.3417 5.79106 20.3491 5.7929 20.3558 5.79638L21.2706 6.28088C21.4023 6.35083 21.5509 6.3824 21.6997 6.372C21.8484 6.3616 21.9912 6.30965 22.1118 6.22206C22.2325 6.13448 22.3261 6.01477 22.382 5.87658C22.438 5.73839 22.454 5.58727 22.4282 5.44043L22.2495 4.41979C22.2483 4.41237 22.2489 4.40476 22.2512 4.39762C22.2536 4.39048 22.2577 4.38402 22.2631 4.37881L23.0069 3.65847C23.1139 3.5548 23.1898 3.42316 23.2258 3.27853C23.2617 3.1339 23.2564 2.98207 23.2104 2.8403C23.1644 2.69854 23.0796 2.57253 22.9655 2.4766C22.8514 2.38067 22.7127 2.31866 22.5652 2.29763L21.54 2.15224C21.5324 2.15124 21.5252 2.14837 21.519 2.14389C21.5128 2.13942 21.5078 2.13347 21.5045 2.12659L21.0491 1.19626C20.9841 1.06205 20.8825 0.948941 20.756 0.869983C20.6296 0.791025 20.4833 0.749433 20.3342 0.750007H20.3338C20.1846 0.749379 20.0383 0.79094 19.9117 0.869896C19.7851 0.948853 19.6834 1.06199 19.6183 1.19626L19.1631 2.12626C19.1598 2.13307 19.1548 2.13897 19.1487 2.14344C19.1426 2.14791 19.1354 2.15082 19.1279 2.15191L18.1025 2.29729C17.9549 2.31826 17.8162 2.38022 17.7021 2.47613C17.588 2.57204 17.503 2.69805 17.457 2.83982C17.4109 2.9816 17.4056 3.13346 17.4416 3.27812C17.4776 3.42278 17.5534 3.55444 17.6605 3.65813L18.4043 4.37843ZM18.208 3.04028L19.2337 2.89501C19.3624 2.87662 19.4847 2.82702 19.5898 2.75055C19.695 2.67407 19.7798 2.57304 19.8369 2.45626L20.2921 1.52626C20.2954 1.51804 20.3012 1.51107 20.3087 1.50636C20.3162 1.50164 20.325 1.49942 20.3338 1.50001C20.3426 1.49937 20.3512 1.50151 20.3587 1.50612C20.3661 1.51073 20.3718 1.51757 20.3751 1.52566L20.8303 2.45547C20.8873 2.57251 20.9722 2.67377 21.0775 2.75038C21.1827 2.82699 21.3052 2.87661 21.4341 2.89489L22.4591 3.04028C22.4677 3.04147 22.4758 3.04505 22.4824 3.05061C22.4891 3.05617 22.4941 3.06349 22.4968 3.07173C22.4995 3.07998 22.4998 3.08882 22.4978 3.09725C22.4957 3.10567 22.4913 3.11335 22.4851 3.11941L21.7412 3.84001C21.6479 3.9304 21.578 4.04228 21.5379 4.16587C21.4977 4.28947 21.4885 4.42101 21.5109 4.54902L21.6892 5.56928C21.6914 5.57786 21.6908 5.58692 21.6875 5.59514C21.6842 5.60336 21.6784 5.61032 21.6709 5.61503C21.6642 5.62078 21.6558 5.62421 21.6469 5.6248C21.6381 5.6254 21.6293 5.62313 21.6218 5.61833L20.7071 5.13376C20.5923 5.07266 20.4642 5.0407 20.3342 5.0407C20.2041 5.0407 20.076 5.07266 19.9613 5.13376L19.0457 5.61859C19.0383 5.62335 19.0296 5.6256 19.0208 5.625C19.012 5.62441 19.0037 5.62101 18.997 5.61529C18.9895 5.61059 18.9837 5.60362 18.9804 5.5954C18.9771 5.58718 18.9765 5.57813 18.9787 5.56954L19.157 4.54999C19.1795 4.42179 19.1702 4.29005 19.13 4.16627C19.0897 4.04249 19.0198 3.93044 18.9263 3.83993L18.182 3.11941C18.1758 3.11334 18.1715 3.10566 18.1694 3.09724C18.1674 3.08882 18.1677 3.08 18.1704 3.07176C18.1731 3.06353 18.1781 3.05622 18.1847 3.05065C18.1914 3.04509 18.1994 3.0415 18.208 3.04028ZM16.125 0.750007H1.125C1.02554 0.750007 0.930161 0.789516 0.859835 0.859842C0.789509 0.930168 0.75 1.02555 0.75 1.12501V7.12501C0.750004 7.19069 0.76726 7.25522 0.800039 7.31213C0.832818 7.36905 0.879972 7.41636 0.936781 7.44933C0.993589 7.48229 1.05806 7.49976 1.12374 7.49998C1.18942 7.5002 1.25401 7.48317 1.31104 7.45058L3.8496 6.00001H16.125C16.2245 6.00001 16.3198 5.9605 16.3902 5.89017C16.4605 5.81985 16.5 5.72446 16.5 5.62501V1.12501C16.5 1.02555 16.4605 0.930168 16.3902 0.859842C16.3198 0.789516 16.2245 0.750007 16.125 0.750007ZM15.75 5.25001H3.75C3.68476 5.25012 3.62066 5.26715 3.56396 5.29943L1.5 6.47866V1.50001H15.75V5.25001Z" fill="white"/>
<path d="M4.875 3.75H12.375C12.4745 3.75 12.5698 3.71049 12.6402 3.64016C12.7105 3.56984 12.75 3.47446 12.75 3.375C12.75 3.27554 12.7105 3.18016 12.6402 3.10984C12.5698 3.03951 12.4745 3 12.375 3H4.875C4.77554 3 4.68016 3.03951 4.60984 3.10984C4.53951 3.18016 4.5 3.27554 4.5 3.375C4.5 3.47446 4.53951 3.56984 4.60984 3.64016C4.68016 3.71049 4.77554 3.75 4.875 3.75ZM22.5652 10.1726L21.54 10.0272C21.5324 10.0262 21.5252 10.0234 21.519 10.0189C21.5128 10.0144 21.5078 10.0085 21.5045 10.0016L21.0489 9.07159C20.984 8.93734 20.8825 8.82418 20.756 8.74516C20.6296 8.66614 20.4833 8.62449 20.3342 8.625H20.3338C20.1846 8.62437 20.0383 8.66593 19.9117 8.74489C19.7851 8.82385 19.6834 8.93698 19.6183 9.07125L19.1631 10.0013C19.1598 10.0081 19.1548 10.014 19.1487 10.0184C19.1426 10.0229 19.1354 10.0258 19.1279 10.0269L18.1025 10.1723C17.9549 10.1933 17.8162 10.2552 17.7021 10.3511C17.588 10.447 17.503 10.573 17.457 10.7148C17.4109 10.8566 17.4056 11.0084 17.4416 11.1531C17.4776 11.2978 17.5534 11.4294 17.6605 11.5331L18.4043 12.2531C18.4099 12.2584 18.414 12.265 18.4164 12.2723C18.4188 12.2796 18.4193 12.2873 18.4179 12.2949L18.2395 13.3151C18.2132 13.4621 18.2289 13.6134 18.2846 13.7519C18.3403 13.8904 18.4339 14.0104 18.5547 14.0981C18.6754 14.1859 18.8184 14.2379 18.9674 14.2482C19.1163 14.2584 19.2651 14.2266 19.3967 14.1562L20.3123 13.671C20.319 13.6677 20.3265 13.6659 20.3341 13.666C20.3417 13.666 20.3491 13.6679 20.3558 13.6714L21.2706 14.1559C21.4023 14.2258 21.5509 14.2574 21.6997 14.247C21.8484 14.2366 21.9912 14.1846 22.1118 14.0971C22.2325 14.0095 22.3261 13.8898 22.382 13.7516C22.438 13.6134 22.454 13.4623 22.4282 13.3154L22.2495 12.2948C22.2483 12.2874 22.2489 12.2798 22.2512 12.2726C22.2536 12.2655 22.2577 12.259 22.2631 12.2538L23.0069 11.5335C23.1139 11.4298 23.1898 11.2982 23.2258 11.1535C23.2617 11.0089 23.2564 10.8571 23.2104 10.7153C23.1644 10.5735 23.0796 10.4475 22.9655 10.3516C22.8514 10.2557 22.7127 10.1937 22.5652 10.1726ZM22.4853 10.9944L21.7412 11.715C21.6479 11.8054 21.578 11.9173 21.5379 12.0409C21.4977 12.1645 21.4885 12.296 21.5109 12.424L21.6892 13.4443C21.6914 13.4529 21.6908 13.4619 21.6875 13.4701C21.6842 13.4783 21.6784 13.4853 21.6709 13.49C21.6642 13.4958 21.6558 13.4992 21.6469 13.4998C21.6381 13.5004 21.6293 13.4981 21.6218 13.4933L20.7071 13.0087C20.5923 12.9476 20.4642 12.9157 20.3342 12.9157C20.2041 12.9157 20.076 12.9476 19.9613 13.0087L19.0457 13.4936C19.0383 13.4983 19.0296 13.5006 19.0208 13.5C19.012 13.4994 19.0037 13.496 18.997 13.4903C18.9895 13.4856 18.9837 13.4786 18.9804 13.4704C18.9771 13.4622 18.9765 13.4531 18.9787 13.4445L19.157 12.425C19.1795 12.2968 19.1702 12.165 19.13 12.0413C19.0897 11.9175 19.0198 11.8054 18.9263 11.7149L18.1822 10.9946C18.176 10.9885 18.1716 10.9808 18.1696 10.9724C18.1675 10.964 18.1679 10.9552 18.1706 10.9469C18.1733 10.9387 18.1782 10.9314 18.1849 10.9258C18.1915 10.9203 18.1996 10.9167 18.2082 10.9155L19.2337 10.77C19.3624 10.7516 19.4847 10.702 19.5898 10.6255C19.695 10.5491 19.7798 10.448 19.8369 10.3312L20.2921 9.40106C20.2954 9.39288 20.3013 9.38595 20.3088 9.38127C20.3163 9.37659 20.325 9.3744 20.3338 9.375C20.3426 9.37436 20.3512 9.3765 20.3587 9.38111C20.3661 9.38572 20.3718 9.39256 20.3751 9.40065L20.8303 10.3305C20.8873 10.4475 20.9722 10.5488 21.0775 10.6254C21.1827 10.702 21.3052 10.7516 21.4341 10.7699L22.4591 10.9153C22.4677 10.9165 22.4758 10.92 22.4824 10.9256C22.4891 10.9312 22.4941 10.9385 22.4968 10.9467C22.4995 10.955 22.4998 10.9638 22.4978 10.9722C22.4957 10.9807 22.4916 10.9883 22.4853 10.9944ZM16.125 8.625H1.125C1.02554 8.625 0.930161 8.66451 0.859835 8.73483C0.789509 8.80516 0.75 8.90054 0.75 9V15C0.750004 15.0657 0.76726 15.1302 0.800039 15.1871C0.832818 15.244 0.879972 15.2914 0.936781 15.3243C0.993589 15.3573 1.05806 15.3748 1.12374 15.375C1.18942 15.3752 1.25401 15.3582 1.31104 15.3256L3.8496 13.875H16.125C16.2245 13.875 16.3198 13.8355 16.3902 13.7652C16.4605 13.6948 16.5 13.5995 16.5 13.5V9C16.5 8.90054 16.4605 8.80516 16.3902 8.73483C16.3198 8.66451 16.2245 8.625 16.125 8.625ZM15.75 13.125H3.75C3.68476 13.1251 3.62066 13.1421 3.56396 13.1744L1.5 14.3537V9.375H15.75V13.125Z" fill="white"/>
<path d="M4.875 11.625H12.375C12.4745 11.625 12.5698 11.5855 12.6402 11.5152C12.7105 11.4448 12.75 11.3495 12.75 11.25C12.75 11.1505 12.7105 11.0552 12.6402 10.9848C12.5698 10.9145 12.4745 10.875 12.375 10.875H4.875C4.77554 10.875 4.68016 10.9145 4.60984 10.9848C4.53951 11.0552 4.5 11.1505 4.5 11.25C4.5 11.3495 4.53951 11.4448 4.60984 11.5152C4.68016 11.5855 4.77554 11.625 4.875 11.625ZM22.5652 18.0476L21.54 17.9022C21.5324 17.9012 21.5252 17.8984 21.519 17.8939C21.5128 17.8894 21.5078 17.8835 21.5045 17.8766L21.0491 16.9462C20.9841 16.812 20.8825 16.6989 20.756 16.62C20.6296 16.541 20.4833 16.4994 20.3342 16.5H20.3338C20.1846 16.4994 20.0383 16.5409 19.9117 16.6199C19.7851 16.6988 19.6834 16.812 19.6183 16.9462L19.1631 17.8764C19.1598 17.8833 19.1548 17.8892 19.1487 17.8936C19.1426 17.8981 19.1354 17.901 19.1279 17.9021L18.1025 18.0475C17.9549 18.0684 17.8162 18.1304 17.7021 18.2263C17.588 18.3222 17.503 18.4482 17.457 18.59C17.4109 18.7318 17.4056 18.8836 17.4416 19.0283C17.4776 19.173 17.5534 19.3046 17.6605 19.4083L18.4043 20.1283C18.4099 20.1336 18.414 20.1402 18.4164 20.1474C18.4188 20.1547 18.4193 20.1625 18.4179 20.17L18.2395 21.1903C18.2133 21.3372 18.2289 21.4886 18.2847 21.627C18.3405 21.7655 18.4341 21.8854 18.5548 21.9732C18.6755 22.0609 18.8185 22.1129 18.9674 22.1231C19.1163 22.1334 19.2651 22.1016 19.3967 22.0312L20.3123 21.546C20.319 21.5427 20.3265 21.5409 20.3341 21.541C20.3417 21.541 20.3491 21.5429 20.3558 21.5464L21.2706 22.0309C21.4023 22.1008 21.5509 22.1324 21.6997 22.122C21.8484 22.1116 21.9912 22.0596 22.1118 21.9721C22.2325 21.8845 22.3261 21.7648 22.382 21.6266C22.438 21.4884 22.454 21.3373 22.4282 21.1904L22.2495 20.1698C22.2483 20.1624 22.2489 20.1548 22.2512 20.1476C22.2536 20.1405 22.2577 20.134 22.2631 20.1288L23.0069 19.4085C23.1139 19.3048 23.1898 19.1732 23.2258 19.0285C23.2617 18.8839 23.2564 18.7321 23.2104 18.5903C23.1644 18.4485 23.0796 18.3225 22.9655 18.2266C22.8514 18.1307 22.7127 18.0687 22.5652 18.0476ZM22.4853 18.8694L21.7412 19.59C21.6479 19.6804 21.578 19.7923 21.5379 19.9159C21.4977 20.0395 21.4885 20.171 21.5109 20.299L21.6892 21.3193C21.6914 21.3279 21.6908 21.3369 21.6875 21.3451C21.6842 21.3533 21.6784 21.3603 21.6709 21.365C21.6642 21.3708 21.6558 21.3742 21.6469 21.3748C21.6381 21.3754 21.6293 21.3731 21.6218 21.3683L20.7071 20.8837C20.5923 20.8226 20.4642 20.7907 20.3342 20.7907C20.2041 20.7907 20.076 20.8226 19.9613 20.8837L19.0457 21.3686C19.0383 21.3733 19.0296 21.3756 19.0208 21.375C19.012 21.3744 19.0037 21.371 18.997 21.3653C18.9895 21.3606 18.9837 21.3536 18.9804 21.3454C18.9771 21.3372 18.9765 21.3281 18.9787 21.3195L19.157 20.3C19.1795 20.1718 19.1702 20.04 19.13 19.9163C19.0897 19.7925 19.0198 19.6804 18.9263 19.5899L18.1822 18.8696C18.176 18.8635 18.1716 18.8558 18.1696 18.8474C18.1675 18.839 18.1679 18.8302 18.1706 18.8219C18.1733 18.8137 18.1782 18.8064 18.1849 18.8008C18.1915 18.7953 18.1996 18.7917 18.2082 18.7905L19.2337 18.645C19.3624 18.6266 19.4847 18.577 19.5898 18.5005C19.695 18.4241 19.7798 18.323 19.8369 18.2062L20.2921 17.2762C20.2954 17.268 20.3012 17.2611 20.3087 17.2563C20.3162 17.2516 20.325 17.2494 20.3338 17.25C20.3426 17.2494 20.3512 17.2515 20.3587 17.2561C20.3661 17.2607 20.3718 17.2676 20.3751 17.2757L20.8303 18.2055C20.8873 18.3225 20.9722 18.4238 21.0775 18.5004C21.1827 18.577 21.3052 18.6266 21.4341 18.6449L22.4591 18.7903C22.4677 18.7915 22.4758 18.795 22.4824 18.8006C22.4891 18.8062 22.4941 18.8135 22.4968 18.8217C22.4995 18.83 22.4998 18.8388 22.4978 18.8472C22.4957 18.8557 22.4916 18.8633 22.4853 18.8694ZM16.125 16.5H1.125C1.02554 16.5 0.930161 16.5395 0.859835 16.6098C0.789509 16.6802 0.75 16.7755 0.75 16.875V22.875C0.750004 22.9407 0.76726 23.0052 0.800039 23.0621C0.832818 23.119 0.879972 23.1664 0.936781 23.1993C0.993589 23.2323 1.05806 23.2498 1.12374 23.25C1.18942 23.2502 1.25401 23.2332 1.31104 23.2006L3.8496 21.75H16.125C16.2245 21.75 16.3198 21.7105 16.3902 21.6402C16.4605 21.5698 16.5 21.4745 16.5 21.375V16.875C16.5 16.7755 16.4605 16.6802 16.3902 16.6098C16.3198 16.5395 16.2245 16.5 16.125 16.5ZM15.75 21H3.75C3.68476 21.0001 3.62066 21.0171 3.56396 21.0494L1.5 22.2287V17.25H15.75V21Z" fill="white"/>
<path d="M4.875 19.5H12.375C12.4745 19.5 12.5698 19.4605 12.6402 19.3902C12.7105 19.3198 12.75 19.2245 12.75 19.125C12.75 19.0255 12.7105 18.9302 12.6402 18.8598C12.5698 18.7895 12.4745 18.75 12.375 18.75H4.875C4.77554 18.75 4.68016 18.7895 4.60984 18.8598C4.53951 18.9302 4.5 19.0255 4.5 19.125C4.5 19.2245 4.53951 19.3198 4.60984 19.3902C4.68016 19.4605 4.77554 19.5 4.875 19.5Z" fill="white"/>
</g>
<defs>
<clipPath id="clip0_1246_1832">
<rect width="24" height="24" fill="white"/>
</clipPath>
</defs>
</svg>
