<svg width="26" height="26" viewBox="0 0 26 26" fill="none" xmlns="http://www.w3.org/2000/svg">
<path fill-rule="evenodd" clip-rule="evenodd" d="M13.002 0C5.828 0 0 5.824 0 12.998C0 20.172 5.828 26 13.002 26C20.176 26 26 20.172 26 12.998C26 5.824 20.176 0 13.002 0ZM13.002 1C14.5779 0.998948 16.1385 1.30857 17.5947 1.91115C19.0508 2.51373 20.3739 3.39746 21.4882 4.51179C22.6025 5.62611 23.4863 6.94918 24.0888 8.40532C24.6914 9.86146 25.0011 11.4221 25 12.998C25 19.631 19.635 24.998 13.002 24.998C6.369 24.998 1 19.631 1 12.998C1 6.365 6.369 1 13.002 1ZM18.504 9.324C18.3912 9.32465 18.282 9.36342 18.194 9.434L10.609 15.285L7.899 11.932C7.85887 11.8779 7.80823 11.8325 7.75012 11.7985C7.692 11.7645 7.62762 11.7425 7.56082 11.734C7.49403 11.7255 7.4262 11.7305 7.3614 11.7489C7.29661 11.7672 7.23618 11.7984 7.18375 11.8407C7.13132 11.8829 7.08797 11.9353 7.05629 11.9948C7.02461 12.0542 7.00526 12.1194 6.9994 12.1865C6.99354 12.2536 7.00129 12.3211 7.02218 12.3851C7.04308 12.4492 7.07669 12.5083 7.121 12.559L10.445 16.676L18.807 10.225C18.8912 10.1619 18.9533 10.0738 18.9845 9.97337C19.0157 9.87291 19.0144 9.76516 18.9809 9.66546C18.9473 9.56575 18.8832 9.47918 18.7975 9.41806C18.7119 9.35693 18.6092 9.32337 18.504 9.324Z" fill="#6645AB"/>
</svg>
