<svg width="30" height="30" viewBox="0 0 30 30" fill="none" xmlns="http://www.w3.org/2000/svg">
<g clip-path="url(#clip0_100_5671)">
<path d="M29.0039 27.3164L22.1016 20.4141C23.8125 18.3281 24.8438 15.6562 24.8438 12.7441C24.8438 6.06445 19.4238 0.644531 12.7441 0.644531C6.05859 0.644531 0.644531 6.06445 0.644531 12.7441C0.644531 19.4238 6.05859 24.8438 12.7441 24.8438C15.6562 24.8438 18.3223 23.8184 20.4082 22.1074L27.3105 29.0039C27.7793 29.4727 28.5352 29.4727 29.0039 29.0039C29.4727 28.541 29.4727 27.7793 29.0039 27.3164ZM12.7441 22.4355C7.39453 22.4355 3.04688 18.0879 3.04688 12.7441C3.04688 7.40039 7.39453 3.04688 12.7441 3.04688C18.0879 3.04688 22.4414 7.40039 22.4414 12.7441C22.4414 18.0879 18.0879 22.4355 12.7441 22.4355Z" fill="#6645AB"/>
</g>
<defs>
<clipPath id="clip0_100_5671">
<rect width="30" height="30" fill="white"/>
</clipPath>
</defs>
</svg>
