<svg width="17" height="18" viewBox="0 0 17 18" fill="none" xmlns="http://www.w3.org/2000/svg">
<path d="M16.7918 16.0427L12.7049 11.9557C13.718 10.7206 14.3286 9.13857 14.3286 7.41429C14.3286 3.45918 11.1194 0.25 7.16429 0.25C3.20571 0.25 0 3.45918 0 7.41429C0 11.3694 3.20571 14.5786 7.16429 14.5786C8.88857 14.5786 10.4671 13.9714 11.7022 12.9584L15.7892 17.0418C16.0667 17.3194 16.5143 17.3194 16.7918 17.0418C17.0694 16.7678 17.0694 16.3167 16.7918 16.0427ZM7.16429 13.1527C3.99673 13.1527 1.42245 10.5784 1.42245 7.41429C1.42245 4.2502 3.99673 1.67245 7.16429 1.67245C10.3284 1.67245 12.9061 4.2502 12.9061 7.41429C12.9061 10.5784 10.3284 13.1527 7.16429 13.1527Z" fill="#A8A8A8"/>
</svg>
