<svg width="21" height="20" viewBox="0 0 21 20" fill="none" xmlns="http://www.w3.org/2000/svg">
<path d="M6.24365 15.7266L3.67334 17.8828C3.58228 17.9582 3.47173 18.0061 3.35451 18.0212C3.23728 18.0363 3.11819 18.0178 3.01105 17.9679C2.90391 17.918 2.81311 17.8387 2.74919 17.7393C2.68526 17.6399 2.65084 17.5244 2.6499 17.4063V5C2.6499 4.83424 2.71575 4.67527 2.83296 4.55806C2.95017 4.44085 3.10914 4.375 3.2749 4.375H17.0249C17.1907 4.375 17.3496 4.44085 17.4668 4.55806C17.5841 4.67527 17.6499 4.83424 17.6499 5V15C17.6499 15.1658 17.5841 15.3247 17.4668 15.4419C17.3496 15.5592 17.1907 15.625 17.0249 15.625H6.53271L6.24365 15.7266Z" stroke="white" stroke-width="1.5" stroke-linecap="square" stroke-linejoin="round"/>
<path d="M7.6499 8.75H12.6499" stroke="white" stroke-width="1.5" stroke-linecap="square" stroke-linejoin="round"/>
<path d="M7.6499 11.25H12.6499" stroke="white" stroke-width="1.5" stroke-linecap="square" stroke-linejoin="round"/>
</svg>
