<svg width="20" height="21" viewBox="0 0 20 21" fill="none" xmlns="http://www.w3.org/2000/svg">
<path fill-rule="evenodd" clip-rule="evenodd" d="M8.5 0.75C8.32668 0.750105 8.15875 0.810234 8.02475 0.920165C7.89076 1.0301 7.79897 1.18304 7.765 1.353L7.395 3.204C7.152 3.29 6.914 3.388 6.682 3.497L5.113 2.452C4.96885 2.35583 4.79584 2.31254 4.62339 2.32949C4.45093 2.34645 4.28966 2.4226 4.167 2.545L2.045 4.667C1.9226 4.78966 1.84645 4.95093 1.82949 5.12339C1.81254 5.29584 1.85583 5.46885 1.952 5.613L2.998 7.182C2.888 7.414 2.79 7.652 2.704 7.894L0.853 8.264C0.682874 8.298 0.529799 8.38994 0.419848 8.52414C0.309898 8.65834 0.249874 8.82651 0.25 9V12C0.250105 12.1733 0.310234 12.3413 0.420165 12.4752C0.530096 12.6092 0.683043 12.701 0.853 12.735L2.704 13.105C2.79 13.348 2.888 13.586 2.997 13.818L1.952 15.387C1.85583 15.5312 1.81254 15.7042 1.82949 15.8766C1.84645 16.0491 1.9226 16.2103 2.045 16.333L4.167 18.455C4.28966 18.5774 4.45093 18.6536 4.62339 18.6705C4.79584 18.6875 4.96885 18.6442 5.113 18.548L6.682 17.503C6.914 17.612 7.152 17.71 7.394 17.796L7.764 19.647C7.798 19.8171 7.88994 19.9702 8.02414 20.0802C8.15834 20.1901 8.32651 20.2501 8.5 20.25H11.5C11.6733 20.2499 11.8413 20.1898 11.9752 20.0798C12.1092 19.9699 12.201 19.817 12.235 19.647L12.605 17.796C12.848 17.71 13.086 17.612 13.318 17.503L14.887 18.548C15.0312 18.6442 15.2042 18.6875 15.3766 18.6705C15.5491 18.6536 15.7103 18.5774 15.833 18.455L17.955 16.333C18.0774 16.2103 18.1536 16.0491 18.1705 15.8766C18.1875 15.7042 18.1442 15.5312 18.048 15.387L17.003 13.818C17.112 13.586 17.21 13.348 17.296 13.106L19.147 12.736C19.3171 12.702 19.4702 12.6101 19.5802 12.4759C19.6901 12.3417 19.7501 12.1735 19.75 12V9C19.7499 8.82668 19.6898 8.65875 19.5798 8.52475C19.4699 8.39076 19.317 8.29897 19.147 8.265L17.296 7.895C17.2103 7.65259 17.1125 7.41463 17.003 7.182L18.048 5.613C18.1442 5.46885 18.1875 5.29584 18.1705 5.12339C18.1536 4.95093 18.0774 4.78966 17.955 4.667L15.833 2.545C15.7103 2.4226 15.5491 2.34645 15.3766 2.32949C15.2042 2.31254 15.0312 2.35583 14.887 2.452L13.318 3.498C13.0857 3.38822 12.8481 3.2901 12.606 3.204L12.236 1.353C12.202 1.18287 12.1101 1.0298 11.9759 0.919848C11.8417 0.809898 11.6735 0.749874 11.5 0.75H8.5ZM8.78 3.93L9.115 2.25H10.885L11.221 3.93C11.2478 4.06435 11.3109 4.18879 11.4035 4.2898C11.496 4.39082 11.6145 4.46455 11.746 4.503C12.192 4.633 12.614 4.806 13.007 5.023C13.1274 5.0891 13.2636 5.12088 13.4008 5.11489C13.5379 5.10889 13.6709 5.06535 13.785 4.989L15.207 4.041L16.459 5.293L15.511 6.715C15.4348 6.82923 15.3914 6.96219 15.3856 7.09938C15.3798 7.23657 15.4118 7.37272 15.478 7.493C15.694 7.885 15.868 8.308 15.998 8.753C16.0362 8.88455 16.1097 9.00313 16.2106 9.09586C16.3114 9.18859 16.4357 9.25193 16.57 9.279L18.25 9.615V11.385L16.57 11.721C16.4356 11.7478 16.3112 11.8109 16.2102 11.9035C16.1092 11.996 16.0354 12.1145 15.997 12.246C15.867 12.692 15.694 13.114 15.477 13.507C15.4109 13.6274 15.3791 13.7636 15.3851 13.9008C15.3911 14.0379 15.4347 14.1709 15.511 14.285L16.459 15.707L15.207 16.959L13.785 16.011C13.6708 15.9348 13.5378 15.8914 13.4006 15.8856C13.2634 15.8798 13.1273 15.9118 13.007 15.978C12.615 16.194 12.192 16.368 11.747 16.498C11.6154 16.5362 11.4969 16.6097 11.4041 16.7106C11.3114 16.8114 11.2481 16.9357 11.221 17.07L10.885 18.75H9.115L8.779 17.07C8.75217 16.9356 8.68906 16.8112 8.59651 16.7102C8.50395 16.6092 8.3855 16.5354 8.254 16.497C7.81587 16.3704 7.39299 16.1961 6.993 15.977C6.87263 15.9109 6.73643 15.8791 6.59924 15.8851C6.46205 15.8911 6.32914 15.9347 6.215 16.011L4.793 16.959L3.541 15.707L4.489 14.285C4.56519 14.1708 4.60856 14.0378 4.61438 13.9006C4.6202 13.7634 4.58825 13.6273 4.522 13.507C4.30283 13.1074 4.12844 12.6849 4.002 12.247C3.96379 12.1154 3.89027 11.9969 3.78944 11.9041C3.6886 11.8114 3.56429 11.7481 3.43 11.721L1.75 11.385V9.615L3.43 9.279C3.56435 9.25217 3.68879 9.18906 3.7898 9.09651C3.89082 9.00395 3.96455 8.8855 4.003 8.754C4.133 8.308 4.306 7.886 4.523 7.493C4.5891 7.37263 4.62088 7.23643 4.61489 7.09924C4.60889 6.96205 4.56535 6.82914 4.489 6.715L3.541 5.293L4.793 4.04L6.215 4.988C6.32923 5.06419 6.46219 5.10756 6.59938 5.11338C6.73657 5.1192 6.87272 5.08725 6.993 5.021C7.385 4.805 7.808 4.631 8.253 4.501C8.38455 4.46279 8.50313 4.38927 8.59586 4.28844C8.68859 4.1876 8.75193 4.06329 8.779 3.929L8.78 3.93ZM7.75 10.5C7.75 9.90326 7.98705 9.33097 8.40901 8.90901C8.83097 8.48705 9.40326 8.25 10 8.25C10.5967 8.25 11.169 8.48705 11.591 8.90901C12.0129 9.33097 12.25 9.90326 12.25 10.5C12.25 11.0967 12.0129 11.669 11.591 12.091C11.169 12.5129 10.5967 12.75 10 12.75C9.40326 12.75 8.83097 12.5129 8.40901 12.091C7.98705 11.669 7.75 11.0967 7.75 10.5ZM10 6.75C9.00544 6.75 8.05161 7.14509 7.34835 7.84835C6.64509 8.55161 6.25 9.50544 6.25 10.5C6.25 11.4946 6.64509 12.4484 7.34835 13.1517C8.05161 13.8549 9.00544 14.25 10 14.25C10.9946 14.25 11.9484 13.8549 12.6517 13.1517C13.3549 12.4484 13.75 11.4946 13.75 10.5C13.75 9.50544 13.3549 8.55161 12.6517 7.84835C11.9484 7.14509 10.9946 6.75 10 6.75Z" fill="white"/>
</svg>
