<svg width="66" height="63" viewBox="0 0 66 63" fill="none" xmlns="http://www.w3.org/2000/svg">
<path d="M53.0604 62.8207C50.7123 64.4969 35.6461 53.8715 32.7606 53.8481C29.8751 53.825 14.6392 64.2059 12.3186 62.4921C9.9979 60.7782 15.4537 43.1749 14.5842 40.4252C13.7148 37.6756 -0.872584 26.4022 0.0411796 23.6668C0.955144 20.9314 19.3932 20.6774 21.7413 19.0012C24.0893 17.3252 30.3098 -0.0231288 33.1955 2.31519e-05C36.0808 0.0233765 42.0203 17.4697 44.341 19.1836C46.6616 20.8972 65.0934 21.4488 65.9631 24.1985C66.8325 26.9481 52.0652 37.9848 51.1513 40.7202C50.2375 43.4555 55.4085 61.1445 53.0604 62.8207Z" fill="url(#paint0_linear_164_8110)"/>
<defs>
<linearGradient id="paint0_linear_164_8110" x1="8.44798e-05" y1="31.5" x2="66" y2="31.5" gradientUnits="userSpaceOnUse">
<stop stop-color="#FCD635"/>
<stop offset="1" stop-color="#F7A928"/>
</linearGradient>
</defs>
</svg>
