<svg width="15" height="16" viewBox="0 0 15 16" fill="none" xmlns="http://www.w3.org/2000/svg">
<path d="M12.0478 15.0955C11.5146 15.4752 8.09371 13.068 7.43853 13.0627C6.78335 13.0575 3.32395 15.4093 2.79702 15.021C2.2701 14.6328 3.50887 10.6447 3.31146 10.0217C3.11404 9.39879 -0.198126 6.84476 0.00935014 6.22506C0.216873 5.60536 4.40337 5.5478 4.93651 5.16805C5.46966 4.78835 6.88206 0.858041 7.53729 0.863286C8.19242 0.868577 9.54102 4.8211 10.0679 5.20937C10.5949 5.59761 14.7799 5.72258 14.9774 6.34552C15.1748 6.96846 11.8218 9.46884 11.6143 10.0885C11.4068 10.7083 12.5809 14.7157 12.0478 15.0955Z" fill="url(#paint0_linear_103_8253)"/>
<defs>
<linearGradient id="paint0_linear_103_8253" x1="1.91818e-05" y1="7.9997" x2="14.9858" y2="7.9997" gradientUnits="userSpaceOnUse">
<stop stop-color="#FCD635"/>
<stop offset="1" stop-color="#F7A928"/>
</linearGradient>
</defs>
</svg>
