<svg width="24" height="24" viewBox="0 0 24 24" fill="none" xmlns="http://www.w3.org/2000/svg">
<path d="M7.54688 16.9997H6.60938C6.47991 16.9997 6.375 17.1489 6.375 17.333C6.375 17.5171 6.47991 17.6663 6.60938 17.6663H7.54688C7.67634 17.6663 7.78125 17.5171 7.78125 17.333C7.78125 17.1489 7.67634 16.9997 7.54688 16.9997ZM6.375 15.9997C6.375 16.1838 6.47991 16.333 6.60938 16.333H7.54688C7.67634 16.333 7.78125 16.1838 7.78125 15.9997C7.78125 15.8155 7.67634 15.6663 7.54688 15.6663H6.60938C6.47991 15.6663 6.375 15.8155 6.375 15.9997ZM14.1094 16.9997H13.1719C13.0424 16.9997 12.9375 17.1489 12.9375 17.333C12.9375 17.5171 13.0424 17.6663 13.1719 17.6663H14.1094C14.2388 17.6663 14.3438 17.5171 14.3438 17.333C14.3438 17.1489 14.2388 16.9997 14.1094 16.9997ZM12.9375 15.9997C12.9375 16.1838 13.0424 16.333 13.1719 16.333H14.1094C14.2388 16.333 14.3438 16.1838 14.3438 15.9997C14.3438 15.8155 14.2388 15.6663 14.1094 15.6663H13.1719C13.0424 15.6663 12.9375 15.8155 12.9375 15.9997ZM20.6719 16.9997H19.7344C19.6049 16.9997 19.5 17.1489 19.5 17.333C19.5 17.5171 19.6049 17.6663 19.7344 17.6663H20.6719C20.8013 17.6663 20.9062 17.5171 20.9062 17.333C20.9062 17.1489 20.8013 16.9997 20.6719 16.9997ZM20.6719 15.6663H19.7344C19.6049 15.6663 19.5 15.8155 19.5 15.9997C19.5 16.1838 19.6049 16.333 19.7344 16.333H20.6719C20.8013 16.333 20.9062 16.1838 20.9062 15.9997C20.9062 15.8155 20.8013 15.6663 20.6719 15.6663ZM10.8281 7.66634H9.89062C9.76116 7.66634 9.65625 7.81554 9.65625 7.99967C9.65625 8.18381 9.76116 8.33301 9.89062 8.33301H10.8281C10.9576 8.33301 11.0625 8.18381 11.0625 7.99967C11.0625 7.81554 10.9576 7.66634 10.8281 7.66634ZM10.8281 6.33301H9.89062C9.76116 6.33301 9.65625 6.48221 9.65625 6.66634C9.65625 6.85047 9.76116 6.99967 9.89062 6.99967H10.8281C10.9576 6.99967 11.0625 6.85047 11.0625 6.66634C11.0625 6.48221 10.9576 6.33301 10.8281 6.33301ZM17.3906 7.66634H16.4531C16.3237 7.66634 16.2188 7.81554 16.2188 7.99967C16.2188 8.18381 16.3237 8.33301 16.4531 8.33301H17.3906C17.5201 8.33301 17.625 8.18381 17.625 7.99967C17.625 7.81554 17.5201 7.66634 17.3906 7.66634ZM17.3906 6.33301H16.4531C16.3237 6.33301 16.2188 6.48221 16.2188 6.66634C16.2188 6.85047 16.3237 6.99967 16.4531 6.99967H17.3906C17.5201 6.99967 17.625 6.85047 17.625 6.66634C17.625 6.48221 17.5201 6.33301 17.3906 6.33301Z" fill="#6645AB"/>
<path d="M23.7188 18.6667H21.8438V9.66667C21.8438 9.48253 21.7388 9.33333 21.6094 9.33333C21.2295 9.33333 19.4772 9.33333 18.5625 9.33333V0.333333C18.5625 0.1492 18.4576 0 18.3281 0C14.2266 0 9.30469 0 5.20312 0C5.07366 0 4.96875 0.1492 4.96875 0.333333V9.33333C4.68211 9.33333 2.65898 9.33333 1.92188 9.33333C1.79241 9.33333 1.6875 9.48253 1.6875 9.66667V18.6667H0.28125C0.151781 18.6667 0.046875 18.8159 0.046875 19V21.6667C0.046875 21.8508 0.151781 22 0.28125 22H1.6875V23.6667C1.6875 23.8508 1.79241 24 1.92188 24H6.14062C6.2415 24 6.33108 23.9082 6.36295 23.7721L6.77827 22H17.2217L17.637 23.7721C17.6689 23.9082 17.7585 24 17.8593 24H22.0781C22.2075 24 22.3125 23.8508 22.3125 23.6667V22H23.7187C23.8482 22 23.9531 21.8508 23.9531 21.6667V19C23.9531 18.8159 23.8482 18.6667 23.7188 18.6667ZM19.7344 10H21.375V11.6667H19.7344V10ZM16.4531 0.666667H18.0938V2.33333H16.4531V0.666667ZM12 0.666667H13.6406V2.33333H12V0.666667ZM12 3H13.6406V4.28587C13.6406 4.2928 13.6418 4.29927 13.6421 4.30607C13.625 4.6022 13.87 4.77893 14.028 4.58647L14.4615 4.0582L14.8947 4.5864C14.9825 4.6934 15.112 4.6934 15.1998 4.5864L15.633 4.05827L16.0662 4.5864C16.225 4.78007 16.4708 4.60107 16.4519 4.3034C16.454 4.24647 16.4528 3.4534 16.4531 3H18.0938V9.33333C17.4349 9.33333 12.6704 9.33333 12 9.33333V3ZM16.9219 10V11.6667H15.2812V10H16.9219ZM9.89062 0.666667H11.5312V2.33333H9.89062V0.666667ZM5.4375 0.666667H7.07812V2.33333H5.4375V0.666667ZM5.4375 3H7.07812C7.07864 3.569 7.077 4.2454 7.07958 4.30607C7.06252 4.6022 7.30748 4.77893 7.46555 4.58647L7.89905 4.0582L8.33217 4.5864C8.41997 4.6934 8.54948 4.6934 8.63728 4.5864L9.07055 4.05827L9.50367 4.5864C9.66253 4.78007 9.90825 4.60107 9.88941 4.3034C9.89152 4.24647 9.8903 3.4534 9.89062 3H11.5312V9.33333C10.8724 9.33333 6.10791 9.33333 5.4375 9.33333V3ZM10.3594 10V11.6667H8.71875V10H10.3594ZM2.15625 10H3.79688V11.6667H2.15625V10ZM5.97169 23.3333H2.15625V22H6.2842L5.97169 23.3333ZM8.25 18.6667H2.15625V12.3333H3.79688C3.79739 12.9023 3.79575 13.5787 3.79833 13.6394C3.78136 13.9336 4.02473 14.1141 4.1843 13.9198L4.6178 13.3915L5.05092 13.9197C5.13872 14.0267 5.26823 14.0267 5.35603 13.9197L5.7893 13.3916L6.22242 13.9197C6.38128 14.1134 6.627 13.9344 6.60816 13.6367C6.61027 13.5798 6.60905 12.7867 6.60938 12.3333H8.25V18.6667ZM8.25 11.6667H6.60938V10H8.25V11.6667ZM14.8125 18.6667H8.71875V12.3333H10.3594C10.3599 12.9023 10.3583 13.5787 10.3608 13.6394C10.3438 13.9355 10.5887 14.1123 10.7468 13.9198L11.1803 13.3915L11.6134 13.9197C11.7012 14.0267 11.8307 14.0267 11.9185 13.9197L12.3518 13.3916L12.7849 13.9197C12.9438 14.1134 13.1895 13.9344 13.1707 13.6367C13.1728 13.5798 13.1715 12.7867 13.1719 12.3333H14.8125V18.6667ZM14.8125 11.6667H13.1719V10H14.8125V11.6667ZM15.2812 18.6667V12.3333H16.9219C16.9224 12.9023 16.9207 13.5787 16.9233 13.6394C16.9063 13.9355 17.1512 14.1123 17.3093 13.9198L17.7428 13.3915L18.1759 13.9197C18.2637 14.0267 18.3932 14.0267 18.481 13.9197L18.9143 13.3916L19.3474 13.9197C19.5068 14.114 19.752 13.9338 19.7332 13.6367C19.7353 13.5798 19.734 12.7867 19.7344 12.3333H21.375V18.6667H15.2812ZM21.8438 23.3333H18.0283L17.7158 22H21.8438V23.3333Z" fill="#6645AB"/>
</svg>
