<svg width="24" height="24" viewBox="0 0 24 24" fill="none" xmlns="http://www.w3.org/2000/svg">
<path d="M12.0273 0H11.9727C5.36035 0 0 5.36035 0 11.9727V12.0273C0 18.6397 5.36035 24 11.9727 24H12.0273C18.6397 24 24 18.6397 24 12.0273V11.9727C24 5.36035 18.6397 0 12.0273 0Z" fill="black"/>
<path d="M18.0847 9.53204V11.7981C17.6886 11.7594 17.174 11.6694 16.6048 11.4609C15.8615 11.1885 15.3082 10.816 14.9458 10.5276V15.1076L14.9366 15.0933C14.9425 15.1841 14.9458 15.2766 14.9458 15.37C14.9458 17.6444 13.0951 19.496 10.8198 19.496C8.54453 19.496 6.69385 17.6444 6.69385 15.37C6.69385 13.0955 8.54453 11.2431 10.8198 11.2431C11.0427 11.2431 11.2613 11.2608 11.4748 11.2953V13.5285C11.2697 13.4554 11.0494 13.4159 10.8198 13.4159C9.74272 13.4159 8.86573 14.292 8.86573 15.37C8.86573 16.4479 9.74272 17.3241 10.8198 17.3241C11.8969 17.3241 12.7739 16.4471 12.7739 15.37C12.7739 15.3296 12.7731 15.2892 12.7706 15.2489V6.34863H15.0349C15.0434 6.54034 15.0509 6.73374 15.0593 6.92545C15.0745 7.30298 15.209 7.66538 15.4436 7.9622C15.7186 8.31115 16.1247 8.71643 16.6948 9.04015C17.2287 9.34285 17.7298 9.47234 18.0847 9.53372V9.53204Z" fill="#FF004F"/>
<path d="M17.3061 7.69193V9.95798C16.9101 9.9193 16.3955 9.82933 15.8262 9.6208C15.0829 9.34837 14.5296 8.97588 14.1672 8.68748V13.2675L14.158 13.2532C14.1639 13.344 14.1672 13.4365 14.1672 13.5299C14.1672 15.8043 12.3166 17.6558 10.0413 17.6558C7.76596 17.6558 5.91528 15.8043 5.91528 13.5299C5.91528 11.2554 7.76596 9.40303 10.0413 9.40303C10.2641 9.40303 10.4827 9.42069 10.6963 9.45516V11.6884C10.4911 11.6153 10.2708 11.5757 10.0413 11.5757C8.96416 11.5757 8.08716 12.4519 8.08716 13.5299C8.08716 14.6078 8.96416 15.484 10.0413 15.484C11.1184 15.484 11.9954 14.607 11.9954 13.5299C11.9954 13.4895 11.9945 13.4491 11.992 13.4088V4.50684H14.2564C14.2648 4.69855 14.2724 4.89194 14.2808 5.08365C14.2959 5.46119 14.4304 5.82359 14.665 6.1204C14.94 6.46935 15.3461 6.87463 15.9162 7.19835C16.4501 7.50021 16.9513 7.63054 17.3061 7.69193Z" fill="#00F7EF"/>
<path d="M17.8015 8.68243V10.9485C17.4054 10.9098 16.8908 10.8198 16.3216 10.6113C15.5783 10.3389 15.025 9.96639 14.6626 9.67798V14.258L14.6534 14.2437C14.6593 14.3345 14.6626 14.427 14.6626 14.5204C14.6626 16.7948 12.8119 18.6463 10.5366 18.6463C8.26133 18.6463 6.41064 16.7948 6.41064 14.5204C6.41064 12.2459 8.26133 10.3935 10.5366 10.3935C10.7595 10.3935 10.9781 10.4112 11.1916 10.4457V12.6789C10.9865 12.6058 10.7662 12.5663 10.5366 12.5663C9.45952 12.5663 8.58253 13.4424 8.58253 14.5204C8.58253 15.5983 9.45952 16.4745 10.5366 16.4745C11.6137 16.4745 12.4907 15.5975 12.4907 14.5204C12.4907 14.48 12.4899 14.4396 12.4874 14.3993V5.49902H14.7517C14.7602 5.69073 14.7677 5.88413 14.7761 6.07584C14.7913 6.45337 14.9258 6.81577 15.1604 7.11259C15.4353 7.46154 15.8415 7.86682 16.4116 8.19054C16.9455 8.4924 17.4466 8.62273 17.8015 8.68411V8.68243Z" fill="white"/>
</svg>
