<svg width="5" height="17" viewBox="0 0 5 17" fill="none" xmlns="http://www.w3.org/2000/svg">
<path d="M2.80005 7.96706C2.57913 7.96706 2.36725 8.05482 2.21103 8.21104C2.05482 8.36725 1.96705 8.57913 1.96705 8.80006C1.96705 9.02098 2.05482 9.23286 2.21103 9.38908C2.36725 9.54529 2.57913 9.63306 2.80005 9.63306C3.02098 9.63306 3.23285 9.54529 3.38907 9.38908C3.54529 9.23286 3.63305 9.02098 3.63305 8.80006C3.63305 8.57913 3.54529 8.36725 3.38907 8.21104C3.23285 8.05482 3.02098 7.96706 2.80005 7.96706ZM2.80005 13.8001C2.57899 13.8001 2.36699 13.8879 2.21068 14.0442C2.05437 14.2005 1.96655 14.4125 1.96655 14.6336C1.96655 14.8546 2.05437 15.0666 2.21068 15.2229C2.36699 15.3792 2.57899 15.4671 2.80005 15.4671C3.02111 15.4671 3.23311 15.3792 3.38943 15.2229C3.54574 15.0666 3.63355 14.8546 3.63355 14.6336C3.63355 14.4125 3.54574 14.2005 3.38943 14.0442C3.23311 13.8879 3.02111 13.8001 2.80005 13.8001ZM2.80005 2.13306C2.6906 2.13306 2.58221 2.15462 2.48109 2.1965C2.37996 2.23839 2.28808 2.29979 2.21068 2.37718C2.13328 2.45458 2.07189 2.54647 2.03 2.64759C1.98811 2.74871 1.96655 2.8571 1.96655 2.96656C1.96655 3.07601 1.98811 3.1844 2.03 3.28552C2.07189 3.38665 2.13328 3.47853 2.21068 3.55593C2.28808 3.63333 2.37996 3.69472 2.48109 3.73661C2.58221 3.7785 2.6906 3.80006 2.80005 3.80006C3.02111 3.80006 3.23311 3.71224 3.38943 3.55593C3.54574 3.39962 3.63355 3.18761 3.63355 2.96656C3.63355 2.7455 3.54574 2.53349 3.38943 2.37718C3.23311 2.22087 3.02111 2.13306 2.80005 2.13306Z" stroke="white" stroke-width="1.667" stroke-linecap="round" stroke-linejoin="round"/>
</svg>
