<svg width="22" height="11" viewBox="0 0 22 11" fill="none" xmlns="http://www.w3.org/2000/svg">
<path d="M20.75 4.75H20V2.5C20 1.90326 19.7629 1.33097 19.341 0.909009C18.919 0.487053 18.3467 0.25 17.75 0.25H15.5C14.9033 0.25 14.331 0.487053 13.909 0.909009C13.4871 1.33097 13.25 1.90326 13.25 2.5V4.75H8.75V2.5C8.75 1.90326 8.51295 1.33097 8.09099 0.909009C7.66903 0.487053 7.09674 0.25 6.5 0.25H4.25C3.65326 0.25 3.08097 0.487053 2.65901 0.909009C2.23705 1.33097 2 1.90326 2 2.5V4.75H1.25C1.05109 4.75 0.860322 4.82902 0.71967 4.96967C0.579018 5.11032 0.5 5.30109 0.5 5.5C0.5 5.69891 0.579018 5.88968 0.71967 6.03033C0.860322 6.17098 1.05109 6.25 1.25 6.25H2V8.5C2 9.09674 2.23705 9.66903 2.65901 10.091C3.08097 10.5129 3.65326 10.75 4.25 10.75H6.5C7.09674 10.75 7.66903 10.5129 8.09099 10.091C8.51295 9.66903 8.75 9.09674 8.75 8.5V6.25H13.25V8.5C13.25 9.09674 13.4871 9.66903 13.909 10.091C14.331 10.5129 14.9033 10.75 15.5 10.75H17.75C18.3467 10.75 18.919 10.5129 19.341 10.091C19.7629 9.66903 20 9.09674 20 8.5V6.25H20.75C20.9489 6.25 21.1397 6.17098 21.2803 6.03033C21.421 5.88968 21.5 5.69891 21.5 5.5C21.5 5.30109 21.421 5.11032 21.2803 4.96967C21.1397 4.82902 20.9489 4.75 20.75 4.75ZM7.25 8.5C7.25 8.69891 7.17098 8.88968 7.03033 9.03033C6.88968 9.17098 6.69891 9.25 6.5 9.25H4.25C4.05109 9.25 3.86032 9.17098 3.71967 9.03033C3.57902 8.88968 3.5 8.69891 3.5 8.5V2.5C3.5 2.30109 3.57902 2.11032 3.71967 1.96967C3.86032 1.82902 4.05109 1.75 4.25 1.75H6.5C6.69891 1.75 6.88968 1.82902 7.03033 1.96967C7.17098 2.11032 7.25 2.30109 7.25 2.5V8.5ZM18.5 8.5C18.5 8.69891 18.421 8.88968 18.2803 9.03033C18.1397 9.17098 17.9489 9.25 17.75 9.25H15.5C15.3011 9.25 15.1103 9.17098 14.9697 9.03033C14.829 8.88968 14.75 8.69891 14.75 8.5V2.5C14.75 2.30109 14.829 2.11032 14.9697 1.96967C15.1103 1.82902 15.3011 1.75 15.5 1.75H17.75C17.9489 1.75 18.1397 1.82902 18.2803 1.96967C18.421 2.11032 18.5 2.30109 18.5 2.5V8.5Z" fill="white"/>
</svg>
