<svg width="24" height="15" viewBox="0 0 24 15" fill="none" xmlns="http://www.w3.org/2000/svg">
<path d="M22.125 0.5H1.875C1.37772 0.5 0.900805 0.694078 0.549175 1.03954C0.197544 1.385 0 1.85355 0 2.34211L0 12.6579C0 13.1465 0.197544 13.615 0.549175 13.9605C0.900805 14.3059 1.37772 14.5 1.875 14.5H22.125C22.6223 14.5 23.0992 14.3059 23.4508 13.9605C23.8025 13.615 24 13.1465 24 12.6579V2.34211C24 1.85355 23.8025 1.385 23.4508 1.03954C23.0992 0.694078 22.6223 0.5 22.125 0.5ZM0.75 2.34211C0.75 2.04897 0.868526 1.76784 1.0795 1.56057C1.29048 1.35329 1.57663 1.23684 1.875 1.23684H3.36225C3.6119 1.55324 3.74821 1.94178 3.75 2.34211C3.75 2.83066 3.55246 3.29921 3.20083 3.64467C2.84919 3.99013 2.37228 4.18421 1.875 4.18421C1.46752 4.18245 1.07205 4.04853 0.75 3.80326V2.34211ZM3.36225 13.7632H1.875C1.57663 13.7632 1.29048 13.6467 1.0795 13.4394C0.868526 13.2322 0.75 12.951 0.75 12.6579V11.1967C1.07205 10.9515 1.46752 10.8175 1.875 10.8158C2.37228 10.8158 2.84919 11.0099 3.20083 11.3553C3.55246 11.7008 3.75 12.1693 3.75 12.6579C3.74821 13.0582 3.6119 13.4468 3.36225 13.7632ZM23.25 12.6579C23.25 12.951 23.1315 13.2322 22.9205 13.4394C22.7095 13.6467 22.4234 13.7632 22.125 13.7632H20.6378C20.3881 13.4468 20.2518 13.0582 20.25 12.6579C20.25 12.1693 20.4475 11.7008 20.7992 11.3553C21.1508 11.0099 21.6277 10.8158 22.125 10.8158C22.5325 10.8175 22.928 10.9515 23.25 11.1967V12.6579ZM23.25 10.3405C22.8998 10.1714 22.5152 10.082 22.125 10.0789C21.4288 10.0789 20.7611 10.3507 20.2688 10.8343C19.7766 11.3179 19.5 11.9739 19.5 12.6579C19.5031 13.0413 19.5941 13.4191 19.7663 13.7632H4.23375C4.40587 13.4191 4.49687 13.0413 4.5 12.6579C4.5 11.9739 4.22344 11.3179 3.73116 10.8343C3.23887 10.3507 2.57119 10.0789 1.875 10.0789C1.48476 10.082 1.10024 10.1714 0.75 10.3405V4.65947C1.10024 4.82857 1.48476 4.91798 1.875 4.92105C2.57119 4.92105 3.23887 4.64934 3.73116 4.1657C4.22344 3.68205 4.5 3.02608 4.5 2.34211C4.49687 1.95871 4.40587 1.58094 4.23375 1.23684H19.7663C19.5941 1.58094 19.5031 1.95871 19.5 2.34211C19.5 3.02608 19.7766 3.68205 20.2688 4.1657C20.7611 4.64934 21.4288 4.92105 22.125 4.92105C22.5152 4.91798 22.8998 4.82857 23.25 4.65947V10.3405ZM23.25 3.80326C22.928 4.04853 22.5325 4.18245 22.125 4.18421C21.6277 4.18421 21.1508 3.99013 20.7992 3.64467C20.4475 3.29921 20.25 2.83066 20.25 2.34211C20.2518 1.94178 20.3881 1.55324 20.6378 1.23684H22.125C22.4234 1.23684 22.7095 1.35329 22.9205 1.56057C23.1315 1.76784 23.25 2.04897 23.25 2.34211V3.80326ZM11.625 5.65789H12.375C12.5739 5.65789 12.7647 5.73553 12.9053 5.87371C13.046 6.0119 13.125 6.19931 13.125 6.39474C13.125 6.49245 13.1645 6.58616 13.2348 6.65525C13.3052 6.72434 13.4005 6.76316 13.5 6.76316C13.5995 6.76316 13.6948 6.72434 13.7652 6.65525C13.8355 6.58616 13.875 6.49245 13.875 6.39474C13.875 6.00389 13.717 5.62905 13.4357 5.35268C13.1544 5.07632 12.7728 4.92105 12.375 4.92105V4.55263C12.375 4.45492 12.3355 4.36121 12.2652 4.29212C12.1948 4.22303 12.0995 4.18421 12 4.18421C11.9005 4.18421 11.8052 4.22303 11.7348 4.29212C11.6645 4.36121 11.625 4.45492 11.625 4.55263V4.92105C11.2272 4.92105 10.8456 5.07632 10.5643 5.35268C10.283 5.62905 10.125 6.00389 10.125 6.39474C10.125 6.78558 10.283 7.16042 10.5643 7.43679C10.8456 7.71316 11.2272 7.86842 11.625 7.86842H12.375C12.5739 7.86842 12.7647 7.94605 12.9053 8.08424C13.046 8.22242 13.125 8.40984 13.125 8.60526C13.125 8.80069 13.046 8.9881 12.9053 9.12629C12.7647 9.26447 12.5739 9.3421 12.375 9.3421H11.625C11.4261 9.3421 11.2353 9.26447 11.0947 9.12629C10.954 8.9881 10.875 8.80069 10.875 8.60526C10.875 8.50755 10.8355 8.41384 10.7652 8.34475C10.6948 8.27566 10.5995 8.23684 10.5 8.23684C10.4005 8.23684 10.3052 8.27566 10.2348 8.34475C10.1645 8.41384 10.125 8.50755 10.125 8.60526C10.125 8.99611 10.283 9.37095 10.5643 9.64732C10.8456 9.92368 11.2272 10.0789 11.625 10.0789V10.4474C11.625 10.5451 11.6645 10.6388 11.7348 10.7079C11.8052 10.777 11.9005 10.8158 12 10.8158C12.0995 10.8158 12.1948 10.777 12.2652 10.7079C12.3355 10.6388 12.375 10.5451 12.375 10.4474V10.0789C12.7728 10.0789 13.1544 9.92368 13.4357 9.64732C13.717 9.37095 13.875 8.99611 13.875 8.60526C13.875 8.21442 13.717 7.83958 13.4357 7.56321C13.1544 7.28684 12.7728 7.13158 12.375 7.13158H11.625C11.4261 7.13158 11.2353 7.05395 11.0947 6.91576C10.954 6.77758 10.875 6.59016 10.875 6.39474C10.875 6.19931 10.954 6.0119 11.0947 5.87371C11.2353 5.73553 11.4261 5.65789 11.625 5.65789ZM12 2.71053C11.0358 2.71053 10.0933 2.99142 9.2916 3.5177C8.48991 4.04397 7.86506 4.79199 7.49609 5.66715C7.12711 6.54231 7.03057 7.50531 7.21867 8.43438C7.40677 9.36345 7.87107 10.2168 8.55285 10.8867C9.23464 11.5565 10.1033 12.0126 11.0489 12.1974C11.9946 12.3822 12.9748 12.2874 13.8656 11.9249C14.7564 11.5624 15.5177 10.9485 16.0534 10.1609C16.5891 9.37326 16.875 8.44727 16.875 7.5C16.8734 6.23023 16.3593 5.01292 15.4454 4.11505C14.5315 3.21719 13.2924 2.71209 12 2.71053ZM12 11.5526C11.1842 11.5526 10.3866 11.3149 9.70827 10.8696C9.02992 10.4243 8.50121 9.7914 8.189 9.05087C7.87679 8.31035 7.7951 7.4955 7.95426 6.70937C8.11343 5.92324 8.50629 5.20113 9.08318 4.63436C9.66008 4.06759 10.3951 3.68161 11.1953 3.52524C11.9954 3.36887 12.8248 3.44912 13.5786 3.75586C14.3323 4.06259 14.9766 4.58203 15.4298 5.24848C15.8831 5.91493 16.125 6.69846 16.125 7.5C16.1238 8.57447 15.6888 9.60459 14.9155 10.3644C14.1422 11.1241 13.0937 11.5515 12 11.5526Z" fill="white"/>
</svg>
