<svg width="24" height="24" viewBox="0 0 24 24" fill="none" xmlns="http://www.w3.org/2000/svg">
<path d="M17.746 15.124C19.138 15.814 20.332 16.923 21.203 18.309C21.375 18.584 21.462 18.721 21.491 18.911C21.552 19.297 21.285 19.771 20.921 19.925C20.741 20 20.54 20 20.137 20M15.834 11.058C16.5489 10.7107 17.152 10.1696 17.5745 9.49638C17.997 8.82316 18.2221 8.04483 18.224 7.25C18.222 6.45519 17.9969 5.67692 17.5744 5.00372C17.1518 4.33051 16.5489 3.78942 15.834 3.442M13.922 7.25C13.922 9.597 11.995 11.5 9.619 11.5C7.243 11.5 5.317 9.597 5.317 7.25C5.317 4.903 7.243 3 9.619 3C11.996 3 13.922 4.903 13.922 7.25ZM2.983 18.053C4.508 15.793 6.913 14.333 9.619 14.333C12.326 14.333 14.731 15.793 16.256 18.053C16.589 18.548 16.756 18.796 16.737 19.113C16.7077 19.3855 16.5722 19.6356 16.36 19.809C16.104 20 15.752 20 15.048 20H4.19C3.486 20 3.134 20 2.878 19.809C2.678 19.66 2.515 19.359 2.5 19.112C2.481 18.796 2.648 18.548 2.982 18.052L2.983 18.053Z" stroke="white" stroke-width="1.5" stroke-linecap="square" stroke-linejoin="round"/>
</svg>
