<svg width="25" height="24" viewBox="0 0 25 24" fill="none" xmlns="http://www.w3.org/2000/svg">
<path d="M24.4263 5.11648L21.1944 0.263736C21.0902 0.105494 20.8816 0 20.6731 0H4.3574C4.14889 0 3.99251 0.105494 3.83613 0.263736L0.604253 5.11648C0.552126 5.22198 0.5 5.38022 0.5 5.48571C0.5 5.48571 0.5 5.48571 0.5 5.53846V7.75385C0.5 8.96703 1.12552 10.0747 2.06381 10.6549V22.7341H1.2819C0.969143 22.7341 0.656381 22.9978 0.656381 23.367C0.656381 23.7363 0.917016 24 1.2819 24H2.68933H22.2369H23.6444C23.9571 24 24.2699 23.7363 24.2699 23.367C24.2699 22.9978 24.0093 22.7341 23.6444 22.7341H22.8625V10.7077C23.8529 10.0747 24.4784 9.01978 24.4784 7.75385V5.53846C24.4784 5.53846 24.4784 5.53846 24.4784 5.48571C24.5305 5.38022 24.4784 5.27473 24.4263 5.11648ZM17.6498 7.75385C17.6498 9.01978 16.6594 10.022 15.4083 10.022C14.1573 10.022 13.1669 9.01978 13.1669 7.75385V6.17143H17.6498V7.75385ZM11.9679 7.75385C11.9679 9.01978 10.9775 10.022 9.72647 10.022C8.47543 10.022 7.48501 9.01978 7.48501 7.75385V6.17143H11.9679V7.75385ZM4.72229 1.26593H20.4125L22.8103 4.85275H22.2891H2.74146H2.32444L4.72229 1.26593ZM1.80317 6.17143H6.28609V7.75385C6.28609 9.01978 5.29568 10.022 4.04463 10.022C2.79359 10.022 1.80317 9.01978 1.80317 7.75385V6.17143ZM21.6636 22.7341H3.36698V11.1824C3.57549 11.2352 3.784 11.2352 4.04463 11.2352C5.24355 11.2352 6.28609 10.6549 6.91162 9.70549C7.53714 10.6022 8.57968 11.2352 9.7786 11.2352C10.9775 11.2352 12.0201 10.6549 12.6456 9.70549C13.2711 10.6022 14.3136 11.2352 15.5126 11.2352C16.7115 11.2352 17.754 10.6549 18.3796 9.70549C19.0051 10.6022 20.0476 11.2352 21.2465 11.2352C21.455 11.2352 21.6636 11.2352 21.8721 11.1824V22.7341H21.6636ZM23.3316 7.75385C23.3316 8.5978 22.8625 9.38901 22.1327 9.75824C22.0806 9.75824 21.9763 9.81099 21.9242 9.86374C21.6635 9.96923 21.4029 10.022 21.0902 10.022C19.8391 10.022 18.8487 9.01978 18.8487 7.75385V6.17143H23.3316V7.75385Z" fill="#6645AB"/>
<path d="M10.0063 17.143C10.4381 17.143 10.7882 16.7887 10.7882 16.3518C10.7882 15.9148 10.4381 15.5605 10.0063 15.5605C9.57444 15.5605 9.22437 15.9148 9.22437 16.3518C9.22437 16.7887 9.57444 17.143 10.0063 17.143Z" fill="#6645AB"/>
<path d="M12.2477 17.143C12.6796 17.143 13.0296 16.7887 13.0296 16.3518C13.0296 15.9148 12.6796 15.5605 12.2477 15.5605C11.8159 15.5605 11.4658 15.9148 11.4658 16.3518C11.4658 16.7887 11.8159 17.143 12.2477 17.143Z" fill="#6645AB"/>
<path d="M14.5413 17.143C14.9731 17.143 15.3232 16.7887 15.3232 16.3518C15.3232 15.9148 14.9731 15.5605 14.5413 15.5605C14.1095 15.5605 13.7594 15.9148 13.7594 16.3518C13.7594 16.7887 14.1095 17.143 14.5413 17.143Z" fill="#6645AB"/>
<path d="M16.7828 17.143C17.2146 17.143 17.5647 16.7887 17.5647 16.3518C17.5647 15.9148 17.2146 15.5605 16.7828 15.5605C16.3509 15.5605 16.0009 15.9148 16.0009 16.3518C16.0009 16.7887 16.3509 17.143 16.7828 17.143Z" fill="#6645AB"/>
<path d="M19.0763 17.143C19.5082 17.143 19.8582 16.7887 19.8582 16.3518C19.8582 15.9148 19.5082 15.5605 19.0763 15.5605C18.6445 15.5605 18.2944 15.9148 18.2944 16.3518C18.2944 16.7887 18.6445 17.143 19.0763 17.143Z" fill="#6645AB"/>
<path d="M20.0147 13.8721H8.96376C7.60846 13.8721 6.46167 14.9798 6.46167 16.4039C6.46167 17.8281 7.55634 18.9358 8.96376 18.9358H20.0147C20.6923 18.9358 21.3179 18.6721 21.787 18.1446C22.2561 17.6699 22.4646 17.0369 22.4125 16.4039C22.4646 14.9798 21.37 13.8721 20.0147 13.8721ZM20.953 17.2479C20.7445 17.5116 20.3796 17.6171 20.0668 17.6171H8.96376C8.28611 17.6171 7.71272 17.0369 7.71272 16.3512C7.71272 15.6655 8.28611 15.0853 8.96376 15.0853H19.9626C20.6402 15.0853 21.2136 15.6655 21.2136 16.4039C21.2657 16.7204 21.1615 17.0369 20.953 17.2479Z" fill="#6645AB"/>
</svg>
