<svg width="24" height="24" viewBox="0 0 24 24" fill="none" xmlns="http://www.w3.org/2000/svg">
<g clip-path="url(#clip0_1909_26431)">
<path d="M12 24C5.37305 24 0 18.627 0 12C0 5.3723 5.37305 0 12 0C18.627 0 24 5.3723 24 12C24 18.627 18.627 24 12 24ZM12 3C7.0298 3 3 7.0298 3 12C3 16.9702 7.0298 21 12 21C16.9702 21 21 16.9702 21 12C21 7.0298 16.9702 3 12 3ZM9 7.5L16.5 12L9 16.5V7.5Z" fill="white"/>
</g>
<defs>
<clipPath id="clip0_1909_26431">
<rect width="24" height="24" fill="white"/>
</clipPath>
</defs>
</svg>
