<svg width="24" height="25" viewBox="0 0 24 25" fill="none" xmlns="http://www.w3.org/2000/svg">
<g clip-path="url(#clip0_1246_1907)">
<path d="M20.9978 6.78561H17.9007C17.7987 6.78561 17.7144 6.70124 17.7144 6.59929V3.50218C17.7144 3.40023 17.7987 3.31586 17.9007 3.31586C17.9534 3.31586 17.9991 3.33695 18.0343 3.3721L21.1314 6.46922C21.2052 6.54304 21.2052 6.66257 21.1314 6.73288C21.0962 6.76803 21.047 6.78912 20.9978 6.78912V6.78561ZM18.087 6.40946H20.5443L18.087 3.95215V6.40946Z" fill="white"/>
<path d="M2.99866 3.31238H17.9007C17.9534 3.31238 17.9991 3.33347 18.0343 3.36863L21.1314 6.46574C21.1665 6.50089 21.1876 6.55011 21.1876 6.59933V21.5013C21.1876 21.6033 21.1032 21.6877 21.0013 21.6877H3.00218C2.90023 21.6877 2.81586 21.6033 2.81586 21.5013V3.50221C2.81586 3.40026 2.90023 3.31589 3.00218 3.31589L2.99866 3.31238ZM17.8198 3.68853H3.18498V21.3115H20.8079V6.67667L17.8198 3.68853Z" fill="white"/>
<path d="M5.62473 8.4871C5.52279 8.4871 5.43842 8.40273 5.43842 8.30078C5.43842 8.19884 5.52279 8.11447 5.62473 8.11447H18.3753C18.4772 8.11447 18.5616 8.19884 18.5616 8.30078C18.5616 8.40273 18.4772 8.4871 18.3753 8.4871H5.62473ZM5.62473 6.73641C5.52279 6.73641 5.43842 6.65204 5.43842 6.55009C5.43842 6.44814 5.52279 6.36377 5.62473 6.36377H11.9983C12.1002 6.36377 12.1846 6.44814 12.1846 6.55009C12.1846 6.65204 12.1002 6.73641 11.9983 6.73641H5.62473ZM5.62473 10.2413C5.52279 10.2413 5.43842 10.1569 5.43842 10.055C5.43842 9.95305 5.52279 9.86868 5.62473 9.86868H18.3753C18.4772 9.86868 18.5616 9.95305 18.5616 10.055C18.5616 10.1569 18.4772 10.2413 18.3753 10.2413H5.62473ZM5.62473 11.992C5.52279 11.992 5.43842 11.9076 5.43842 11.8057C5.43842 11.7037 5.52279 11.6194 5.62473 11.6194H18.3753C18.4772 11.6194 18.5616 11.7037 18.5616 11.8057C18.5616 11.9076 18.4772 11.992 18.3753 11.992H5.62473ZM5.62473 18.1687C5.52279 18.1687 5.43842 18.0843 5.43842 17.9823C5.43842 17.8804 5.52279 17.796 5.62473 17.796H11.0456C11.1475 17.796 11.2319 17.8804 11.2319 17.9823C11.2319 18.0843 11.1475 18.1687 11.0456 18.1687H5.62473ZM12.9369 18.1687C12.8349 18.1687 12.7506 18.0843 12.7506 17.9823C12.7506 17.8804 12.8349 17.796 12.9369 17.796H18.3577C18.4597 17.796 18.544 17.8804 18.544 17.9823C18.544 18.0843 18.4597 18.1687 18.3577 18.1687H12.9369ZM5.62473 19.9194C5.52279 19.9194 5.43842 19.835 5.43842 19.733C5.43842 19.6311 5.52279 19.5467 5.62473 19.5467H8.17695C8.2789 19.5467 8.36327 19.6311 8.36327 19.733C8.36327 19.835 8.2789 19.9194 8.17695 19.9194H5.62473ZM5.79348 13.3701H11.2495C11.3514 13.3701 11.4358 13.4544 11.4358 13.5564V16.2281C11.4358 16.3301 11.3514 16.4145 11.2495 16.4145H5.79348C5.69153 16.4145 5.60716 16.3301 5.60716 16.2281V13.5564C5.60716 13.4544 5.69153 13.3701 5.79348 13.3701ZM11.0631 13.7462H5.9798V16.0418H11.0631V13.7462ZM12.9158 13.3701H18.3718C18.4737 13.3701 18.5581 13.4544 18.5581 13.5564V16.2281C18.5581 16.3301 18.4737 16.4145 18.3718 16.4145H12.9158C12.8138 16.4145 12.7295 16.3301 12.7295 16.2281V13.5564C12.7295 13.4544 12.8138 13.3701 12.9158 13.3701ZM18.1854 13.7462H13.1021V16.0418H18.1854V13.7462Z" fill="white"/>
<path d="M14.0056 15.6305C13.9318 15.7043 13.8122 15.7043 13.7419 15.6305C13.6681 15.5567 13.6681 15.4372 13.7419 15.3669L14.4907 14.6181C14.554 14.5548 14.656 14.5442 14.7298 14.597L15.7457 15.2754L17.3734 14.1294C17.4578 14.0696 17.5738 14.0907 17.6335 14.1751C17.6933 14.2595 17.6722 14.3755 17.5878 14.4353L15.8653 15.6481C15.802 15.6973 15.7141 15.7043 15.6438 15.6586L14.6454 14.9942L14.0056 15.634V15.6305ZM6.90438 14.9239V15.6235H6.53174V14.9239H6.90438ZM8.10666 14.2525V15.6235H7.73402V14.2525H8.10666ZM9.30895 15.279V15.6235H8.93279V15.279H9.30895ZM9.91009 14.4177V15.6235H9.53394V14.4177H9.91009ZM7.50552 14.4177V15.6235H7.13288V14.4177H7.50552ZM10.5112 14.7692V15.6235H10.1351V14.7692H10.5112ZM8.7078 14.7692V15.6235H8.33165V14.7692H8.7078Z" fill="white"/>
</g>
<defs>
<clipPath id="clip0_1246_1907">
<rect width="24" height="24" fill="white" transform="translate(0 0.5)"/>
</clipPath>
</defs>
</svg>
