<svg width="25" height="26" viewBox="0 0 25 26" fill="none" xmlns="http://www.w3.org/2000/svg">
<path d="M8.2998 8.24536V19.4953H12.0498V8.24536H8.2998Z" stroke="white" stroke-width="1.5" stroke-linecap="square" stroke-linejoin="round"/>
<path d="M18.0498 10.9954C18.0498 8.50577 18.0498 4.49536 18.0498 4.49536H14.2998C14.2998 4.49536 14.2998 9.76986 14.2998 13.8704" stroke="white" stroke-width="1.5" stroke-linecap="square" stroke-linejoin="round"/>
<path d="M2.2998 12.7454V19.4954H6.0498V12.7454H2.2998Z" stroke="white" stroke-width="1.5" stroke-linecap="square" stroke-linejoin="round"/>
<path d="M15.6955 18.6676L14.3697 19.9934C14.2232 20.1398 14.2232 20.3773 14.3697 20.5237L17.0213 23.1754C17.1678 23.3218 17.4052 23.3218 17.5516 23.1754L18.8775 21.8495C19.0239 21.7031 19.0239 21.4657 18.8775 21.3192L16.2258 18.6676C16.0794 18.5211 15.8419 18.5211 15.6955 18.6676Z" stroke="white" stroke-width="1.5" stroke-linecap="square"/>
<path d="M20.048 14.3151L18.7222 15.641C18.5757 15.7874 18.5757 16.0248 18.7222 16.1713L21.3738 18.8229C21.5203 18.9694 21.7577 18.9694 21.9042 18.8229L23.23 17.4971C23.3765 17.3507 23.3765 17.1132 23.23 16.9668L20.5784 14.3151C20.4319 14.1687 20.1945 14.1687 20.048 14.3151Z" stroke="white" stroke-width="1.5" stroke-linecap="square"/>
<path d="M17.9351 19.3166L19.5261 17.7256" stroke="white" stroke-width="1.5" stroke-linecap="square"/>
</svg>
