<svg width="60" height="60" viewBox="0 0 60 60" fill="none" xmlns="http://www.w3.org/2000/svg">
<path opacity="0.3" fill-rule="evenodd" clip-rule="evenodd" d="M0 30V37C0 49.7025 10.2975 60 23 60H30H37C49.7025 60 60 49.7025 60 37V30V23C60 10.2975 49.7025 0 37 0H30H23C10.2975 0 0 10.2975 0 23V30Z" fill="#FF9066"/>
<path opacity="0.78" fill-rule="evenodd" clip-rule="evenodd" d="M28.6309 23.8093C28.651 23.5488 28.8682 23.3477 29.1294 23.3477H29.5473C29.8041 23.3477 30.0192 23.5423 30.0448 23.7979L30.6664 30.0143L35.0812 32.537C35.237 32.626 35.3331 32.7917 35.3331 32.9712V33.3597C35.3331 33.6894 35.0196 33.9288 34.7015 33.8421L28.3984 32.123C28.167 32.0599 28.0131 31.8414 28.0315 31.6023L28.6309 23.8093Z" fill="#FF9066"/>
<path opacity="0.901274" d="M21.8525 15.1903C21.9479 14.7907 22.4575 14.6697 22.7217 14.9843L24.5205 17.1278C26.2036 16.4112 28.0553 16.0136 30 16.0136C37.732 16.0136 44 22.2816 44 30.0136C44 37.7455 37.732 44.0136 30 44.0136C22.268 44.0136 16 37.7455 16 30.0136C16 28.7005 16.1805 27.4296 16.5186 26.2245L19.0859 26.9442C18.8085 27.9334 18.667 28.9628 18.667 30.0136C18.667 36.2728 23.7408 41.3466 30 41.3466C36.2592 41.3466 41.333 36.2728 41.333 30.0136C41.333 23.9499 36.5713 18.9986 30.583 18.6952L30 18.6805C28.7317 18.6805 27.4969 18.889 26.332 19.287L28.1328 21.4335C28.3974 21.7487 28.1892 22.2305 27.7783 22.2538L20.7334 22.6532C20.3992 22.672 20.1411 22.3636 20.2188 22.038L21.8525 15.1903Z" fill="#FF9066"/>
</svg>
