<svg width="60" height="60" viewBox="0 0 60 60" fill="none" xmlns="http://www.w3.org/2000/svg">
<path opacity="0.21" fill-rule="evenodd" clip-rule="evenodd" d="M0 30V37C0 49.7025 10.2975 60 23 60H30H37C49.7025 60 60 49.7025 60 37V30V23C60 10.2975 49.7025 0 37 0H30H23C10.2975 0 0 10.2975 0 23V30Z" fill="#8280FF"/>
<path opacity="0.587821" d="M38.0005 24.667C40.2094 24.6673 42.0005 26.458 42.0005 28.667C42.0005 30.876 40.2094 32.6667 38.0005 32.667C35.7913 32.667 34.0005 30.8761 34.0005 28.667C34.0005 26.4579 35.7913 24.667 38.0005 24.667ZM25.9995 18C28.9449 18 31.3333 20.3876 31.3335 23.333C31.3335 26.2785 28.945 28.667 25.9995 28.667C23.0541 28.6668 20.6665 26.2784 20.6665 23.333C20.6667 20.3877 23.0543 18.0002 25.9995 18Z" fill="white"/>
<path d="M25.9774 31.333C32.3611 31.333 37.6061 34.3905 37.997 40.9326C38.0125 41.1932 37.9966 42 36.995 42H14.9696C14.6351 41.9996 13.9727 41.2782 14.0009 40.9316C14.5178 34.5683 19.6824 31.3331 25.9774 31.333ZM37.4686 34.001C42.0104 34.0508 45.7189 36.3472 45.9979 41.2002C46.0092 41.3957 45.9976 42 45.2743 42H40.1337C40.1336 38.9989 39.142 36.2292 37.4686 34.001Z" fill="white"/>
</svg>
