<svg width="24" height="25" viewBox="0 0 24 25" fill="none" xmlns="http://www.w3.org/2000/svg">
<path d="M22.4062 9.875H21.4688C21.2451 9.87525 21.0306 9.96422 20.8724 10.1224C20.7142 10.2806 20.6252 10.495 20.625 10.7188V11H20.25C20.25 10.9005 20.2105 10.8052 20.1402 10.7348C20.0698 10.6645 19.9745 10.625 19.875 10.625H17.625C17.5362 10.625 17.4503 10.6565 17.3826 10.7139C17.3149 10.7712 17.2697 10.8508 17.2551 10.9383L17.2448 11H16.875V10.7188C16.8748 10.495 16.7858 10.2806 16.6276 10.1224C16.4694 9.96422 16.255 9.87525 16.0312 9.875H15.0938C14.956 9.87504 14.8204 9.9088 14.6987 9.97333C14.577 10.0379 14.473 10.1312 14.3957 10.2452L14.1601 10.1381L13.9688 9.18188L14.3386 8.97053C14.5394 8.85551 14.7062 8.6896 14.8223 8.48952C14.9384 8.28944 14.9997 8.06228 15 7.83095V5.75H15.375C15.4745 5.75 15.5698 5.71049 15.6402 5.64016C15.7105 5.56984 15.75 5.47446 15.75 5.375V3.03125C15.7495 2.559 15.5616 2.10624 15.2277 1.77231C14.8938 1.43838 14.441 1.25054 13.9688 1.25H9.9375C9.58952 1.25039 9.25591 1.3888 9.00985 1.63485C8.7638 1.88091 8.62539 2.21452 8.625 2.5625V3.78125C8.62525 4.00495 8.71422 4.21942 8.8724 4.3776C9.03058 4.53578 9.24505 4.62475 9.46875 4.625H11.3753C11.5071 4.95663 11.7354 5.2411 12.0306 5.44165C12.3258 5.6422 12.6744 5.74961 13.0312 5.75H14.25V7.83095C14.2499 7.93009 14.2236 8.02744 14.1738 8.11319C14.1241 8.19893 14.0526 8.27004 13.9666 8.31934L12.2791 9.28362C12.194 9.33195 12.0978 9.35736 12 9.35736C11.9021 9.35736 11.806 9.33195 11.7209 9.28362L10.0334 8.31931C9.94739 8.27002 9.8759 8.19891 9.82615 8.11317C9.77639 8.02743 9.75012 7.93008 9.75 7.83095V5.375H9V7.83095C9.00029 8.06227 9.06158 8.28943 9.17768 8.4895C9.29379 8.68957 9.46061 8.85549 9.66131 8.9705L10.0312 9.18187L9.84775 10.0991L9.57451 10.2042C9.49579 10.1018 9.39459 10.0188 9.27872 9.96176C9.16285 9.90468 9.03541 9.875 8.90625 9.875H7.96875C7.74505 9.87525 7.53058 9.96422 7.3724 10.1224C7.21422 10.2806 7.12525 10.495 7.125 10.7188V11H6.75516L6.74488 10.9383C6.73028 10.8508 6.6851 10.7712 6.61737 10.7139C6.54965 10.6565 6.46376 10.625 6.375 10.625H4.125C4.02554 10.625 3.93016 10.6645 3.85984 10.7348C3.78951 10.8052 3.75 10.9005 3.75 11H3.375V10.7188C3.37475 10.495 3.28578 10.2806 3.1276 10.1224C2.96942 9.96422 2.75495 9.87525 2.53125 9.875H1.59375C1.37005 9.87525 1.15558 9.96422 0.997403 10.1224C0.839223 10.2806 0.750248 10.495 0.75 10.7188V13.5312C0.750248 13.755 0.839223 13.9694 0.997403 14.1276C1.15558 14.2858 1.37005 14.3748 1.59375 14.375H2.53125C2.75495 14.3748 2.96942 14.2858 3.1276 14.1276C3.28578 13.9694 3.37475 13.755 3.375 13.5312V13.25H3.75C3.75 13.2992 3.7597 13.348 3.77854 13.3935C3.79739 13.439 3.82502 13.4803 3.85984 13.5152L4.86287 14.5182L4.5011 19.2212C4.49695 19.2752 4.50452 19.3294 4.52329 19.3801C4.54207 19.4308 4.57159 19.4769 4.60985 19.5152L5.70016 20.6055C5.82136 20.7275 5.96548 20.8243 6.12423 20.8904C6.28298 20.9566 6.45324 20.9907 6.62521 20.9908C6.76733 20.9907 6.9085 20.9676 7.04328 20.9226L7.71027 20.7002L7.13394 23.2937C7.12177 23.3485 7.12205 23.4053 7.13479 23.46C7.14752 23.5147 7.17237 23.5658 7.20751 23.6096C7.24264 23.6535 7.28717 23.6888 7.33779 23.7131C7.38841 23.7374 7.44385 23.75 7.5 23.75H9.375V23H7.96749L8.54002 20.4236L8.74358 20.3558C8.7903 20.3402 8.8335 20.3156 8.8707 20.2833C8.90791 20.251 8.93839 20.2118 8.96042 20.1677C8.98244 20.1237 8.99558 20.0757 8.99907 20.0266C9.00256 19.9775 8.99634 19.9281 8.98077 19.8814L7.49009 15.4093L7.25087 13.9742C7.32644 14.0967 7.43206 14.1978 7.55771 14.2679C7.68336 14.3381 7.82485 14.3749 7.96875 14.375H8.90625C9.12995 14.3748 9.34442 14.2858 9.5026 14.1276C9.66078 13.9694 9.74975 13.755 9.75 13.5312V10.9402L9.8655 10.8958L11.7348 12.7652C11.7697 12.8 11.811 12.8276 11.8565 12.8465C11.902 12.8653 11.9508 12.875 12 12.875C12.0492 12.875 12.098 12.8653 12.1435 12.8465C12.189 12.8276 12.2303 12.8 12.2652 12.7652L14.097 10.9333L14.25 11.0028V13.5312C14.2502 13.755 14.3392 13.9694 14.4974 14.1276C14.6556 14.2858 14.87 14.3748 15.0938 14.375H16.0312C16.1751 14.3749 16.3166 14.3381 16.4423 14.2679C16.5679 14.1978 16.6736 14.0967 16.7491 13.9742L16.5099 15.4094L15.0192 19.8814C15.0037 19.9281 14.9975 19.9775 15.0009 20.0266C15.0044 20.0757 15.0176 20.1237 15.0396 20.1677C15.0616 20.2117 15.0921 20.251 15.1293 20.2833C15.1665 20.3156 15.2097 20.3402 15.2564 20.3557L15.46 20.4236L16.0325 23H10.125V23.75H16.5C16.5562 23.75 16.6116 23.7374 16.6622 23.7131C16.7129 23.6888 16.7574 23.6535 16.7925 23.6097C16.8277 23.5659 16.8525 23.5147 16.8653 23.46C16.878 23.4053 16.8783 23.3485 16.8661 23.2937L16.2898 20.7002L16.9568 20.9225C17.0915 20.9676 17.2327 20.9907 17.3748 20.9908C17.5468 20.9906 17.7171 20.9565 17.8758 20.8904C18.0345 20.8243 18.1787 20.7274 18.2999 20.6054L19.3902 19.5151C19.4284 19.4769 19.458 19.4308 19.4767 19.3801C19.4955 19.3293 19.5031 19.2751 19.4989 19.2212L19.3836 17.7212L18.6358 17.7787L18.7379 19.1068L17.7695 20.0751C17.6959 20.1493 17.6029 20.2013 17.5011 20.2254C17.3994 20.2494 17.293 20.2444 17.1939 20.211L15.8493 19.7628L17.2307 15.6186C17.2369 15.6 17.2417 15.581 17.2449 15.5616L17.9427 11.375H19.5V13.0947L18.4848 14.1098C18.4466 14.1481 18.4171 14.1942 18.3983 14.2449C18.3795 14.2956 18.3719 14.3498 18.3761 14.4038L18.578 17.0288L19.3258 16.9712L19.1371 14.5182L20.1402 13.5152C20.175 13.4803 20.2026 13.439 20.2215 13.3935C20.2403 13.348 20.25 13.2992 20.25 13.25H20.625V13.5312C20.6252 13.755 20.7142 13.9694 20.8724 14.1276C21.0306 14.2858 21.2451 14.3748 21.4688 14.375H22.4062C22.6299 14.3748 22.8444 14.2858 23.0026 14.1276C23.1608 13.9694 23.2498 13.755 23.25 13.5312V10.7188C23.2498 10.495 23.1608 10.2806 23.0026 10.1224C22.8444 9.96422 22.6299 9.87525 22.4062 9.875ZM9.375 3.78125V2.5625C9.37517 2.41337 9.43449 2.27039 9.53994 2.16494C9.64539 2.05949 9.78837 2.00017 9.9375 2H11.25V3.875H9.46875C9.44389 3.87498 9.42006 3.86509 9.40249 3.84751C9.38491 3.82994 9.37502 3.80611 9.375 3.78125ZM12 3.96875V2H13.9688C14.2422 2.00031 14.5043 2.10906 14.6976 2.30239C14.8909 2.49572 14.9997 2.75784 15 3.03125V5H13.0312C12.7578 4.99969 12.4957 4.89094 12.3024 4.69761C12.1091 4.50428 12.0003 4.24216 12 3.96875ZM17.1198 11.75L16.9948 12.5H16.875V11.75H17.1198ZM7.125 11.75V12.5H7.00517L6.88017 11.75H7.125ZM2.625 13.5312C2.62498 13.5561 2.61509 13.5799 2.59751 13.5975C2.57994 13.6151 2.55611 13.625 2.53125 13.625H1.59375C1.56889 13.625 1.54506 13.6151 1.52749 13.5975C1.50991 13.5799 1.50002 13.5561 1.5 13.5312V10.7188C1.50002 10.6939 1.50991 10.6701 1.52749 10.6525C1.54506 10.6349 1.56889 10.625 1.59375 10.625H2.53125C2.55611 10.625 2.57994 10.6349 2.59751 10.6525C2.61509 10.6701 2.62498 10.6939 2.625 10.7188V13.5312ZM3.375 12.5V11.75H3.75V12.5H3.375ZM8.15067 19.7628L6.8061 20.211C6.70704 20.2444 6.6006 20.2494 6.49886 20.2253C6.39712 20.2013 6.30415 20.1493 6.23047 20.0751L5.26215 19.1068L5.62392 14.4038C5.62806 14.3498 5.62049 14.2956 5.60172 14.2449C5.58295 14.1941 5.55342 14.1481 5.51517 14.1098L4.5 13.0947V11.375H6.05733L6.75511 15.5617C6.75832 15.581 6.76305 15.6 6.76925 15.6186L8.15067 19.7628ZM9 13.5312C8.99998 13.5561 8.99009 13.5799 8.97251 13.5975C8.95494 13.6151 8.93111 13.625 8.90625 13.625H7.96875C7.94389 13.625 7.92006 13.6151 7.90249 13.5975C7.88491 13.5799 7.87502 13.5561 7.875 13.5312V10.7188C7.87502 10.6939 7.88491 10.6701 7.90249 10.6525C7.92006 10.6349 7.94389 10.625 7.96875 10.625H8.90625C8.93111 10.625 8.95494 10.6349 8.97251 10.6525C8.99009 10.6701 8.99998 10.6939 9 10.7188V13.5312ZM12 11.9697L10.5321 10.5017L10.7176 9.57409L11.3488 9.93481C11.5473 10.0476 11.7717 10.1069 12 10.1069C12.2283 10.1069 12.4527 10.0476 12.6512 9.93481L13.2824 9.57411L13.4679 10.5018L12 11.9697ZM16.125 13.5312C16.125 13.5561 16.1151 13.5799 16.0975 13.5975C16.0799 13.6151 16.0561 13.625 16.0312 13.625H15.0938C15.0689 13.625 15.0451 13.6151 15.0275 13.5975C15.0099 13.5799 15 13.5561 15 13.5312V10.7188C15 10.6939 15.0099 10.6701 15.0275 10.6525C15.0451 10.6349 15.0689 10.625 15.0938 10.625H16.0312C16.0561 10.625 16.0799 10.6349 16.0975 10.6525C16.1151 10.6701 16.125 10.6939 16.125 10.7188V13.5312ZM20.25 12.5V11.75H20.625V12.5H20.25ZM22.5 13.5312C22.5 13.5561 22.4901 13.5799 22.4725 13.5975C22.4549 13.6151 22.4311 13.625 22.4062 13.625H21.4688C21.4439 13.625 21.4201 13.6151 21.4025 13.5975C21.3849 13.5799 21.375 13.5561 21.375 13.5312V10.7188C21.375 10.6939 21.3849 10.6701 21.4025 10.6525C21.4201 10.6349 21.4439 10.625 21.4688 10.625H22.4062C22.4311 10.625 22.4549 10.6349 22.4725 10.6525C22.4901 10.6701 22.5 10.6939 22.5 10.7188V13.5312Z" fill="white"/>
<path d="M10.4807 19.1313L9.73073 16.8813L9.01923 17.1185L9.73774 19.2741L9.38226 21.0514L10.1177 21.1985L10.4927 19.3235C10.5055 19.2595 10.5014 19.1933 10.4807 19.1313Z" fill="white"/>
<path d="M14.7 15.65L13.575 17.15L14.175 17.6L15.3 16.1L14.7 15.65Z" fill="white"/>
<path d="M13.8481 19.8607L13.1518 20.1393L13.9018 22.0143L14.5982 21.7357L13.8481 19.8607Z" fill="white"/>
</svg>
