<svg width="24" height="24" viewBox="0 0 24 24" fill="none" xmlns="http://www.w3.org/2000/svg">
<path d="M12 24C5.38294 24 0 18.6171 0 12C0 5.38293 5.38294 0 12 0C18.6171 0 24 5.38293 24 12C24 18.6171 18.6171 24 12 24ZM12 0.814609C5.83261 0.814609 0.814609 5.83259 0.814609 12C0.814609 18.1674 5.83261 23.1854 12 23.1854C18.1674 23.1854 23.1854 18.1674 23.1854 12C23.1854 5.83259 18.1674 0.814609 12 0.814609Z" fill="#FF0209"/>
<path d="M19.2998 9.5975C19.2085 8.71691 19.0122 7.74345 18.2897 7.23187C17.73 6.83516 16.9944 6.8205 16.3077 6.82132C14.8561 6.82213 13.4036 6.82375 11.952 6.82457C10.5558 6.8262 9.15953 6.82702 7.76329 6.82865C7.18003 6.82946 6.61306 6.78384 6.07134 7.03636C5.6062 7.25305 5.24207 7.66525 5.02294 8.12388C4.71909 8.76171 4.65555 9.48427 4.6189 10.1897C4.55128 11.4744 4.55862 12.7623 4.63926 14.0461C4.69873 14.9829 4.84943 16.0182 5.57362 16.6154C6.21553 17.144 7.12137 17.1701 7.9539 17.1709C10.5965 17.1734 13.2399 17.1758 15.8833 17.1774C16.2222 17.1783 16.5757 17.1717 16.9211 17.1343C17.6005 17.0609 18.2481 16.8663 18.6847 16.3628C19.1254 15.8553 19.2387 15.1491 19.3055 14.4803C19.4684 12.8576 19.4668 11.2194 19.2998 9.5975ZM10.4238 14.2742V9.72457L14.3633 11.999L10.4238 14.2742Z" fill="#FF0209"/>
</svg>
