<svg width="26" height="25" viewBox="0 0 26 25" fill="none" xmlns="http://www.w3.org/2000/svg">
<path d="M8.99984 24.5V21.8291M13.0003 24.4961V21.8299M16.9999 24.5V21.8291M21.0003 24.4961V21.8299M19.6668 0.5V3.10485M15.6668 0.5V3.16622M11.6668 0.5V3.16622M17 16.4973L24.6095 8.88912C24.8595 8.63911 25 8.30003 25 7.94648V1.83311C25 1.09686 24.4031 0.5 23.6667 0.5H2.33333C1.59696 0.5 1 1.09686 1 1.83311V7.16556C1 7.90181 1.59696 8.49867 2.33333 8.49867H24.8792" stroke="white" stroke-linecap="round" stroke-linejoin="round"/>
<path d="M5.12149 16.4973H23.6667C24.4031 16.4973 25 17.0942 25 17.8304V23.1629C25 23.8992 24.4031 24.496 23.6667 24.496H6.33333C5.59696 24.496 5 23.8992 5 23.1629V17.0495C5 16.696 5.14048 16.3568 5.39052 16.1069L13 8.49867M7 0.5V8.49867" stroke="white" stroke-linecap="round" stroke-linejoin="round"/>
</svg>
