<svg width="182" height="181" viewBox="0 0 182 181" fill="none" xmlns="http://www.w3.org/2000/svg">
<path d="M104.65 36.2C97.37 36.2 91 42.535 91 49.775C91 57.015 97.37 63.35 104.65 63.35C111.93 63.35 118.3 57.015 118.3 49.775C118.3 42.535 111.93 36.2 104.65 36.2ZM154.7 0H27.3C11.83 0 0 11.765 0 27.15V153.85C0 169.235 11.83 181 27.3 181H154.7C170.17 181 182 169.235 182 153.85V27.15C182 11.765 170.17 0 154.7 0ZM163.8 107.695L146.51 90.5C135.59 80.545 118.3 80.545 108.29 90.5L100.1 98.645L73.71 72.4C62.79 62.445 45.5 62.445 35.49 72.4L18.2 89.595V27.15C18.2 21.72 21.84 18.1 27.3 18.1H154.7C160.16 18.1 163.8 21.72 163.8 27.15V107.695Z" fill="#DCDCDC"/>
</svg>
